<?xml version="1.0" encoding="utf-8"?>
<!-- Generator: Adobe Illustrator 19.0.1, SVG Export Plug-In . SVG Version: 6.00 Build 0)  -->
<svg version="1.1" id="Layer_1" xmlns="http://www.w3.org/2000/svg" xmlns:xlink="http://www.w3.org/1999/xlink" x="0px" y="0px"
	 viewBox="-247.6 351.5 85.1 91.7" style="enable-background:new -247.6 351.5 85.1 91.7;" xml:space="preserve">
<style type="text/css">
	.st0{fill:#669ACC;}
</style>
<path class="st0" d="M-179.8,362.9c-5.9-2.1-11.8,4-12.1,4.5c-0.5-0.4-1.1-0.7-1.6-1c0-0.8,0.1-6.8-1.9-10.9c-1.8-3.5-4-4.2-8-4.2
	c-1.1,0-2.3,0-3.5,0.1c-6.1,0.3-9.3,9.5-9.9,12.4c0.2,0,0.3-0.1,0.5-0.1c0.2,0,0.3,0,0.5-0.1c1-0.1,1.6-0.1,1.8-0.1
	c0.2,0,0.7-0.1,1.5-0.1c0.1,0,1.5,0,1.7,0c0.1,0,0.3,0,0.4,0c0.7-3.5,2.2-6.2,5-6.3c0.8,0,1.4,0,2.1,0c2.4,0,2.6,0.1,3.6,2.2
	c1.1,2.3,0.7,3.8,0.8,5.2c-2.5-0.5-4.4-0.5-7.7-0.6c0.7,0.1,1.4,0.3,2.1,0.5c0.5,0.2,1.1,0.3,1.6,0.5c5.4,1.9,11.2,6.1,13.2,15.3
	c3.8,17.2,3.8,33.7,3.8,43.6l0,2c0,4.4-0.3,7.6-1.1,9.9c-0.1,0.2-0.1,0.4-0.2,0.6c-0.1,0.2-0.2,0.4-0.2,0.6c0.1,0,0.1-0.1,0.2-0.1
	c0.5-0.2,0.9-0.4,1.3-0.6c3.2-1.4,5.3-2.4,5.2-10c0-1-0.1-2.5-0.1-4.2c1.1,1,5.3,4.7,8.2,7.2c3.4,3,4.9,2,4.9,2
	c3.7-0.7,5.4-3.8,5.4-3.8C-174.3,360.5-179.8,362.9-179.8,362.9z M-181,413.8c-0.8-14.1-3.2-34.2-6.3-40.7c-0.2-0.3-0.3-0.7-0.5-1
	c0.7-1.1,2.9-3,4.1-3.2c0,0,8.3,18.5,11.9,51.9C-171.7,420.9-178.7,415.3-181,413.8z M-194.1,382.4c-3.8-17.4-21.7-15.5-22.4-15.4
	c0,0-0.1,0-0.1,0c0,0-3.1,0-7.1,1.7c-1,0.4-2.1,1-3.3,1.8c-0.8,0.5-1.6,1.1-2.4,1.8c-0.6,0.5-1.2,1.1-1.8,1.7c-5,7-7,16.4-7.4,18.6
	c1.1-0.2,10-1.3,23.9-0.2c1.4,0.1,2.7,0.2,3.8,0.3c1.6,0.2,3,0.4,4.1,0.7c0.1,0,0.9,0.1,2,0.5c3.1,1.1,8.8,4.7,9.4,16
	c0.9,15.7-1.9,26.4-1.9,26.6c0,0.1-0.9,4.4-9,5.9c2.1-1.2,4-3.3,4.5-7.2c1.2-9.3,1.9-22,1-27c-1-5-2.4-9.3-9.3-10.7
	c-4.6-0.9-12.9-1.1-19.1-1.1c-2.8,0-5.1,0-6.5,0.1c-0.2,0-0.3,0-0.5,0c-0.2,0-0.3,0-0.5,0c-0.1,0-0.2,0-0.2,0c-0.3,0-1.5,0-2.9,0.5
	c-0.1,0-0.2,0.1-0.3,0.1c-0.2,0.1-0.4,0.2-0.6,0.3c-0.3,0.1-0.5,0.3-0.8,0.4c-3.2,1.9-4.4,5.4-5,7.8c-0.1,0.4-0.1,0.8-0.2,1.2
	c-1,8.3-0.9,17.1-0.8,25.4c0.1,7.5,4.6,8.3,7.8,8.8c0.3,0.1,0.6,0.1,0.9,0.2c3.6,0.7,19.2,2.3,26,2.6c0,0,0.4,0,0.9,0
	c0.3,0,0.6,0,1,0c0.8,0,1.6-0.1,2.4-0.2h0c0.2,0,0.4,0,0.6,0c1.2,0,2.4-0.1,3.7-0.3c5.5-1.3,9.6-2.6,9.7-2.6
	c0.7-0.3,1.4-0.7,1.9-1.3c0.2-0.2,0.4-0.5,0.6-0.7c1.1-1.8,1.8-5,1.7-11l0-2C-190.3,415.8-190.3,399.4-194.1,382.4z M-211.3,417.4
	c0,0-5.7-0.1-12.1-0.4c-0.2,0-0.3,0-0.5,0c-0.2,0-0.3,0-0.5,0c-3.7-0.2-7.5-0.4-10.5-0.7c-0.2,0-0.4,0-0.6-0.1c-0.2,0-0.4,0-0.6-0.1
	c-1.2-0.1-2.3-0.3-3-0.5l0.3-2.6l0.1-0.6l0.1-0.6l0.4-3.6c0,0,3.7,0.3,9.2,0.6c0.2,0,0.3,0,0.5,0c0.2,0,0.3,0,0.5,0
	c4.9,0.2,11.1,0.5,17.3,0.5L-211.3,417.4z"/>
</svg>
