<?xml version="1.0" encoding="utf-8"?>
<!-- Generator: Adobe Illustrator 19.0.1, SVG Export Plug-In . SVG Version: 6.00 Build 0)  -->
<svg version="1.1" id="Layer_1" xmlns="http://www.w3.org/2000/svg" xmlns:xlink="http://www.w3.org/1999/xlink" x="0px" y="0px"
	 viewBox="-250.4 365.9 71.7 62.2" style="enable-background:new -250.4 365.9 71.7 62.2;" xml:space="preserve">
<g>
	<path d="M-222.8,412c-0.8,0-1.4,0.3-2,0.7l-5.5,4.9l-0.9,0.8l0,0l-0.4,0.4c-1.3,1.2-1.3,3.4,0.1,5c1.4,1.5,3.6,1.8,4.9,0.7l6.7-6.1
		c1.3-1.2,1.3-3.4-0.1-5C-220.6,412.5-221.7,412-222.8,412z"/>
	<path d="M-227.3,403.5c-0.9,0-1.8,0.3-2.5,1l-7.6,6.9c-1.5,1.4-1.7,3.8-0.3,5.3c1.3,1.5,3.8,1.6,5.3,0.3l0.3-0.3l7.3-6.6
		c1.6-1.4,1.7-3.8,0.3-5.3C-225.2,404-226.2,403.5-227.3,403.5z"/>
	<path d="M-181.4,401.3c-4.4-3.5-8.5-7.5-12.4-11.4c-1.9-1.9-3.9-3.8-5.8-5.7l-0.6-0.6c-0.4-0.4-0.8-0.8-1.2-1.2
		c-2-1.8-5.3-2-9.5-0.4c-1.4,0.5-2.6,1.4-4,2.3c-1.9,1.3-3.8,2.6-6.1,2.9c-2.4,0.4-4.3-0.6-5.2-2.5c-0.9-2-0.6-4.5,0.8-6.3
		c2.3-2.9,6.2-5.2,9.3-7.2l0.2-0.1c1.6-1,3.3-1.9,4.9-2.8c0.9-0.5,2.2-0.9,3.1-1.1c-7-1.2-14.3-2.2-21.3-0.7c-2,0.5-4,1.2-5.8,2.3
		c-3.8,2.2-7.3,5.3-9.4,9.3c-1.4,2.7-2.4,5.7-2.5,8.8c-0.1,1.7,0.1,3.3,0.3,4.9l3.1-2.8c2.2-2,6-1.8,8,0.4c1,1.1,1.5,2.6,1.5,4.1
		c0,0.4-0.1,0.8-0.2,1.2c1.8-0.3,3.8,0.3,5.1,1.7c1.3,1.5,1.7,3.5,1.2,5.3c1.8-0.3,3.8,0.3,5.1,1.7c1.7,1.9,1.9,4.6,0.6,6.7
		c1.4,0.1,2.9,0.8,3.9,1.9c1.6,1.8,2,4.3,1,6.2l10.2,8.7c2,1.7,5,1.4,6.7-0.5c1.2-1.4,1.4-3.3,0.7-4.9c-0.7-0.2-1.3-0.6-1.9-1
		l-16.5-14l1.2-1.4l16.5,14c1.6,1.3,4,1.2,5.3-0.4c0.7-0.8,1-1.7,0.9-2.8c-0.1-1-0.6-1.9-1.3-2.6l-16.5-14l1.2-1.4l16.5,14
		c1.6,1.3,4,1.2,5.3-0.4c0.7-0.8,1-1.7,0.9-2.8c-0.1-1-0.6-1.9-1.3-2.6l-16.5-14l1.2-1.4l16.5,14c0.6,0.5,1,1.1,1.4,1.7
		c1.7,0.4,3.5-0.1,4.7-1.5c0.8-1,1.1-2.1,1.1-3.3L-181.4,401.3z"/>
	<path d="M-180.7,399.5c0.5-0.6,1.3-1.9,1.5-2.3c0.4-1.1,0.6-2.5,0.5-4.1c-0.1-3.1-1.2-6.2-2.1-8.5c-3.1-8.1-11.7-14.5-20.9-15.5
		c-1.8-0.2-3.6-0.2-5.4,0c-0.5,0.1-2.3,0.6-3.2,1.1c-1.6,0.8-3.2,1.8-4.8,2.7l-0.2,0.1c-3,1.8-6.7,4.1-8.8,6.7
		c-1,1.2-1.2,2.9-0.6,4.3c0.6,1.2,1.7,1.7,3.2,1.5c1.8-0.3,3.5-1.4,5.3-2.6c1.4-0.9,2.8-1.9,4.4-2.5c2.2-0.8,4.1-1.2,5.9-1.2
		c2.2,0,4.1,0.7,5.6,2c0.4,0.4,0.9,0.8,1.3,1.2l0.6,0.6c2,1.9,3.9,3.8,5.9,5.7C-188.8,392.3-184.9,396.2-180.7,399.5z"/>
	<path d="M-233.6,396.5c-0.9,0-1.8,0.3-2.5,1l-7.6,6.9c-1.5,1.4-1.7,3.8-0.3,5.3c1.3,1.5,3.8,1.6,5.3,0.3l7.6-6.9
		c1.6-1.4,1.7-3.8,0.3-5.3C-231.5,397-232.5,396.5-233.6,396.5z"/>
	<path d="M-239.9,389.5c-0.9,0-1.8,0.3-2.5,1l-7.6,6.9c-0.8,0.7-1.2,1.6-1.2,2.6c-0.1,1,0.3,2,1,2.7c1.3,1.5,3.8,1.6,5.3,0.3
		l7.6-6.9c0.8-0.7,1.2-1.6,1.2-2.6c0.1-1-0.3-2-1-2.7C-237.8,390-238.8,389.5-239.9,389.5z"/>
</g>
</svg>
