<?xml version="1.0" encoding="utf-8"?>
<!-- Generator: Adobe Illustrator 19.0.1, SVG Export Plug-In . SVG Version: 6.00 Build 0)  -->
<svg version="1.1" id="Layer_1" xmlns="http://www.w3.org/2000/svg" xmlns:xlink="http://www.w3.org/1999/xlink" x="0px" y="0px"
	 viewBox="200.8 0 727.8 687.6" style="enable-background:new 200.8 0 727.8 687.6;" xml:space="preserve">
<path d="M928.5,480.3c0,23.6-6.5,43.3-19.5,59c-13,15.7-31,23.6-54,23.6c-12,0-23.3-2.6-33.9-7.7c-10.6-5.1-19.2-10.6-25.8-16.6
	c-6.6-6-14.8-11.5-24.7-16.6c-9.9-5.1-20.3-7.7-31.1-7.7c-32.1,0-48.1,18.1-48.1,54.2c0,11.4,2.3,28.1,7,50.3
	c4.7,22.2,6.9,38.9,6.6,50.3v2.2c-6.4,0-11.2,0.1-14.4,0.4c-9.9,0.9-24.1,2.6-42.6,5c-18.5,2.5-35.4,4.4-50.5,5.9
	c-15.2,1.5-29.4,2.2-42.9,2.2c-17.8,0-32.8-3.9-45-11.6c-12.2-7.7-18.4-19.9-18.4-36.5c0-10.8,2.6-21.1,7.7-31.1
	c5.1-9.9,10.6-18.1,16.6-24.7c6-6.6,11.5-15.2,16.6-25.8c5.1-10.6,7.7-21.9,7.7-33.9c0-23-7.9-41-23.6-54
	c-15.7-13-35.4-19.5-59-19.5c-24.5,0-45.3,6.6-62.5,19.9c-17.2,13.3-25.8,31.9-25.8,55.8c0,12.5,2.2,24.6,6.6,36.3
	c4.4,11.7,9.3,21.1,14.7,28.2c5.4,7.1,10.3,14.9,14.7,23.2c4.4,8.3,6.6,15.7,6.6,22.1c0,13.1-6.7,26.1-20.1,38.9
	c-10.8,10.2-27.8,15.3-51.2,15.3c-27.7,0-63.4-3.5-107.1-10.5c-2.6-0.6-6.6-1.2-12-1.7c-5.4-0.6-9.4-1.2-12-1.7l-5.7-0.9
	c-0.3,0-0.7-0.1-1.3-0.4c-0.6,0-0.9-0.1-0.9-0.4V224c0.6,0.3,3.1,0.8,7.7,1.5c4.5,0.7,9.5,1.5,14.9,2.2c5.4,0.7,8.5,1.2,9.4,1.5
	c43.7,7,79.4,10.5,107.1,10.5c23.3,0,40.4-5.1,51.2-15.3c13.4-12.8,20.1-25.8,20.1-38.9c0-6.4-2.2-13.8-6.6-22.1
	c-4.4-8.3-9.3-16-14.7-23.2c-5.4-7.1-10.3-16.5-14.7-28.2c-4.4-11.7-6.6-23.8-6.6-36.3c0-23.9,8.6-42.5,25.8-55.8
	c17.2-13.3,38.2-19.9,63-19.9c23.3,0,42.9,6.5,58.6,19.5c15.7,13,23.6,31,23.6,54c0,12-2.6,23.3-7.7,33.9
	c-5.1,10.6-10.6,19.2-16.6,25.8c-6,6.6-11.5,14.8-16.6,24.7c-5.1,9.9-7.7,20.3-7.7,31.1c0,16.6,6.1,28.8,18.4,36.5
	c12.2,7.7,27.3,11.6,45,11.6c18.7,0,44.9-2.2,78.7-6.6c33.8-4.4,57.6-6.9,71.3-7.4v0.9c-0.3,0.6-0.8,3.1-1.5,7.7
	c-0.7,4.5-1.5,9.5-2.2,14.9c-0.7,5.4-1.2,8.5-1.5,9.4c-7,43.7-10.5,79.4-10.5,107.1c0,23.3,5.1,40.4,15.3,51.2
	c12.8,13.4,25.8,20.1,38.9,20.1c6.4,0,13.8-2.2,22.1-6.6c8.3-4.4,16-9.3,23.2-14.7c7.1-5.4,16.5-10.3,28.2-14.7
	c11.7-4.4,23.8-6.6,36.3-6.6c23.9,0,42.5,8.6,55.8,25.8S928.5,455.8,928.5,480.3L928.5,480.3z"/>
</svg>
