<?xml version="1.0" encoding="utf-8"?>
<!-- Generator: Adobe Illustrator 19.0.1, SVG Export Plug-In . SVG Version: 6.00 Build 0)  -->
<svg version="1.1" id="Layer_1" xmlns="http://www.w3.org/2000/svg" xmlns:xlink="http://www.w3.org/1999/xlink" x="0px" y="0px"
	 viewBox="0 0 412.3 342.9" style="enable-background:new 0 0 412.3 342.9;" xml:space="preserve">
<style type="text/css">
	.st0{fill:#FFFFFF;}
</style>
<g>
	<path class="st0" d="M159.4,225.7c57.3-9.8,113.3-3.4,169.6,10.7C304.1,157.3,279.4,79,254.6,0c-19.2,22.3-39.1,42.4-61.1,60.4
		c-22.1,18.1-45.9,33.4-71.8,45.7C134.4,146.2,146.8,185.8,159.4,225.7z M101.2,112.2c-22,7.2-43.8,12.9-64.5,21.4
		c-26.7,10.8-41.2,40.7-35.5,68.5c7.6,37.5,44.1,59.2,80.8,48c17.6-5.4,35.2-11,52.8-16.6c1.4-0.4,2.6-1.1,4.1-1.6
		C126.4,191.9,113.9,152.5,101.2,112.2z M82.5,270.5c0.6,1.1,0.8,1.7,1.1,2.2c14.7,20.7,29.4,41.6,44.3,62.2
		c5.3,7.3,13.1,9.6,21.8,7c14.3-4.3,28.6-8.9,42.8-13.4c4.6-1.5,7.2-4.7,7.6-9.5c0.4-5-1.9-8.9-6.5-10.8c-10-4-17.1-11.2-22.9-20
		c-7.6-11.6-15.5-22.9-23.2-34.3c-1.2-1.8-2.2-3.3-5.1-2.4C122.7,257.9,102.9,264.1,82.5,270.5z M396.2,187.6
		c35.4-62.2,11.2-152.4-58.6-186c-4.2,8-8.3,16-12.6,24.1c26.9,14.8,45.3,36.2,54.4,65c9.2,28.9,6.2,57.1-7.3,84.4
		C380.4,179.4,388.3,183.5,396.2,187.6z M303.6,66.9c32.6,21.8,41.9,50.5,27.3,86.8c7.8,4,15.6,8,23.3,12
		c25-45.9,2.7-103.1-38.6-121.8C311.5,51.6,307.5,59.4,303.6,66.9z"/>
	<path d="M159.4,225.7c-12.6-39.9-25.1-79.5-37.7-119.7c25.9-12.2,49.7-27.6,71.8-45.7c21.9-18,41.8-38.1,61.1-60.4
		c24.9,79,49.5,157.3,74.5,236.4C272.7,222.3,216.7,215.9,159.4,225.7z"/>
	<path d="M101.2,112.2c12.7,40.3,25.1,79.7,37.7,119.6c-1.4,0.6-2.7,1.2-4.1,1.6c-17.6,5.6-35.2,11.2-52.8,16.6
		c-36.7,11.2-73.2-10.5-80.8-48c-5.7-27.8,8.8-57.7,35.5-68.5C57.4,125.2,79.2,119.4,101.2,112.2z"/>
	<path d="M82.5,270.5c20.4-6.4,40.2-12.6,60-19c2.9-0.9,3.8,0.5,5.1,2.4c7.7,11.4,15.7,22.7,23.2,34.3c5.8,8.9,12.8,16,22.9,20
		c4.6,1.8,6.9,5.8,6.5,10.8c-0.3,4.8-3,8.1-7.6,9.5c-14.2,4.5-28.5,9.2-42.8,13.4c-8.7,2.6-16.5,0.3-21.8-7
		c-15-20.6-29.6-41.4-44.3-62.2C83.3,272.2,83,271.6,82.5,270.5z"/>
	<path d="M396.2,187.6c-7.9-4.1-15.8-8.2-24.1-12.5c13.5-27.4,16.5-55.5,7.3-84.4c-9.1-28.8-27.5-50.1-54.4-65
		c4.2-8.1,8.4-16.1,12.6-24.1C407.3,35.3,431.6,125.4,396.2,187.6z"/>
	<path d="M303.6,66.9c3.9-7.5,8-15.2,12-23c41.4,18.7,63.6,75.9,38.6,121.8c-7.7-4-15.5-8-23.3-12
		C345.5,117.4,336.2,88.7,303.6,66.9z"/>
</g>
</svg>
