<?xml version="1.0" encoding="utf-8"?>
<!-- Generator: Adobe Illustrator 19.0.1, SVG Export Plug-In . SVG Version: 6.00 Build 0)  -->
<svg version="1.1" id="Capa_1" xmlns="http://www.w3.org/2000/svg" xmlns:xlink="http://www.w3.org/1999/xlink" x="0px" y="0px"
	 viewBox="56.8 91 219.9 270" style="enable-background:new 56.8 91 219.9 270;" xml:space="preserve">
<g>
	<path d="M168.8,110.3h-5.9c-3.2,0-5.7-2.6-5.7-5.7v-0.2c0-7.4-6-13.3-13.3-13.3h-0.3c-7.4,0-13.3,6-13.3,13.3v0.2
		c0,3.2-2.6,5.7-5.7,5.7h-5.9c-6.3,0-11.5,5.1-11.5,11.5v0.2c0,6.3,5.1,11.5,11.5,11.5h50.4c6.3,0,11.5-5.1,11.5-11.5v-0.2
		C180.3,115.4,175.1,110.3,168.8,110.3z M143.6,110.3c-3.2,0-5.8-2.6-5.8-5.8c0-3.2,2.6-5.8,5.8-5.8c3.2,0,5.8,2.6,5.8,5.8
		S146.8,110.3,143.6,110.3z M169.4,334H72.3c-8.5,0-15.4-6.9-15.4-15.4V133.4c0-8.5,6.9-15.4,11.6-15.4h31.3c-0.3,1.3-0.4,2.6-0.4,4
		c0,10.6,8.6,19.2,19.2,19.2h50.4c10.6,0,19.2-8.6,19.2-19.4c0-1.3-0.1-2.5-0.4-3.7h23.5c12.4,0,19.3,6.9,19.3,15.4v115.9
		c-1.3-0.1-2.6-0.2-3.9-0.2c-5.3,0-10.5,0.8-15.4,2v-90.7h-135v154.3H165C165.4,321.5,166.9,328,169.4,334z M226.5,260.7
		c-27.7,0-50.1,22.5-50.1,50.1s22.4,50.1,50.1,50.1s50.1-22.5,50.1-50.1S254.2,260.7,226.5,260.7z M259.3,300.6l-30.9,34.7
		c-1.5,1.7-3.6,2.6-5.8,2.6c-1.7,0-3.4-0.6-4.8-1.7l-19.3-15.4c-3.3-2.7-3.9-7.5-1.2-10.8c2.7-3.3,7.5-3.9,10.8-1.2l13.6,10.9
		l26-29.2c2.8-3.2,7.7-3.5,10.9-0.6C261.9,292.5,262.1,297.4,259.3,300.6z M191.8,226h-61.7c-2.1,0-3.9-1.7-3.9-3.9v-3.9
		c0-2.1,1.7-3.9,3.9-3.9h61.7c2.1,0,3.9,1.7,3.9,3.9v3.9C195.7,224.3,194,226,191.8,226z M191.8,191.3h-61.7c-2.1,0-3.9-1.7-3.9-3.9
		v-3.9c0-2.1,1.7-3.9,3.9-3.9h61.7c2.1,0,3.9,1.7,3.9,3.9v3.9C195.7,189.6,194,191.3,191.8,191.3z M172.5,256.9h-42.4
		c-2.1,0-3.9-1.7-3.9-3.9v-3.9c0-2.1,1.7-3.9,3.9-3.9h42.4c2.1,0,3.9,1.7,3.9,3.9v3.9C176.4,255.1,174.7,256.9,172.5,256.9z
		 M164.8,291.6h-34.7c-2.1,0-3.9-1.7-3.9-3.9v-3.9c0-2.1,1.7-3.9,3.9-3.9h34.7c2.1,0,3.9,1.7,3.9,3.9v3.9
		C168.7,289.8,167,291.6,164.8,291.6z M118.9,177l-14.2,16c-0.7,0.8-1.7,1.2-2.7,1.2c-0.8,0-1.6-0.3-2.2-0.8l-8.9-7.1
		c-1.5-1.2-1.8-3.5-0.6-5c1.2-1.5,3.5-1.8,5-0.6l6.2,5l12-13.5c1.3-1.5,3.5-1.6,5-0.3C120,173.3,120.2,175.6,118.9,177z
		 M118.9,211.3l-14.2,16c-0.7,0.8-1.7,1.2-2.7,1.2c-0.8,0-1.6-0.3-2.2-0.8l-8.9-7.1c-1.5-1.2-1.8-3.5-0.6-5c1.2-1.5,3.5-1.8,5-0.6
		l6.2,5l12-13.5c1.3-1.5,3.5-1.6,5-0.3C120,207.6,120.2,209.9,118.9,211.3z M118.9,244.2l-14.2,16c-0.7,0.8-1.7,1.2-2.7,1.2
		c-0.8,0-1.6-0.3-2.2-0.8l-8.9-7.1c-1.5-1.2-1.8-3.5-0.6-5c1.2-1.5,3.5-1.8,5-0.6l6.2,5l12-13.5c1.3-1.5,3.5-1.6,5-0.3
		C120,240.4,120.2,242.7,118.9,244.2z M118.9,277.2l-14.2,16c-0.7,0.8-1.7,1.2-2.7,1.2c-0.8,0-1.6-0.3-2.2-0.8l-8.9-7.1
		c-1.5-1.2-1.8-3.5-0.6-5c1.2-1.5,3.5-1.8,5-0.6l6.2,5l12-13.5c1.3-1.5,3.5-1.6,5-0.3C120,273.5,120.2,275.7,118.9,277.2z"/>
</g>
</svg>
