<?xml version="1.0" encoding="utf-8"?>
<!-- Generator: Adobe Illustrator 19.0.1, SVG Export Plug-In . SVG Version: 6.00 Build 0)  -->
<svg version="1.1" id="Layer_1" xmlns="http://www.w3.org/2000/svg" xmlns:xlink="http://www.w3.org/1999/xlink" x="0px" y="0px"
	 viewBox="-255 347 100 100" style="enable-background:new -255 347 100 100;" xml:space="preserve"><style type="text/css">
	path, rect {fill:#f89938;}
</style>
<path d="M-205,383.1c6.1,0,11.5-2.8,15-7.2c-1.8-4.4-5.4-7.8-10-9.3c3.2-1.8,5.4-5.2,5.4-9.2c0-5.7-4.6-10.4-10.4-10.4
	s-10.4,4.7-10.4,10.4c0,3.9,2.2,7.4,5.4,9.2c-4.5,1.5-8.2,4.9-10,9.3C-216.5,380.3-211.1,383.1-205,383.1z"/>
<path d="M-170,446.6c6.1,0,11.5-2.8,15-7.2c-1.8-4.4-5.4-7.8-10-9.3c3.2-1.8,5.4-5.2,5.4-9.2c0-5.8-4.7-10.4-10.4-10.4
	c-5.8,0-10.4,4.7-10.4,10.4c0,3.9,2.2,7.4,5.4,9.2c-4.5,1.5-8.2,4.9-10,9.3C-181.5,443.8-176.1,446.6-170,446.6z"/>
<path d="M-240,446.6c6.1,0,11.5-2.8,15-7.2c-1.8-4.4-5.4-7.8-10-9.3c3.2-1.8,5.4-5.2,5.4-9.2c0-5.8-4.7-10.4-10.4-10.4
	c-5.8,0-10.4,4.7-10.4,10.5c0,3.9,2.2,7.4,5.4,9.2c-4.6,1.4-8.2,4.8-10,9.2C-251.5,443.8-246.1,446.6-240,446.6z"/>
<rect x="-196.7" y="394.1" transform="matrix(-0.492 -0.8706 0.8706 -0.492 -621.6022 430.5346)" width="23" height="5"/>
<rect x="-227.3" y="385.1" transform="matrix(-0.8704 -0.4923 0.4923 -0.8704 -615.6943 631.128)" width="5" height="23"/>
<rect x="-225" y="416.6" width="40" height="5"/>
</svg>
