<?xml version="1.0" encoding="utf-8"?>
<!-- Generator: Adobe Illustrator 19.0.1, SVG Export Plug-In . SVG Version: 6.00 Build 0)  -->
<svg version="1.1"
	 id="Layer_1" xmlns:svg="http://www.w3.org/2000/svg" xmlns:sodipodi="http://sodipodi.sourceforge.net/DTD/sodipodi-0.dtd" xmlns:inkscape="http://www.inkscape.org/namespaces/inkscape" xmlns:cc="http://creativecommons.org/ns#" xmlns:rdf="http://www.w3.org/1999/02/22-rdf-syntax-ns#" xmlns:dc="http://purl.org/dc/elements/1.1/"
	 xmlns="http://www.w3.org/2000/svg" xmlns:xlink="http://www.w3.org/1999/xlink" x="0px" y="0px" viewBox="-252.6 363 54.3 68.1"
	 style="enable-background:new -252.6 363 54.3 68.1;" xml:space="preserve">
<g transform="translate(0,-972.36216)">
	<path d="M-222.2,1335.3c-9,0.1-14.9,1.8-18.8,4.7c-4.2,3.1-6,7.4-7.1,11.8c-1.6,6.2,0.1,8.4,0.2,10.3c0,2-0.5,4-1.3,5.7
		c-1.1,2.4-3,4.3-3.2,6.1c-0.1,1.1,0.4,2.2,1.1,2.8c0.7,0.6,1.6,0.9,2.4,1.1c0.5,0.1,1,0.2,1.4,0.2c-0.4,1.1-1,2.5-1.6,3.6
		c-0.1,0.3-0.2,0.7-0.1,1c0.1,0.3,0.2,0.5,0.4,0.7c0.3,0.3,0.5,0.4,0.8,0.5c0.5,0.2,1.1,0.4,1.7,0.6c0.1,0,0.2,0,0.3,0.1
		c-0.1,0-0.1,0.1-0.2,0.1c-0.3,0.2-0.7,0.5-1,0.9c-0.3,0.4-0.6,1-0.6,1.7c0,0.5,0.4,1,0.7,1.2c0.3,0.2,0.5,0.2,0.7,0.3
		c2.1,0.8,2,3.8,2,4.8c0,0.9,0.2,1.8,0.7,2.4c0.5,0.6,1.3,1,2,1.1c1.5,0.3,3.1,0.1,4.8-0.3c1.7-0.4,3.3-0.9,4.6-1.3
		c0.7-0.2,1.2-0.3,1.6-0.4c0.3-0.1,0.5,0,0.5,0c0.4,0.2,0.6,0.5,0.8,1.1c0.2,0.6,0.2,1.5,0.1,2.4c-0.2,1.8-0.8,3.4-0.8,3.4
		c-0.2,0.6,0.7,1.5,0.7,1.5l27.4,0.1c0.5-0.4,0.5-1.2,0.1-1.6c0,0-0.6-0.6-1.4-2.4c-0.8-1.8-1.8-4.5-2.4-8.6c-0.6-3.7,1-8.9,3-14.4
		c1.9-5.5,4.2-11.1,4.5-16.3c0.4-8.1-1.6-14.3-5.6-18.5c-4-4.2-9.8-6.2-16.5-6.3C-221,1335.3-221.6,1335.3-222.2,1335.3z
		 M-213.3,1343.4L-213.3,1343.4L-213.3,1343.4l0.1,0.8c0.1,0,0.2,0,0.4,0c0.2,0,0.4,0,0.6,0l0.1-0.8l0,0l0,0l0,0l0.2,0l0,0l0,0
		l0.2,0l0,0l0,0l0.2,0l0,0l0,0l0.2,0l0,0l0,0l0.2,0l0,0l0,0l0.2,0l0,0l0,0l0.1,0l0,0l0,0l0.1,0l0,0l0,0l0.1,0l0,0l0,0l0.1,0.1l0,0
		l0,0l0.1,0.1l0,0l0,0l0.1,0.1l0,0l0,0l0.1,0.1l-0.4,0.8c0.3,0.1,0.6,0.3,0.8,0.5l0.5-0.7l0.1,0l0,0l0,0l0.2,0.2l0,0l0,0l0.2,0.2
		l0,0l0,0l0.2,0.2l0,0l0,0l0.2,0.2l0,0l0,0l0.2,0.2l0,0l0,0l0.2,0.2l0,0l0,0l0.1,0.1l-0.7,0.5c0.2,0.2,0.4,0.5,0.5,0.8l0.7-0.4
		l0,0.1l0,0l0,0l0.1,0.3l0,0l0,0l0.1,0.3l0,0l0,0l0.1,0.1l0,0l0,0l0.1,0.1l0,0l0,0l0.1,0.1l0,0l0,0l0,0.1l0,0l0,0l0,0.1l0,0l0,0
		l0,0.1l0,0l0,0l0,0.2l0,0l0,0l0,0.2l0,0l0,0l0,0.1l-0.8,0.2c0.1,0.3,0.1,0.6,0.1,0.9l0.8,0l0,0l0,0v0l0,0.2l-0.5,0l0.5,0l0,0.2v0
		l0,0l0,0.2l0,0l0,0l0,0.2l0,0l0,0l0,0.2l0,0l0,0l0,0.2l0,0l0,0l0,0.2l0,0l0,0l0,0.2l0,0l0,0l0,0.2l0,0l0,0l0,0.2l0,0l0,0l0,0.2l0,0
		l0,0l0,0.1l0,0l0,0l0,0.1l0,0l0,0l0,0.1l-0.8-0.3c-0.1,0.3-0.2,0.6-0.4,0.9l0.8,0.4l0,0.1l0,0l0,0l-0.2,0.3l0,0l0,0l-0.2,0.3l0,0
		l0,0l-0.2,0.2l0,0l0,0l-0.2,0.2l0,0l0,0l-0.2,0.2l0,0l0,0l-0.2,0.2l0,0l0,0l-0.1,0.1l-0.6-0.6c-0.2,0.2-0.5,0.4-0.7,0.6l0.5,0.7
		l-0.1,0.1l0,0l0,0l-0.3,0.2l0,0l0,0l-0.3,0.2l0,0l0,0l-0.3,0.1l0,0l0,0l-0.3,0.1l0,0l0,0l-0.1,0.1l0,0l0,0l-0.1,0.1l0,0l0,0
		l-0.1,0.1l0,0l0,0l-0.1,0l0,0l0,0l-0.1,0l-0.2-0.8c-0.3,0.1-0.6,0.2-0.9,0.2l0.1,0.8l-0.2,0l0,0l0,0l-0.2,0l0,0l0,0l-0.2,0l0,0h0
		l-0.2,0l0,0h0l-0.2,0l0,0l0,0l-0.2,0h0l0,0l-0.2,0h0l0,0l-0.2,0l0,0l0,0l-0.2,0l0,0l0,0l-0.2,0l0,0l0,0l-0.2,0l0,0l0,0l-0.2,0l0,0
		l0,0l-0.1,0l0.2-0.8c-0.3-0.1-0.6-0.1-0.9-0.3l-0.3,0.8l-0.1,0l0,0l0,0l-0.1-0.1l0,0l0,0l-0.3-0.1l0,0l0,0l-0.3-0.1l0,0l0,0
		l-0.3-0.2l0,0l0,0l-0.3-0.2l0,0l0,0l-0.2-0.2l0,0l0,0l-0.2-0.1l0.5-0.7c-0.2-0.2-0.5-0.4-0.7-0.6l-0.6,0.6l-0.2-0.2l0,0l0,0
		l-0.2-0.2l0,0l0,0l-0.2-0.2l0,0l0,0l-0.2-0.3l0,0l0,0l-0.2-0.3l0,0l0,0l-0.1-0.3l0,0l0,0l-0.1-0.2l0.8-0.4
		c-0.1-0.3-0.2-0.6-0.3-0.9l-0.8,0.2l0,0l0,0l0,0l0-0.2l0,0l0,0l0-0.2l0,0l0,0l0-0.2l0,0l0,0l0-0.2l0,0l0,0l0-0.2l0,0l0,0l0-0.2l0,0
		l0,0l0-0.2l0,0l0,0l0-0.2l0,0l0,0l0-0.2l0,0v0l0-0.2v0v0l0-0.2v0l0,0l0-0.2l0,0l0,0l0-0.1l0.8,0.1c0-0.3,0.1-0.6,0.1-0.9l-0.8-0.2
		l0,0l0,0l0,0l0-0.2l0,0l0,0l0-0.1l0,0l0,0l0-0.1l0,0l0,0l0-0.1l0,0l0,0l0.1-0.1l0,0l0,0l0.1-0.1l0,0l0,0l0.1-0.1l0,0l0,0l0.1-0.3
		l0,0l0,0l0.1-0.3l0,0l0,0l0.2-0.3l0,0l0,0l0,0l0.6,0.4l0.1,0.1c0.2-0.3,0.4-0.5,0.6-0.8l-0.6-0.6l0.1-0.1l0,0l0,0l0.2-0.2l0,0l0,0
		l0.2-0.2l0,0l0,0l0.2-0.2l0,0l0,0l0.2-0.2l0,0l0,0l0.2-0.2l0,0l0,0l0.3-0.2l0,0l0,0l0,0l0.4,0.7l0,0c0.3-0.2,0.6-0.3,0.9-0.4
		l-0.3-0.8l0,0l0,0l0,0l0.1-0.1l0,0l0,0l0.1-0.1l0,0l0,0l0.1,0l0,0l0,0l0.1,0l0,0l0,0l0.1,0l0,0l0,0l0.2,0l0,0l0,0l0.2,0l0,0l0,0
		l0.2,0l0,0l0,0l0.2,0l0,0l0,0l0.2,0l0,0l0,0l0.2,0l0,0l0,0l0.2,0l0,0L-213.3,1343.4L-213.3,1343.4L-213.3,1343.4L-213.3,1343.4z
		 M-212.8,1347.2c-1.7,0-3,1.3-3,3c0,1.7,1.3,3,3,3s3-1.3,3-3C-209.9,1348.5-211.2,1347.2-212.8,1347.2z M-229.2,1348.9
		L-229.2,1348.9l0.1,1.4c0.2,0,0.4,0,0.6,0c0.3,0,0.7,0,1,0l0.1-1.4l0,0l0,0l0,0l0.3,0l0,0l0,0l0.3,0l0,0l0,0l0.3,0l0,0l0,0l0.3,0
		l0,0l0,0l0.3,0.1l0,0l0,0l0.3,0.1l0,0l0,0l0.3,0.1l0,0l0,0l0.2,0.1l0,0l0,0l0.2,0.1l0,0l0,0l0.2,0.1l0,0l0,0l0.2,0.1l0,0l0,0
		l0.2,0.1l0,0l0,0l0.2,0.1l-0.6,1.3c0.5,0.2,1,0.5,1.4,0.8l0.8-1.2l0.1,0.1l0,0l0,0l0.4,0.3l0,0l0,0l0.4,0.3l0,0l0,0l0.4,0.3l0,0
		l0,0l0.4,0.3l0,0l0,0l0.3,0.4l0,0l0,0l0.3,0.4l0,0l0,0l0.1,0.2l-1.1,0.9c0.3,0.4,0.6,0.9,0.9,1.3l1.2-0.7l0.1,0.1l0,0l0,0l0.2,0.5
		l0,0l0,0l0.2,0.5l0,0l0,0l0.1,0.2l0,0l0,0l0.1,0.2l0,0l0,0l0.1,0.2l0,0l0,0l0.1,0.2l0,0l0,0l0.1,0.2l0,0l0,0l0.1,0.3l0,0l0,0
		l0.1,0.3l0,0l0,0l0.1,0.3l0,0l0,0l0,0.1l-1.4,0.3c0.1,0.5,0.2,1,0.2,1.6l1.4-0.1l0,0l0,0v0l0,0.3l-0.8,0l0.8,0l0,0.3v0l0,0l0,0.3
		l0,0l0,0l0,0.3l0,0l0,0l0,0.3l0,0l0,0l0,0.3l0,0l0,0l0,0.3l0,0l0,0l0,0.3l0,0l0,0l0,0.3l0,0l0,0l-0.1,0.3l0,0l0,0l-0.1,0.3l0,0l0,0
		l-0.1,0.3l0,0l0,0l-0.1,0.2l0,0l0,0l-0.1,0.2l-1.4-0.4c-0.2,0.5-0.4,1-0.6,1.5l1.3,0.7l-0.1,0.1l0,0l0,0l-0.3,0.4l0,0l0,0l-0.3,0.4
		l0,0l0,0l-0.3,0.4l0,0l0,0l-0.3,0.4l0,0l0,0l-0.3,0.4l0,0l0,0l-0.3,0.4l0,0l0,0l-0.1,0.1l-1-1c-0.4,0.4-0.8,0.7-1.2,1l0.8,1.2
		l-0.1,0.1l0,0l0,0l-0.4,0.3l0,0l0,0l-0.4,0.3l0,0l0,0l-0.5,0.2l0,0l0,0l-0.5,0.2l0,0l0,0l-0.2,0.1h0h0l-0.2,0.1l0,0h0l-0.2,0.1h0h0
		l-0.2,0.1h0h0l-0.1,0l-0.4-1.4c-0.5,0.1-1,0.3-1.6,0.3l0.2,1.4l-0.3,0h0l0,0l-0.3,0l0,0l0,0l-0.3,0l0,0l0,0l-0.3,0l0,0h0h-0.3l0,0
		l0,0h-0.3h0l0,0l-0.3,0l0,0l0,0l-0.3,0l0,0l0,0l-0.3,0l0,0h0l-0.3,0h0h0l-0.3,0h0h0l-0.3,0h0h0l-0.2,0l0.3-1.4
		c-0.5-0.1-1-0.2-1.5-0.4l-0.5,1.3l-0.2-0.1h0h0l-0.2-0.1l0,0l0,0l-0.5-0.2l0,0l0,0l-0.5-0.2l0,0l0,0l-0.4-0.3l0,0l0,0l-0.4-0.3l0,0
		l0,0l-0.4-0.3l0,0l0,0l-0.3-0.2l0.9-1.1c-0.4-0.3-0.8-0.7-1.1-1.1l-1.1,0.9l-0.3-0.4l0,0l0,0l-0.3-0.4l0,0l0,0l-0.3-0.4l0,0l0,0
		l-0.3-0.4l0,0l0,0l-0.3-0.4l0,0l0,0l-0.2-0.5l0,0l0,0l-0.1-0.3l1.3-0.6c-0.2-0.5-0.4-1-0.5-1.5l-1.4,0.4l0,0l0,0l0,0l-0.1-0.3l0,0
		l0,0l-0.1-0.3l0,0l0,0l0-0.3l0,0l0,0l0-0.3l0,0l0,0l0-0.3l0,0l0,0l0-0.3l0,0l0,0l0-0.3l0,0l0,0l0-0.3l0,0l0,0l0-0.3l0,0v0l0-0.3
		l0,0l0,0l0-0.3v0l0,0l0-0.3l0,0l0,0l0-0.2l1.4,0.1c0-0.5,0.1-1.1,0.2-1.6l-1.4-0.3l0,0l0,0l0,0l0.1-0.3l0,0l0,0l0.1-0.3l0,0l0,0
		l0.1-0.2l0,0l0,0l0.1-0.2l0,0l0,0l0.1-0.2l0,0l0,0l0.1-0.2l0,0l0,0l0.1-0.2l0,0l0,0l0.2-0.5l0,0l0,0l0.2-0.5l0,0l0,0l0.3-0.4l0,0
		l0,0l0,0l1.1,0.7l0.2,0.1c0.3-0.5,0.6-0.9,0.9-1.3l-1.1-0.9l0.2-0.2l0,0l0,0l0.3-0.4l0,0l0,0l0.4-0.3l0,0l0,0l0.4-0.3l0,0l0,0
		l0.4-0.3l0,0l0,0l0.4-0.3l0,0l0,0l0.4-0.3l0,0l0,0l0,0l0.7,1.2l0,0.1c0.5-0.3,0.9-0.5,1.4-0.7l-0.5-1.3l0.1,0l0,0l0,0l0.2-0.1l0,0
		l0,0l0.2-0.1l0,0l0,0l0.2-0.1l0,0l0,0l0.2-0.1l0,0l0,0l0.3-0.1l0,0l0,0l0.3-0.1l0,0l0,0l0.3-0.1l0,0l0,0l0.3,0l0,0l0,0l0.3,0l0,0
		l0,0l0.3,0l0,0l0,0l0.3,0l0,0l0,0l0.3,0l0,0l0,0L-229.2,1348.9L-229.2,1348.9z M-228.5,1355.3c-2.8,0-5,2.2-5,5c0,2.8,2.2,5,5,5
		s5-2.2,5-5C-223.5,1357.5-225.7,1355.3-228.5,1355.3z M-210.6,1356.7L-210.6,1356.7L-210.6,1356.7l0,0.5c0.1,0,0.2,0,0.2,0
		c0.1,0,0.2,0,0.4,0l0-0.5l0,0l0,0l0,0l0.1,0l0,0l0,0l0.1,0l0,0l0,0l0.1,0l0,0l0,0l0.1,0l0,0l0,0l0.1,0l0,0l0,0l0.1,0l0,0l0,0l0.1,0
		l0,0l0,0l0.1,0l0,0l0,0l0.1,0l0,0l0,0l0.1,0l0,0l0,0l0.1,0l0,0l0,0l0.1,0h0h0l0.1,0l-0.2,0.5c0.2,0.1,0.4,0.2,0.5,0.3l0.3-0.5l0,0
		h0h0l0.2,0.1h0h0l0.1,0.1h0h0l0.1,0.1h0h0l0.1,0.1h0l0,0l0.1,0.1l0,0l0,0l0.1,0.1l0,0l0,0l0,0.1l-0.4,0.3c0.1,0.2,0.2,0.3,0.3,0.5
		l0.5-0.3l0,0l0,0l0,0l0.1,0.2l0,0l0,0l0.1,0.2l0,0h0l0,0.1h0h0l0,0.1h0h0l0,0.1h0h0l0,0.1h0h0l0,0.1h0h0l0,0.1h0h0l0,0.1h0h0l0,0.1
		h0h0l0,0.1l-0.5,0.1c0,0.2,0.1,0.4,0.1,0.6l0.5,0l0,0h0l0,0l0,0.1h-0.3h0.3l0,0.1l0,0h0l0,0.1h0h0l0,0.1h0h0l0,0.1h0h0l0,0.1h0h0
		l0,0.1h0h0l0,0.1h0h0l0,0.1h0h0l0,0.1h0h0l0,0.1h0h0l0,0.1h0h0l0,0.1h0h0l0,0.1l-0.5-0.2c-0.1,0.2-0.1,0.4-0.2,0.5l0.5,0.2l0,0.1
		l0,0l0,0l-0.1,0.2l0,0l0,0l-0.1,0.2l0,0l0,0l-0.1,0.2l0,0l0,0l-0.1,0.1l0,0l0,0l-0.1,0.1l0,0l0,0l-0.1,0.1l0,0h0l0,0l-0.4-0.4
		c-0.1,0.1-0.3,0.3-0.5,0.4l0.3,0.4l0,0h0h0l-0.2,0.1h0h0l-0.2,0.1h0h0l-0.2,0.1h0h0l-0.2,0.1h0h0l-0.1,0h0h0l-0.1,0h0h0l-0.1,0h0h0
		l-0.1,0l0,0l0,0l-0.1,0l-0.2-0.5c-0.2,0.1-0.4,0.1-0.6,0.1l0.1,0.5l-0.1,0l0,0l0,0l-0.1,0l0,0l0,0l-0.1,0l0,0h0h-0.1l0,0h0l-0.1,0
		l0,0l0,0l-0.1,0h0l0,0h-0.1h0l0,0l-0.1,0l0,0l0,0l-0.1,0l0,0l0,0l-0.1,0l0,0l0,0l-0.1,0l0,0l0,0l-0.1,0l0,0l0,0l-0.1,0l0.1-0.5
		c-0.2,0-0.4-0.1-0.6-0.2l-0.2,0.5l-0.1,0h0h0l-0.1,0h0h0l-0.2-0.1h0h0l-0.2-0.1h0h0l-0.2-0.1h0h0l-0.2-0.1h0h0l-0.2-0.1h0h0
		l-0.1-0.1l0.3-0.4c-0.2-0.1-0.3-0.3-0.4-0.4l-0.4,0.4l-0.1-0.1l0,0l0,0l-0.1-0.1l0,0l0,0l-0.1-0.2l0,0l0,0l-0.1-0.2l0,0l0,0
		l-0.1-0.2l0,0l0,0l-0.1-0.2l0,0l0,0l-0.1-0.1l0.5-0.2c-0.1-0.2-0.1-0.4-0.2-0.6l-0.5,0.1l0,0h0h0l0-0.1h0h0l0-0.1h0h0l0-0.1h0h0
		l0-0.1h0h0l0-0.1h0h0l0-0.1h0h0l0-0.1h0l0,0l0-0.1h0h0l0-0.1h0l0,0l0-0.1h0h0l0-0.1l0,0h0l0-0.1h0h0l0-0.1l0.5,0
		c0-0.2,0-0.4,0.1-0.6l-0.5-0.1l0,0h0h0l0-0.1h0h0l0-0.1h0h0l0-0.1h0h0l0-0.1h0h0l0-0.1h0h0l0-0.1h0h0l0-0.1l0,0h0l0.1-0.2l0,0l0,0
		l0.1-0.2l0,0l0,0l0.1-0.2l0,0l0,0l0,0l0.4,0.3l0.1,0c0.1-0.2,0.2-0.3,0.4-0.5l-0.4-0.4l0.1-0.1l0,0l0,0l0.1-0.1l0,0h0l0.1-0.1h0h0
		l0.1-0.1h0h0l0.1-0.1h0h0l0.2-0.1h0h0l0.2-0.1h0h0h0l0.3,0.4l0,0c0.2-0.1,0.3-0.2,0.5-0.3l-0.2-0.5l0,0l0,0l0,0l0.1,0l0,0l0,0
		l0.1,0l0,0l0,0l0.1,0l0,0l0,0l0.1,0l0,0l0,0l0.1,0l0,0l0,0l0.1,0l0,0l0,0l0.1,0l0,0l0,0l0.1,0l0,0l0,0l0.1,0l0,0l0,0l0.1,0l0,0l0,0
		l0.1,0l0,0l0,0L-210.6,1356.7L-210.6,1356.7L-210.6,1356.7L-210.6,1356.7L-210.6,1356.7L-210.6,1356.7z M-210.3,1359.1
		c-1,0-1.9,0.8-1.9,1.9s0.8,1.9,1.9,1.9s1.9-0.8,1.9-1.9C-208.5,1359.9-209.3,1359.1-210.3,1359.1z"/>
</g>
</svg>
