<?xml version="1.0" encoding="utf-8"?>
<!-- Generator: Adobe Illustrator 19.0.1, SVG Export Plug-In . SVG Version: 6.00 Build 0)  -->
<svg version="1.1" id="Layer_1" xmlns="http://www.w3.org/2000/svg" xmlns:xlink="http://www.w3.org/1999/xlink" x="0px" y="0px"
	 viewBox="-246.1 353.7 62.2 84.3" style="enable-background:new -246.1 353.7 62.2 84.3;" xml:space="preserve">
<style type="text/css">
	.st0{fill:#7FB34B;}
</style>
<g>
	<path class="st0" d="M-189.8,375.2c-4.4-9.2-17.9-9.6-23.4-1.1c-6-8.4-19-8.1-23.4,1.1c-3.4,7.2,3.4,25.4,8.2,30.9
		c4.8,5.4,12,1.3,15.2,1.3s10.4,4.1,15.2-1.3C-193.2,400.7-186.3,382.4-189.8,375.2z"/>
	<path class="st0" d="M-213,366.9c2-10.6,9.8-13.5,17.1-13.2C-198.4,362.6-204.5,365.6-213,366.9z"/>
	<path class="st0" d="M-214.4,373.9c0.2-3.8,0.3-7.6-0.2-9.7c-0.5-2.5-2.2-4.4-2.8-5.1c-1.1-1.1-0.2-2,0.6-2.2
		c1.2-0.3,1.8,0.6,2.4,1.3c0.6,0.8,1.5,2.9,1.8,5.2c0.4,2.8,0.2,7.7,0,10.2C-213,378.3-214.4,373.9-214.4,373.9z"/>
	<g>
		<g>
			<path class="st0" d="M-183.9,438h-50.2c-6.6,0-12-5.4-12-12s5.4-12,12-12h50.2v4.7h-50.2c-4,0-7.3,3.3-7.3,7.3s3.3,7.3,7.3,7.3
				h50.2V438z"/>
		</g>
		<path class="st0" d="M-185,420.7h-50.3c-1.4,0.3-2.5,1.1-3.3,2.3h53.6V420.7z"/>
		<path class="st0" d="M-185,424.8h-54.3c-0.1,0.4-0.1,0.7-0.1,1.1c0,0.4,0,0.8,0.1,1.1h54.3V424.8z"/>
		<path class="st0" d="M-185,428.9h-53.6c0.7,1.1,1.9,2,3.3,2.3h50.3V428.9z"/>
	</g>
</g>
</svg>
