<?xml version="1.0" encoding="utf-8"?>
<!-- Generator: Adobe Illustrator 19.0.1, SVG Export Plug-In . SVG Version: 6.00 Build 0)  -->
<svg version="1.1" id="Layer_1" xmlns="http://www.w3.org/2000/svg" xmlns:xlink="http://www.w3.org/1999/xlink" x="0px" y="0px"
	 viewBox="0 0 277.7 217.1" style="enable-background:new 0 0 277.7 217.1;" xml:space="preserve">
<style type="text/css">
	.st0{clip-path:url(#SVGID_2_);fill:#6699CB;}
</style>
<g>
	<defs>
		<rect id="SVGID_1_" y="0.9" width="276.9" height="216.2"/>
	</defs>
	<clipPath id="SVGID_2_">
		<use xlink:href="#SVGID_1_"  style="overflow:visible;"/>
	</clipPath>
	<path class="st0" d="M257.2,66.2c-1.1-8.4-1.3-22.9,6.5-27.8c0.1-0.1,0.2-0.2,0.4-0.3c6.4-2,10.8-4.9,7.3-8.8L177.1,0.9L24.4,22.2
		c0,0-17.5,2.5-15.9,29.7c0.8,14.8,5.5,22,9.5,25.6L5.5,81.2C2,85.1,6.5,87.9,12.9,90c0.1,0.1,0.2,0.2,0.4,0.3
		c7.8,4.9,7.7,19.4,6.5,27.8c-28.1,8-18,10.6-18,10.6l6.2,1.5c-4.3,3.9-8.6,11.3-7.8,25.4c1.6,27.2,15.9,29,15.9,29l99.9,32.5
		l150.8-36.5c0,0,10.1-2.6-18-10.6c-1.1-8.4-1.3-22.9,6.5-27.8c0.1-0.1,0.2-0.2,0.4-0.3c6.4-2,10.8-4.9,7.3-8.8l-6.6-2
		c4.4-2.6,10.9-9.5,12-27.4c0.7-12.3-2.5-19.5-6.2-23.8l13-3.1C275.2,76.8,285.2,74.2,257.2,66.2 M131,65.9l25.4-5.2l85.7-17.6
		l12.8-2.6c-4.1,7.5-3.9,17.7-3.2,24.3c0.1,1.5,0.3,2.8,0.5,3.9l-14,3.5L130,99L131,65.9z M22.1,92.3l12.8,2.6l82.3,16.9l7.2,1.5
		l21.6,4.4l1.1,33.1L35.8,123.2l-11-2.7c0.2-1,0.3-2.4,0.5-3.9C26,110,26.2,99.8,22.1,92.3 M17.1,50.5c-0.2-7.2,1.1-12.5,3.7-15.1
		c1.7-1.7,3.6-2,5-2c0.7,0,1.2,0.1,1.3,0.1l65.8,21.4l32.8,10.7l-1.1,33.3L32.5,73.1l-4.9-1.4c-0.2-0.1-0.4-0.1-0.6-0.1
		C26.7,71.6,17.6,70.8,17.1,50.5 M116.2,202.7l-96.9-27.2c-0.2-0.1-0.4-0.1-0.6-0.1c-0.4,0-9.5-0.9-9.9-21.1
		c-0.2-7.2,1.1-12.5,3.7-15.1c1.7-1.7,3.6-2,5-2c0.7,0,1.2,0.1,1.3,0.1c0,0,0,0,0,0l98.6,32.2L116.2,202.7z M243.2,168.5
		c0.2,1.5,0.3,2.8,0.5,3.9l-122.2,30.4l1.1-33.1l26.1-5.4l3.9,0.9l14.5-4.7l66.6-13.7l12.8-2.6C242.4,151.7,242.5,161.9,243.2,168.5
		 M249.9,123.5c-0.2,0-0.4,0-0.7,0.1l-9.2,2.6l-87.7,24.6l-1.1-33.3l28.8-9.4l69.7-22.7c0,0,3.7-0.8,6.4,1.9
		c2.6,2.7,3.9,7.9,3.7,15.1C259.4,122.6,250.3,123.5,249.9,123.5"/>
</g>
</svg>
