<?xml version="1.0" encoding="utf-8"?>
<!-- Generator: Adobe Illustrator 19.0.1, SVG Export Plug-In . SVG Version: 6.00 Build 0)  -->
<svg version="1.1" id="Layer_1" xmlns="http://www.w3.org/2000/svg" xmlns:xlink="http://www.w3.org/1999/xlink" x="0px" y="0px"
	 viewBox="0 0 155.2 155.2" style="enable-background:new 0 0 155.2 155.2;" xml:space="preserve">
<style type="text/css">
	.st0{clip-path:url(#SVGID_2_);fill:#c46728;}
	.st1{clip-path:url(#SVGID_4_);fill:#c46728;}
</style>
<g>
	<defs>
		<rect id="SVGID_1_" x="0" width="155.2" height="155.2"/>
	</defs>
	<clipPath id="SVGID_2_">
		<use xlink:href="#SVGID_1_"  style="overflow:visible;"/>
	</clipPath>
	<path class="st0" d="M77.6,0C34.8,0,0,34.8,0,77.6c0,42.9,34.8,77.6,77.6,77.6c42.9,0,77.6-34.8,77.6-77.6
		C155.2,34.8,120.5,0,77.6,0 M128.9,117.2l-7-5.8c-0.3-0.2-0.7-0.2-1,0.1c-0.2,0.3-0.2,0.7,0.1,0.9l7.1,5.8c-2.8,3.5-6,6.7-9.5,9.6
		l-5.7-7.3c-0.2-0.3-0.7-0.3-0.9-0.1c-0.3,0.2-0.3,0.7-0.1,1l5.7,7.3c-3.3,2.6-6.8,4.8-10.6,6.8l-4.3-8.1c-0.2-0.3-0.6-0.5-0.9-0.3
		c-0.3,0.2-0.5,0.6-0.3,0.9l4.3,8.1c-4.1,2-8.4,3.6-13,4.7L91,131c-0.1-0.4-0.4-0.6-0.8-0.6c-0.4,0.1-0.6,0.4-0.5,0.8l1.7,9.7
		c-3.4,0.8-6.9,1.3-10.5,1.5v-11.6c0-1.8-1.5-3.3-3.3-3.3c-1.8,0-3.3,1.5-3.3,3.3v11.6c-3-0.1-5.9-0.6-8.8-1.1l1.5-8.2
		c0.1-0.4-0.2-0.7-0.5-0.8c-0.4-0.1-0.7,0.2-0.8,0.5l-1.5,8.1c-4.4-0.9-8.7-2.3-12.7-4.1l3.8-7.1c0.2-0.3,0-0.7-0.3-0.9
		c-0.3-0.2-0.7,0-0.9,0.3l-3.8,7.2c-3.8-1.8-7.3-3.9-10.7-6.3l5.3-6.8c0.2-0.3,0.2-0.7-0.1-1c-0.3-0.2-0.7-0.2-1,0.1l-5.3,6.8
		c-3.6-2.7-6.8-5.8-9.8-9.1l7-5.7c0.3-0.2,0.3-0.7,0.1-1c-0.2-0.3-0.7-0.3-1-0.1l-7,5.8c-2.8-3.4-5.3-7.2-7.4-11.1l8.2-4.3
		c0.3-0.2,0.5-0.6,0.3-0.9c-0.2-0.3-0.6-0.5-0.9-0.3l-8.2,4.3c-2.2-4.3-3.9-8.9-5.1-13.7l9.5-1.8c0.4-0.1,0.6-0.4,0.5-0.8
		c-0.1-0.4-0.4-0.6-0.8-0.5l-9.5,1.8c-0.8-3.5-1.3-7.1-1.5-10.8h11.1c1.8,0,3.3-1.5,3.3-3.3c0-1.8-1.5-3.3-3.3-3.3H12.9
		c0.2-3.6,0.7-7,1.4-10.4c0,0,0.1,0.1,0.1,0.1L25,66c0,0,0.1,0,0.1,0c0.3,0,0.6-0.2,0.7-0.6c0.1-0.4-0.2-0.7-0.5-0.8l-10.6-2
		c0,0-0.1,0-0.1,0c1.2-5,2.9-9.7,5.2-14.1l9.3,4.9c0.1,0.1,0.2,0.1,0.3,0.1c0.2,0,0.5-0.1,0.6-0.4c0.2-0.3,0.1-0.7-0.3-0.9l-9.3-4.9
		c2.1-4,4.6-7.8,7.6-11.3l8,6.6c0.1,0.1,0.3,0.1,0.4,0.1c0.2,0,0.4-0.1,0.5-0.2c0.2-0.3,0.2-0.7-0.1-0.9L28.8,35
		c3-3.4,6.4-6.5,10-9.3l6.1,7.7c0.1,0.2,0.3,0.3,0.5,0.3c0.1,0,0.3-0.1,0.4-0.1c0.3-0.2,0.3-0.7,0.1-0.9l-6-7.7
		c3.4-2.5,7.1-4.6,10.9-6.4l4.3,8.1c0.1,0.2,0.4,0.4,0.6,0.4c0.1,0,0.2,0,0.3-0.1c0.3-0.2,0.5-0.6,0.3-0.9l-4.2-8
		c4.1-1.8,8.5-3.1,13.1-4l1.6,9c0.1,0.3,0.3,0.6,0.7,0.6c0,0,0.1,0,0.1,0c0.4-0.1,0.6-0.4,0.5-0.8l-1.6-9c2.6-0.4,5.2-0.8,7.9-0.9
		c0,0.1,0,0.1,0,0.1v12.1c0,1.8,1.5,3.3,3.3,3.3c1.8,0,3.3-1.5,3.3-3.3V13c0,0,0-0.1,0-0.1c3.6,0.2,7.2,0.7,10.6,1.5l-1.8,10.3
		c-0.1,0.4,0.2,0.7,0.5,0.8c0,0,0.1,0,0.1,0c0.3,0,0.6-0.2,0.7-0.6l1.8-10.3c4.6,1.1,9,2.7,13.1,4.8l-4.5,8.5
		c-0.2,0.3-0.1,0.7,0.3,0.9c0.1,0.1,0.2,0.1,0.3,0.1c0.2,0,0.5-0.1,0.6-0.4l4.5-8.5c3.8,1.9,7.3,4.2,10.6,6.8l-6,7.6
		c-0.2,0.3-0.2,0.7,0.1,0.9c0.1,0.1,0.3,0.1,0.4,0.1c0.2,0,0.4-0.1,0.5-0.3l6-7.7c3.5,2.9,6.6,6.1,9.5,9.7l-7.3,6
		c-0.3,0.2-0.3,0.7-0.1,0.9c0.1,0.2,0.3,0.2,0.5,0.2c0.2,0,0.3,0,0.4-0.2l7.3-6c2.7,3.5,5,7.4,7,11.4l-8.1,4.2
		c-0.3,0.2-0.5,0.6-0.3,0.9c0.1,0.2,0.4,0.4,0.6,0.4c0.1,0,0.2,0,0.3-0.1l8-4.2c2,4.4,3.4,9,4.4,13.8l-8.6,1.6
		c-0.4,0.1-0.6,0.4-0.5,0.8c0.1,0.3,0.3,0.6,0.7,0.6c0.1,0,0.1,0,0.1,0l8.6-1.6c0.5,2.7,0.9,5.4,1,8.2h-11.1c-1.8,0-3.3,1.5-3.3,3.3
		c0,1.8,1.5,3.3,3.3,3.3h11.1c-0.1,3-0.6,5.9-1.1,8.7l-8.5-1.6c-0.4-0.1-0.7,0.2-0.8,0.5c-0.1,0.4,0.2,0.7,0.5,0.8l8.5,1.6
		c-1,4.8-2.5,9.4-4.5,13.7l-7.8-4.1c-0.3-0.2-0.7-0.1-0.9,0.3c-0.2,0.3,0,0.7,0.3,0.9l7.9,4.1C134,109.9,131.6,113.7,128.9,117.2"/>
</g>
<g>
	<defs>
		<rect id="SVGID_3_" x="-47.8" y="-6" width="250.8" height="169.1"/>
	</defs>
	<clipPath id="SVGID_4_">
		<use xlink:href="#SVGID_3_"  style="overflow:visible;"/>
	</clipPath>
	<path class="st1" d="M74.7,123.5c0.3,1.8,4.9,4.6,6-0.3l-0.2-40.5c0.1,0-0.2,0.1,0,0c0.3-0.1,0.5-0.2,1.1-0.2l29.9,20.3
		c1.5,1,3.6,0.6,4.6-0.9c1-1.5,0.6-3.6-0.9-4.6L84.7,76.6c0-0.3,0.1-0.5,0-0.8c-0.4-2-1.6-3.5-3.3-4.4L97,24.7L94.9,24L79.4,70.7
		c-0.7-0.1-1.4-0.1-2.2,0c-2.3,0.4-4.2,1.8-5,3.8c0,0-1.7,4.6,2.3,7.1L74.7,123.5z"/>
</g>
</svg>
