<?xml version="1.0" encoding="utf-8"?>
<!-- Generator: Adobe Illustrator 19.0.1, SVG Export Plug-In . SVG Version: 6.00 Build 0)  -->
<svg version="1.1" id="Layer_1" xmlns="http://www.w3.org/2000/svg" xmlns:xlink="http://www.w3.org/1999/xlink" x="0px" y="0px"
	 viewBox="0 0 100 101.4" style="enable-background:new 0 0 100 101.4;" xml:space="preserve">
<style type="text/css">
	.st0{fill:#FFFFFF;}
	.st1{fill:#3D5DA9;}
</style>
<path class="st0" d="M99.7,51.2c0,27.1-22,49.1-49.1,49.1S1.5,78.4,1.5,51.2c0-27.1,22-49.1,49.1-49.1S99.7,24.1,99.7,51.2"/>
<path class="st1" d="M50,101.4c-27.6,0-50-22.6-50-50.7C0,22.8,22.4,0,50,0c27.6,0,50,22.8,50,50.7C100,78.8,77.6,101.4,50,101.4
	 M50,2.4C23.7,2.4,2.4,24,2.4,50.7C2.4,77.4,23.7,99,50,99s47.6-21.6,47.6-48.3C97.6,24.2,76.3,2.4,50,2.4 M92.4,65.2
	c0,0-0.1,0.1-0.3,0C92,65.2,92,65.1,92,65c0-0.1,1.7-5.1,1.7-10.8c0-6.2-2.5-10-5.7-10c-1.9,0-3.3,1.4-3.3,3.5
	c0,3.8,4.6,4.1,4.6,12.4c0,3.4-0.7,6.6-1.8,10.1C82.3,87.8,65.9,95.9,50,95.9c-7.3,0-12.6-1.5-14.1-2.2c-0.1,0-0.1-0.2-0.1-0.3
	c0-0.1,0.1-0.2,0.2-0.1c0.6,0.3,5.1,1.7,10.6,1.7c6.1,0,9.7-2.5,9.7-5.6c0-2-1.5-3.5-3.5-3.5c-3.7,0-4,4.8-12.1,4.8
	c-3.5,0-6.5-0.7-10.1-1.8C13.6,83.4,5.4,67,5.4,50.7c0-7.9,2.2-14.3,2.2-14.3c0,0,0.1-0.1,0.2,0C8,36.4,8,36.5,8,36.5
	c-0.2,0.7-1.7,5.2-1.7,10.8c0,6.2,2.5,9.8,5.7,9.8c1.8,0,3.3-1.4,3.3-3.4c0-3.8-4.6-4.2-4.6-12.4c0-3.5,0.7-6.6,1.8-10.3
	C17.9,13.8,34.1,5.6,50,5.5c7.4-0.1,13.9,2.2,14.1,2.4c0,0,0.1,0.1,0,0.3C64.1,8.2,64,8.3,64,8.3c-0.1,0-4.3-1.8-10.7-1.8
	c-6,0-9.7,2.5-9.7,5.8c0,1.8,1.4,3.4,3.5,3.4c3.7,0,4-4.6,12.1-4.6c3.5,0,6.5,0.7,10.1,1.8c17.3,5.3,25.2,21.9,25.3,37.9
	C94.7,58.9,92.4,65.1,92.4,65.2 M68.6,53.1c-4.7,0-8.3,3.5-8.3,7.7c0,3.5,2.1,6.3,4.8,6.3c1,0,1.9-0.6,1.9-1.8c0-1.8-2.4-2.3-2.2-5
	c0.1-1.8,1.8-3,3.5-3c3.3,0,4.9,3.3,4.9,6.6c-0.1,5.2-3.9,8.8-8.3,8.8c-5.8,0-9.6-5.6-9.6-11.7c0-9,5.8-12.5,8.9-13.3
	c0,0,8,1.4,7.7-2.1c-0.1-1.6-2.4-2.2-4.1-2.2C66,43.3,64.1,44,64.1,44c-1-0.5-1.6-1.5-2-2.6c5.7-4.4,9.7-8.6,9.7-13.3
	c0-2.5-1.7-4.8-4.8-4.8c-5.7,0-10,7.3-10,13.9c0,1.1,0,2.2,0.3,3.2c-3.6,2.7-6.3,4.3-11.1,7.3c0-0.6,0.1-2.2,0.5-4.3
	c1.7-1.8,3.9-4.6,3.9-6.7c0-1-0.5-1.8-1.7-1.8c-2.8,0-4.8,4.2-5.4,7.2c-1.3,1.5-3.7,3.5-5.8,3.5c-1.7,0-2.2-1.5-2.4-2.1
	c5.3-1.8,11.8-9.1,11.8-15.7c0-1.4-0.5-4.5-4.7-4.5c-6.2,0-11.5,9.4-11.5,16.7c-2.2,0-3-2.4-3-4.2c0-1.8,0.7-3.7,0.7-4.2
	c0-0.6-0.3-1.3-1.1-1.3c-2.1,0-3.3,2.8-3.3,6c0.1,4.5,3,7.3,6.9,7.6c0.6,2.7,2.9,5.2,5.8,5.2c1.8,0,4-0.6,5.5-2
	c-0.1,1-0.3,1.8-0.4,2.7c-6.1,3.2-10.5,5.5-14.5,9.1c-3.2,3-5,6.9-5,10c0,4.2,2.6,8.1,8,8.1c6.4,0,11.2-5.2,13.6-12.4
	c1.1-3.4,1.5-8.3,1.8-12.8c6.4-3.7,9.4-5.8,12.7-8.2c0.4,0.7,0.8,1.3,1.4,1.7c-2.9,1.6-9.8,5.9-9.8,16.2c0,7.3,4.8,15.4,14.4,15.4
	c7.9,0,13.3-6.6,13.3-12.9C77.8,58.4,74.7,53.1,68.6,53.1 M30.5,72.8c-2.1,0.1-3.5-1.3-3.5-3.5c0-6,8.3-11.8,14.5-14.9
	C40.4,62.8,37.6,72.4,30.5,72.8 M35,39.6c0-4.6,4.5-13.5,7.3-12.5C45.6,28.2,39.6,37.1,35,39.6 M61.2,37.5c0-5.8,3.8-11.4,5.9-10.3
	C69.6,28.4,65.4,33.8,61.2,37.5"/>
</svg>
