<?xml version="1.0" encoding="utf-8"?>
<!-- Generator: Adobe Illustrator 19.0.1, SVG Export Plug-In . SVG Version: 6.00 Build 0)  -->
<svg version="1.1" id="Layer_1" xmlns="http://www.w3.org/2000/svg" xmlns:xlink="http://www.w3.org/1999/xlink" x="0px" y="0px"
	 viewBox="0 0 224 138.8" style="enable-background:new 0 0 224 138.8;" xml:space="preserve">
<style type="text/css">
	.st0{fill:#F79739;}
</style>
<path class="st0" d="M170.1,89.8c-1.8,0-2.9,1.5-2.9,4c0,2.5,1.1,4.1,2.9,4.1c1.8,0,2.9-1.6,2.9-4.1C173,91.3,171.9,89.8,170.1,89.8
	"/>
<path class="st0" d="M161.6,109.9h-2.8v6.5h2.8c2.7,0,4.2-1.2,4.2-3.4C165.9,110.7,164.4,109.9,161.6,109.9"/>
<path class="st0" d="M127.5,138.8h87.8c4.9,0,8.8-3.9,8.8-8.8V86.1c0-4.9-3.9-8.8-8.8-8.8h-8.9L204,75l-27.1-27.1
	c0.2-0.6,0.3-1.2,0.3-1.8c0-3.2-2.6-5.8-5.8-5.8c-3.2,0-5.8,2.6-5.8,5.8c0,0.6,0.1,1.2,0.3,1.8L138.7,75l-2.3,2.3h-8.9
	c-4.9,0-8.8,3.9-8.8,8.8V130C118.6,134.8,122.6,138.8,127.5,138.8 M150.2,127h-3.5v-19.9h3.5V127z M154.7,88.3h2l3.5,6.3l1.1,2.4
	h0.1c-0.1-1.1-0.3-2.6-0.3-3.8v-4.8h1.9v11.1h-2l-3.5-6.3l-1.1-2.4h-0.1c0.1,1.2,0.3,2.5,0.3,3.8v4.9h-1.9V88.3z M166.2,127
	l-4.3-7.8h-3v7.8h-3.5v-19.9h6.7c4.1,0,7.3,1.5,7.3,5.9c0,3-1.6,4.9-4,5.7l4.8,8.3H166.2z M165.2,93.8c0-3.6,2-5.7,4.9-5.7
	c2.9,0,4.9,2.1,4.9,5.7c0,3.6-2,5.8-4.9,5.8C167.3,99.6,165.2,97.4,165.2,93.8 M177.1,127h-3.5v-19.9h3.5V127z M180.7,99.4h-2.4
	l-2.2-11.1h2l1,5.6c0.2,1.2,0.4,2.4,0.5,3.6h0.1c0.2-1.2,0.5-2.4,0.7-3.6l1.4-5.6h1.7l1.4,5.6c0.3,1.2,0.5,2.4,0.8,3.6h0.1
	c0.2-1.2,0.4-2.4,0.5-3.6l1-5.6h1.9L187,99.4h-2.4l-1.4-5.9c-0.2-0.9-0.4-1.7-0.5-2.6h-0.1c-0.2,0.9-0.3,1.7-0.5,2.6L180.7,99.4z
	 M197,127h-3.6l-6.2-11.2l-2-4.2H185c0.2,2.1,0.5,4.5,0.5,6.7v8.7h-3.4v-19.9h3.6l6.2,11.2l2,4.2h0.1c-0.2-2-0.5-4.6-0.5-6.8v-8.7
	h3.4V127z M216.5,109.3l-1.9,2.2c-1-1-2.1-1.6-4-1.6c-3.5,0-5.9,2.7-5.9,7.2c0,4.5,2.1,7.3,6.1,7.3c1.1,0,2.2-0.3,2.9-0.9v-4.3h-3.8
	v-2.9h6.9v8.8c-1.4,1.3-3.7,2.4-6.5,2.4c-5.3,0-9.3-3.7-9.3-10.3c0-6.5,4.1-10.4,9.5-10.4C213.3,106.7,215.3,108,216.5,109.3
	 M167.7,50.6c1,0.8,2.3,1.3,3.7,1.3c1.4,0,2.7-0.5,3.6-1.3l26.7,26.7H141L167.7,50.6z M126.5,107.1h3.5v8h8.1v-8h3.5V127h-3.5v-8.8
	H130v8.8h-3.5V107.1z"/>
<path class="st0" d="M75.4,63.8c-1.6,0-2.9,1.3-2.9,2.9c0,1.6,1.3,2.9,2.9,2.9H83l-1.4,1.4c-1.1,1.1-1.1,3,0,4.1
	c0.6,0.6,1.3,0.9,2.1,0.9c0.7,0,1.5-0.3,2.1-0.9l5.5-5.5h27.1c1.6,0,2.9-1.3,2.9-2.9c0-1.6-1.3-2.9-2.9-2.9H97.1l7.8-7.8h13.4
	c1.6,0,2.9-1.3,2.9-2.9c0-1.6-1.3-2.9-2.9-2.9h-7.6l5.3-5.3c1.1-1.1,1.1-3,0-4.1c-1.1-1.1-3-1.1-4.1,0l-9.4,9.4H75.4
	c-1.6,0-2.9,1.3-2.9,2.9c0,1.6,1.3,2.9,2.9,2.9h21.2l-7.8,7.8H75.4z"/>
<path class="st0" d="M81.7,28.4L76,24.9c3.4-3.3,2-7.7,2-7.7C75.3,8.5,69.8,2.9,61.1,0.2l-0.2-0.1c-2.7-0.6-5.8,0.3-7.8,2.3
	c-0.1,0.2-0.3,0.3-0.4,0.5L52.6,3c-5.3,6.6-10.9,13.1-16.8,19.3c-3.1-5.6-4.6-10.4-4.4-14.1c0-0.6-0.3-1.2-0.9-1.4
	c-0.6-0.2-1.2,0-1.6,0.5l-3.2,4.2l-4.5-4.7c-0.4-0.4-1-0.5-1.5-0.3c-0.2,0.1-0.4,0.2-0.5,0.3c-0.2,0.2-0.4,0.6-0.4,0.9
	c-0.2,4.2,0.7,8.8,2.7,13.7c-5-2-9.6-2.9-13.7-2.7c-0.4,0-0.7,0.2-0.9,0.4c-0.1,0.1-0.2,0.3-0.3,0.5c-0.2,0.5-0.1,1.1,0.3,1.5
	l4.7,4.5l-4.2,3.2c-0.5,0.4-0.7,1-0.5,1.6c0.2,0.6,0.8,1,1.4,0.9c3.7-0.2,8.5,1.4,14.1,4.4C16.1,41.7,9.7,47.3,3,52.6l-0.1,0
	c-0.2,0.1-0.3,0.3-0.5,0.4c-2,2-2.9,5.1-2.3,7.8l0.1,0.2C2.9,69.8,8.5,75.3,17.2,78l0.2,0.1c2.5,0.7,5.5-0.2,7.5-2l3.5,5.7
	c0.6,0.9,1.7,1.4,2.8,1.3c1.1-0.2,2-1,2.2-2.1c0-0.2,3.7-14.8,10.3-25.5l11.7-11.7c10.7-6.6,25.3-10.3,25.5-10.3
	c1.1-0.3,1.9-1.2,2.1-2.2C83.2,30.1,82.7,29,81.7,28.4 M28.6,71.6c1.1-1.3,2.2-2.6,3.2-3.9c-0.8,2.1-1.5,4.1-2,5.8L28.6,71.6z
	 M39.4,51.1c-5.5,5.8-10.8,11.8-15.9,18l-0.8,1c-0.4,0.5-0.9,1.1-1.3,1.6c-0.8,1-1.9,1.2-2.7,0.9c-6.9-2.2-11-6.2-13.1-13.1
	c-0.3-0.9,0.2-1.9,0.8-2.6l0.1-0.1c7.1-5.7,14-11.7,20.7-18L39.4,51.1z M71.9,21.3l-0.1,0.1c-0.5,0.4-1.1,0.9-1.6,1.3l-1,0.8
	c-6.2,5.1-12.2,10.4-18,15.9L38.9,27.1c6.3-6.6,12.3-13.5,18-20.7L57,6.4c0.6-0.6,1.7-1,2.6-0.8c6.9,2.2,11,6.2,13.1,13.1
	C72.9,19.5,72.5,20.6,71.9,21.3 M73.6,29.8c-1.7,0.5-3.7,1.2-5.8,2c1.3-1.1,2.6-2.2,3.9-3.2L73.6,29.8z"/>
</svg>
