<?xml version="1.0" encoding="utf-8"?>
<!-- Generator: Adobe Illustrator 19.0.1, SVG Export Plug-In . SVG Version: 6.00 Build 0)  -->
<svg version="1.1" id="Layer_1" xmlns="http://www.w3.org/2000/svg" xmlns:xlink="http://www.w3.org/1999/xlink" x="0px" y="0px"
	 viewBox="0 0 190.2 169.8" style="enable-background:new 0 0 190.2 169.8;" xml:space="preserve">
<style type="text/css">
	.st0{fill:#6699CB;}
</style>
<path class="st0" d="M145.1,115.1c3.5,0,6.4,2.9,6.4,6.4c0,3.5-2.9,6.4-6.4,6.4c-3.5,0-6.4-2.8-6.4-6.4
	C138.7,117.9,141.6,115.1,145.1,115.1"/>
<path class="st0" d="M174.3,115.1c3.5,0,6.4,2.9,6.4,6.4c0,3.5-2.8,6.4-6.4,6.4c-3.5,0-6.4-2.8-6.4-6.4
	C168,117.9,170.8,115.1,174.3,115.1"/>
<path class="st0" d="M112.7,115.1c3.5,0,6.4,2.9,6.4,6.4c0,3.5-2.8,6.4-6.4,6.4c-3.5,0-6.4-2.9-6.4-6.4
	C106.4,117.9,109.2,115.1,112.7,115.1"/>
<path class="st0" d="M78.2,115.1c3.5,0,6.4,2.9,6.4,6.4c0,3.5-2.9,6.4-6.4,6.4c-3.5,0-6.4-2.8-6.4-6.4
	C71.8,117.9,74.6,115.1,78.2,115.1"/>
<path class="st0" d="M44.8,114.5c3.5,0,6.4,2.8,6.4,6.4c0,3.5-2.9,6.4-6.4,6.4c-3.5,0-6.4-2.9-6.4-6.4
	C38.5,117.3,41.3,114.5,44.8,114.5"/>
<path class="st0" d="M11.6,114.5c3.5,0,6.4,2.8,6.4,6.4c0,3.5-2.9,6.4-6.4,6.4c-3.5,0-6.4-2.9-6.4-6.4
	C5.3,117.3,8.1,114.5,11.6,114.5"/>
<path class="st0" d="M27.9,107.2c3.3,0,6,2.7,6,6c0,3.3-2.7,6-6,6c-3.3,0-6-2.7-6-6C21.9,109.8,24.6,107.2,27.9,107.2"/>
<path class="st0" d="M61.6,106.4c3.3,0,6,2.7,6,6c0,3.3-2.7,6-6,6c-3.3,0-6-2.7-6-6C55.6,109,58.3,106.4,61.6,106.4"/>
<path class="st0" d="M95.6,106.4c3.3,0,6,2.7,6,6c0,3.3-2.7,6-6,6c-3.3,0-6-2.7-6-6C89.6,109,92.3,106.4,95.6,106.4"/>
<path class="st0" d="M128.7,106.4c3.3,0,6,2.7,6,6c0,3.3-2.7,6-6,6c-3.3,0-6-2.7-6-6C122.8,109,125.4,106.4,128.7,106.4"/>
<path class="st0" d="M160.4,105.2c3.3,0,6,2.7,6,6c0,3.3-2.7,6-6,6c-3.3,0-6-2.7-6-6C154.5,107.9,157.1,105.2,160.4,105.2"/>
<path class="st0" d="M145.1,98.6c3.1,0,5.6,2.5,5.6,5.6c0,3.1-2.5,5.6-5.6,5.6c-3.1,0-5.6-2.5-5.6-5.6
	C139.5,101.1,142,98.6,145.1,98.6"/>
<path class="st0" d="M176.4,98.6c3.1,0,5.6,2.5,5.6,5.6c0,3.1-2.5,5.6-5.6,5.6c-3.1,0-5.6-2.5-5.6-5.6
	C170.8,101.1,173.3,98.6,176.4,98.6"/>
<path class="st0" d="M111.8,98c3.1,0,5.6,2.5,5.6,5.6c0,3.1-2.5,5.6-5.6,5.6c-3.1,0-5.6-2.5-5.6-5.6C106.3,100.5,108.8,98,111.8,98"
	/>
<path class="st0" d="M78.2,98c3.1,0,5.6,2.5,5.6,5.6c0,3.1-2.5,5.6-5.6,5.6c-3.1,0-5.6-2.5-5.6-5.6C72.6,100.5,75.1,98,78.2,98"/>
<path class="st0" d="M44.8,97c3.1,0,5.6,2.5,5.6,5.6c0,3.1-2.5,5.6-5.6,5.6c-3.1,0-5.6-2.5-5.6-5.6C39.2,99.5,41.7,97,44.8,97"/>
<path class="st0" d="M12.4,95.8c3.1,0,5.6,2.5,5.6,5.6c0,3.1-2.5,5.6-5.6,5.6c-3.1,0-5.6-2.5-5.6-5.6C6.8,98.3,9.3,95.8,12.4,95.8"
	/>
<path class="st0" d="M27.9,88.6c2.8,0,5,2.2,5,5c0,2.8-2.2,5-5,5c-2.8,0-5-2.2-5-5C22.9,90.9,25.2,88.6,27.9,88.6"/>
<path class="st0" d="M13.1,82.5c2.2,0,4,1.8,4,4c0,2.2-1.8,4-4,4c-2.2,0-4-1.8-4-4C9,84.3,10.8,82.5,13.1,82.5"/>
<path class="st0" d="M27.9,76c1.8,0,3.2,1.5,3.2,3.2c0,1.8-1.5,3.3-3.2,3.3c-1.8,0-3.2-1.5-3.2-3.3C24.7,77.5,26.1,76,27.9,76"/>
<path class="st0" d="M14.2,72c1.4,0,2.5,1.1,2.5,2.5c0,1.4-1.1,2.5-2.5,2.5c-1.4,0-2.5-1.1-2.5-2.5C11.6,73.1,12.8,72,14.2,72"/>
<path class="st0" d="M45.3,71c1.4,0,2.5,1.1,2.5,2.5c0,1.4-1.1,2.5-2.5,2.5c-1.4,0-2.5-1.1-2.5-2.5C42.8,72.1,44,71,45.3,71"/>
<path class="st0" d="M78.4,71c1.4,0,2.5,1.1,2.5,2.5c0,1.4-1.1,2.5-2.5,2.5c-1.4,0-2.5-1.1-2.5-2.5C75.9,72.1,77,71,78.4,71"/>
<path class="st0" d="M112.7,71c1.4,0,2.5,1.1,2.5,2.5c0,1.4-1.1,2.5-2.5,2.5c-1.4,0-2.5-1.1-2.5-2.5C110.2,72.1,111.3,71,112.7,71"
	/>
<path class="st0" d="M145.3,71c1.4,0,2.5,1.1,2.5,2.5c0,1.4-1.1,2.5-2.5,2.5c-1.4,0-2.5-1.1-2.5-2.5C142.8,72.1,143.9,71,145.3,71"
	/>
<path class="st0" d="M176.4,72c1.4,0,2.5,1.1,2.5,2.5c0,1.4-1.1,2.5-2.5,2.5c-1.4,0-2.5-1.1-2.5-2.5C173.9,73.1,175,72,176.4,72"/>
<path class="st0" d="M62,76c1.8,0,3.2,1.5,3.2,3.2c0,1.8-1.5,3.3-3.2,3.3c-1.8,0-3.2-1.5-3.2-3.3C58.8,77.5,60.3,76,62,76"/>
<path class="st0" d="M95.6,76c1.8,0,3.2,1.5,3.2,3.2c0,1.8-1.5,3.3-3.2,3.3c-1.8,0-3.2-1.5-3.2-3.3C92.3,77.5,93.8,76,95.6,76"/>
<path class="st0" d="M129.2,76c1.8,0,3.2,1.5,3.2,3.2c0,1.8-1.5,3.3-3.2,3.3c-1.8,0-3.2-1.5-3.2-3.3C126,77.5,127.4,76,129.2,76"/>
<path class="st0" d="M161.7,76c1.8,0,3.2,1.4,3.2,3.2s-1.5,3.2-3.2,3.2c-1.8,0-3.2-1.4-3.2-3.2S159.9,76,161.7,76"/>
<path class="st0" d="M30.5,64.7c1.4,0,2.5,1.1,2.5,2.5c0,1.4-1.1,2.5-2.5,2.5c-1.4,0-2.5-1.1-2.5-2.5C28,65.9,29.1,64.7,30.5,64.7"
	/>
<path class="st0" d="M14.2,62c1.1,0,2,0.9,2,2s-0.9,1.9-2,1.9c-1.1,0-2-0.9-2-1.9S13.1,62,14.2,62"/>
<path class="st0" d="M45.6,62c1.1,0,2,0.9,2,2c0,1.1-0.9,2-2,2c-1.1,0-2-0.9-2-2C43.6,62.9,44.5,62,45.6,62"/>
<path class="st0" d="M78.4,62c1.1,0,2,0.9,2,2c0,1.1-0.9,2-2,2c-1.1,0-2-0.9-2-2C76.5,62.9,77.3,62,78.4,62"/>
<path class="st0" d="M112.7,62c1.1,0,1.9,0.9,1.9,2c0,1.1-0.9,2-1.9,2c-1.1,0-2-0.9-2-2C110.7,62.9,111.6,62,112.7,62"/>
<path class="st0" d="M145.1,62c1.1,0,2,0.9,2,2s-0.9,1.9-2,1.9c-1.1,0-2-0.9-2-1.9S144,62,145.1,62"/>
<path class="st0" d="M176.7,62.8c1.1,0,2,0.9,2,2c0,1.1-0.9,2-2,2c-1.1,0-2-0.9-2-2C174.7,63.7,175.6,62.8,176.7,62.8"/>
<path class="st0" d="M62,65.9c1.4,0,2.5,1.1,2.5,2.5c0,1.4-1.1,2.5-2.5,2.5c-1.4,0-2.5-1.1-2.5-2.5C59.5,67.1,60.6,65.9,62,65.9"/>
<path class="st0" d="M95.8,65.9c1.4,0,2.5,1.1,2.5,2.5c0,1.4-1.1,2.5-2.5,2.5c-1.4,0-2.5-1.1-2.5-2.5C93.3,67.1,94.4,65.9,95.8,65.9
	"/>
<path class="st0" d="M129.2,65.9c1.4,0,2.5,1.1,2.5,2.5c0,1.4-1.1,2.5-2.5,2.5c-1.4,0-2.5-1.1-2.5-2.5
	C126.7,67.1,127.8,65.9,129.2,65.9"/>
<path class="st0" d="M160.4,65.9c1.4,0,2.5,1.1,2.5,2.5c0,1.4-1.1,2.5-2.5,2.5c-1.4,0-2.5-1.1-2.5-2.5
	C157.9,67.1,159,65.9,160.4,65.9"/>
<path class="st0" d="M45.6,81.5c2.2,0,4,1.8,4,4c0,2.2-1.8,4-4,4c-2.2,0-4-1.8-4-4C41.5,83.4,43.3,81.5,45.6,81.5"/>
<path class="st0" d="M78.4,81.6c2.2,0,4,1.8,4,4c0,2.2-1.8,4-4,4c-2.2,0-4-1.8-4-4C74.4,83.4,76.2,81.6,78.4,81.6"/>
<path class="st0" d="M112.9,81.6c2.2,0,4,1.8,4,4c0,2.2-1.8,4-4,4c-2.2,0-4-1.8-4-4C108.9,83.4,110.7,81.6,112.9,81.6"/>
<path class="st0" d="M145.3,81.6c2.2,0,4,1.8,4,4c0,2.2-1.8,4-4,4c-2.2,0-4-1.8-4-4C141.3,83.4,143.1,81.6,145.3,81.6"/>
<path class="st0" d="M176.7,81.5c2.2,0,4,1.8,4,4c0,2.2-1.8,4-4,4c-2.2,0-4-1.8-4-4C172.6,83.4,174.4,81.5,176.7,81.5"/>
<path class="st0" d="M62,88.6c2.8,0,5,2.2,5,5c0,2.8-2.2,5-5,5c-2.8,0-5-2.2-5-5C57,90.9,59.3,88.6,62,88.6"/>
<path class="st0" d="M94.9,88.6c2.8,0,5,2.2,5,5c0,2.8-2.2,5-5,5c-2.8,0-5-2.2-5-5C89.9,90.9,92.1,88.6,94.9,88.6"/>
<path class="st0" d="M129.2,88.6c2.8,0,5,2.2,5,5c0,2.8-2.3,5-5,5c-2.8,0-5-2.2-5-5C124.2,90.9,126.5,88.6,129.2,88.6"/>
<path class="st0" d="M161.7,88.6c2.8,0,5,2.2,5,5c0,2.8-2.2,5-5,5c-2.8,0-5-2.2-5-5C156.7,90.9,159,88.6,161.7,88.6"/>
<path class="st0" d="M135.9,141.4c0,5.1,4.1,9.2,9.2,9.2c5,0,9.2-4.1,9.2-9.2c0-5-4.1-9.2-9.2-9.2
	C140,132.2,135.9,136.3,135.9,141.4"/>
<polygon class="st0" points="148.6,151.9 141.8,151.9 133.7,153.4 133.7,169.6 156.5,169.6 156.2,153.6 "/>
<path class="st0" d="M102.7,141.4c0,5.1,4.1,9.2,9.2,9.2c5.1,0,9.2-4.1,9.2-9.2c0-5-4.1-9.2-9.2-9.2
	C106.8,132.2,102.7,136.3,102.7,141.4"/>
<polygon class="st0" points="115.4,151.9 108.5,151.9 100.4,153.6 100.4,169.6 123.3,169.6 122.8,153.6 "/>
<path class="st0" d="M128,121.9c3.7,0,6.7,3,6.7,6.7c0,3.7-3,6.7-6.7,6.7c-3.7,0-6.7-3-6.7-6.7C121.3,124.9,124.3,121.9,128,121.9"
	/>
<path class="st0" d="M136.4,148.8c-1.2-2.3-2-4.7-2-7.4c0-1.8,0.5-3.5,1-5.1h-0.7h-1.6h-2.5h-5h-2.6h-1.5c0.7,1.6,1.1,3.3,1.1,5.1
	c0,3-1,5.7-2.7,7.9h16.6L136.4,148.8z"/>
<path class="st0" d="M78.2,132.2c5.1,0,9.2,4.1,9.2,9.2s-4.1,9.2-9.2,9.2c-5.1,0-9.2-4.1-9.2-9.2S73.1,132.2,78.2,132.2"/>
<polygon class="st0" points="81.7,151.9 74.8,151.9 66.7,153.6 66.7,169.6 89.6,169.6 89.1,153.6 "/>
<path class="st0" d="M94.3,121.9c3.7,0,6.7,3,6.7,6.7c0,3.7-3,6.7-6.7,6.7c-3.7,0-6.7-3-6.7-6.7C87.6,124.9,90.6,121.9,94.3,121.9"
	/>
<path class="st0" d="M102.7,148.8c-1.2-2.3-2-4.7-2-7.4c0-1.8,0.5-3.5,1-5.1H101h-1.6h-2.5h-5h-2.6h-1.5c0.7,1.6,1.1,3.3,1.1,5.1
	c0,3-1,5.7-2.7,7.9h16.6L102.7,148.8z"/>
<path class="st0" d="M178.7,131.8c5.1,0,9.2,4.1,9.2,9.2c0,5.1-4.1,9.2-9.2,9.2c-5.1,0-9.2-4.1-9.2-9.2
	C169.5,135.9,173.6,131.8,178.7,131.8"/>
<polygon class="st0" points="189.7,153.2 182.3,151.5 175.4,151.5 167.3,153.3 167.3,169.2 190.2,169.2 "/>
<path class="st0" d="M161.2,121.4c3.7,0,6.7,3,6.7,6.7c0,3.7-3,6.7-6.7,6.7c-3.7,0-6.7-3-6.7-6.7
	C154.5,124.4,157.5,121.4,161.2,121.4"/>
<path class="st0" d="M169.5,148.8v-0.4c-1.2-2.2-2.1-4.7-2.1-7.4c0-1.8,0.5-3.5,1-5.1h-0.7h-1.6h-2.5h-5h-2.6h-1.5
	c0.7,1.6,1.1,3.3,1.1,5.1c0,3-1,5.6-2.7,7.9L169.5,148.8z"/>
<path class="st0" d="M45.3,132.5c5.1,0,9.2,4.1,9.2,9.2s-4.1,9.2-9.2,9.2c-5.1,0-9.2-4.1-9.2-9.2S40.3,132.5,45.3,132.5"/>
<polygon class="st0" points="48.9,152.2 42,152.2 33.9,153.6 33.9,169.8 56.8,169.8 56.3,153.6 "/>
<path class="st0" d="M61.5,122.1c3.7,0,6.7,3,6.7,6.7c0,3.7-3,6.7-6.7,6.7c-3.7,0-6.7-3-6.7-6.7C54.8,125.1,57.8,122.1,61.5,122.1"
	/>
<path class="st0" d="M69.9,149.5v-0.4c-1.2-2.2-2-4.7-2-7.4c0-1.8,0.5-3.5,1-5.1h-0.7h-1.6h-2.5h-5h-2.6H55c0.7,1.6,1.1,3.3,1.1,5.1
	c0,3-1,5.6-2.7,7.9L69.9,149.5z"/>
<path class="st0" d="M11.7,132.5c5.1,0,9.2,4.1,9.2,9.2s-4.1,9.2-9.2,9.2c-5.1,0-9.2-4.1-9.2-9.2S6.6,132.5,11.7,132.5"/>
<polyline class="st0" points="0.2,169.8 23.1,169.8 22.6,153.6 15.2,152.2 8.3,152.2 0,153.6 "/>
<path class="st0" d="M27.8,122.1c3.7,0,6.7,3,6.7,6.7c0,3.7-3,6.7-6.7,6.7c-3.7,0-6.7-3-6.7-6.7C21.1,125.1,24.1,122.1,27.8,122.1"
	/>
<path class="st0" d="M34.5,136.5h-1.7h-2.5h-5h-2.6h-1.5c0.7,1.6,1.1,3.3,1.1,5.1c0,3-1,5.6-2.8,7.9h16.6v-0.4c-1.2-2.2-2-4.7-2-7.4
	c0-1.8,0.5-3.5,1-5.1H34.5z"/>
<polygon class="st0" points="50.4,2 141.8,2 141.8,45.5 58.4,45.5 58.3,47.5 143.8,47.5 143.8,0 48.4,0 48.4,16.9 50.4,16.3 "/>
<path class="st0" d="M51.5,17.3c3.2,0,5.8,2.6,5.8,5.8c0,3.2-2.6,5.8-5.8,5.8c-3.2,0-5.8-2.6-5.8-5.8C45.7,19.9,48.3,17.3,51.5,17.3
	"/>
<polygon class="st0" points="48.3,58.2 48.3,58.6 50.9,58.6 50.9,56.2 50.9,55.9 50.9,45.6 52.3,45.6 52.3,55.9 52.3,56.2 
	52.3,58.6 54.9,58.6 54.9,58.2 57.2,58.6 59.2,58.6 59.2,56.4 56.9,55.9 56.5,55.9 56.5,45.6 56.5,44.6 56.5,43.3 56.9,43.3 
	57.4,32.8 67.4,27.6 66.6,25.9 66.8,26.4 77.5,20.2 77,19.4 66.3,25.5 66.1,25 56.9,29.8 53.7,29.8 51.4,32.4 49.3,29.8 44.6,30.7 
	44.3,41.1 46.3,41.1 46.4,43.3 46.7,43.3 46.7,44.6 46.7,45.6 46.7,55.9 46.3,55.9 44,56.4 44,58.6 46,58.6 "/>
<rect x="82.9" y="9.6" class="st0" width="50.8" height="3"/>
<rect x="82.9" y="21.9" class="st0" width="50.8" height="3"/>
<rect x="82.9" y="33.9" class="st0" width="50.8" height="3"/>
</svg>
