<?xml version="1.0" encoding="utf-8"?>
<!-- Generator: Adobe Illustrator 19.0.1, SVG Export Plug-In . SVG Version: 6.00 Build 0)  -->
<svg version="1.1" id="Layer_1" xmlns="http://www.w3.org/2000/svg" xmlns:xlink="http://www.w3.org/1999/xlink" x="0px" y="0px"
	 viewBox="15 141 384 512" style="enable-background:new 15 141 384 512;" xml:space="preserve">
<style type="text/css">
	.st0{fill:#FE9934;}
</style>
<path class="st0" d="M207,205c-70.7,0-128,57.3-128,128c0,64,64,129,64,192h128c0-65,64-128,64-192C335,262.3,277.7,205,207,205z
	 M274.6,413.9c-12.8,25.3-25.8,51.3-31.9,79.1h-71.5c-6.2-26.9-18.9-52.5-31.4-77.5C125,385.7,111,357.6,111,333
	c0-52.9,43.1-96,96-96s96,43.1,96,96C303,357.3,289.2,384.8,274.6,413.9z M271,605c0,8.8-7.2,16-16,16h-2.9
	c-6.6,18.6-24.2,32-45.1,32s-38.5-13.4-45.1-32H159c-8.8,0-16-7.2-16-16s7.2-16,16-16h96C263.8,589,271,596.2,271,605z M271,557
	c0,8.8-7.2,16-16,16h-96c-8.8,0-16-7.2-16-16s7.2-16,16-16h96C263.8,541,271,548.2,271,557z M48.7,223.1l28.8,16.7
	c-6.2,8.7-11.7,17.8-16.1,27.7l-28.7-16.6L48.7,223.1z M207,173c-5.5,0-10.7,1.1-16,1.6V141h32v33.6C217.7,174.1,212.5,173,207,173z
	 M113.8,203.5l-16.7-28.8l27.8-16l16.6,28.7C131.6,191.9,122.4,197.3,113.8,203.5z M352.6,267.4c-4.4-9.8-9.9-19-16.1-27.7
	l28.8-16.7l16,27.8L352.6,267.4z M300.2,203.5c-8.6-6.2-17.8-11.6-27.6-16.1l16.6-28.7l27.7,16L300.2,203.5z M48.7,349H15v-32h33.6
	c-0.6,5.3-1.6,10.5-1.6,16C47,338.4,48.1,343.7,48.7,349z M399,317v32h-33.7c0.6-5.3,1.7-10.6,1.7-16c0-5.5-1.1-10.7-1.6-16H399z
	 M352.2,398.4l29.1,16.8l-16,27.7l-26.2-15.1C343.8,418.1,348.2,408.3,352.2,398.4z M61.7,398.4c4,9.9,8.3,19.8,13,29.4l-26,15
	l-16-27.7L61.7,398.4z"/>
</svg>
