<?xml version="1.0" encoding="UTF-8" standalone="no"?>
<svg width="429px" height="205px" viewBox="0 0 429 205" version="1.1" xmlns="http://www.w3.org/2000/svg" xmlns:xlink="http://www.w3.org/1999/xlink">
    <!-- Generator: Sketch 41.2 (35397) - http://www.bohemiancoding.com/sketch -->
    <title>Now Hiring</title>
    <desc>Created with Sketch.</desc>
    <defs></defs>
    <g id="Page-1" stroke="none" stroke-width="1" fill="none" fill-rule="evenodd">
        <g id="V4" transform="translate(-182.000000, -201.000000)" fill="#EC9142">
            <g id="process-overview-graphic" transform="translate(-22.000000, -301.000000)">
                <g id="Now-Hiring" transform="translate(204.000000, 502.000000)">
                    <path d="M352.13138,135.06985 C349.638889,135.06985 348.041121,137.223273 348.041121,140.757876 C348.041121,144.315315 349.638889,146.591217 352.13138,146.591217 C354.62387,146.591217 356.221638,144.315315 356.221638,140.757876 C356.221638,137.223273 354.62387,135.06985 352.13138,135.06985" id="Fill-3"></path>
                    <path d="M340.038443,163.7238 L336.009078,163.7238 L336.009078,172.954041 L340.038443,172.954041 C343.894121,172.954041 346.019174,171.307143 346.019174,168.100536 C346.019174,164.851026 343.894121,163.7238 340.038443,163.7238" id="Fill-4"></path>
                    <path d="M290.030868,159.693744 L295.058059,159.693744 L295.058059,171.091247 L306.541367,171.091247 L306.541367,159.693744 L311.567174,159.693744 L311.567174,188.033538 L306.541367,188.033538 L306.541367,175.467983 L295.058059,175.467983 L295.058059,188.033538 L290.030868,188.033538 L290.030868,159.693744 L290.030868,159.693744 Z M348.629991,79.3569501 C350.054766,80.4973232 351.859434,81.1796095 353.825332,81.1796095 C355.79123,81.1796095 357.597282,80.4973232 359.01998,79.3569501 L396.977521,117.313798 L310.673835,117.313798 L348.629991,79.3569501 L348.629991,79.3569501 Z M418.084111,162.771644 L415.309987,165.891063 C413.880369,164.504347 412.320659,163.549423 409.677319,163.549423 C404.650128,163.549423 401.269835,167.45008 401.269835,173.819701 C401.269835,180.27651 404.260547,184.177167 409.937501,184.177167 C411.540805,184.177167 413.100514,183.743991 414.009768,182.920542 L414.009768,176.80972 L408.63659,176.80972 L408.63659,172.693859 L418.517978,172.693859 L418.517978,185.174302 C416.567996,187.08069 413.230605,188.553902 409.33064,188.553902 C401.7902,188.553902 396.113937,183.35441 396.113937,173.951176 C396.113937,164.676649 401.964577,159.17338 409.633725,159.17338 C413.532306,159.174072 416.30643,160.951061 418.084111,162.771644 L418.084111,162.771644 Z M390.393388,188.033538 L385.236106,188.033538 L376.396139,172.086998 L373.493308,166.064056 L373.320315,166.064056 C373.536902,169.053384 373.970078,172.477271 373.970078,175.640284 L373.970078,188.033538 L369.160167,188.033538 L369.160167,159.693744 L374.316757,159.693744 L383.156725,175.640284 L386.059555,181.663918 L386.232549,181.663918 C386.015961,178.761087 385.583477,175.164206 385.583477,172.000501 L385.583477,159.693744 L390.393388,159.693744 L390.393388,188.033538 L390.393388,188.033538 Z M367.185965,148.74464 L363.774534,148.74464 L360.627436,132.915043 L363.507432,132.915043 L364.88792,140.903191 C365.153638,142.597143 365.420048,144.291787 365.662239,145.960829 L365.759115,145.960829 C366.098182,144.291787 366.435866,142.572924 366.799152,140.903191 L368.735987,132.915043 L371.180039,132.915043 L373.116874,140.903191 C373.479469,142.548013 373.818536,144.266876 374.182514,145.960829 L374.278698,145.960829 C374.520889,144.266184 374.786607,142.572924 375.028798,140.903191 L376.409286,132.915043 L379.094837,132.915043 L376.069527,148.74464 L372.585438,148.74464 L370.623692,140.418117 C370.35659,139.183636 370.115783,137.973373 369.92203,136.763803 L369.825154,136.763803 C369.607182,137.974065 369.365683,139.183636 369.099273,140.418117 L367.185965,148.74464 L367.185965,148.74464 Z M356.939215,188.033538 L361.965714,188.033538 L361.965714,159.693744 L356.939215,159.693744 L356.939215,188.033538 Z M345.160434,140.757876 C345.160434,135.651108 348.01621,132.624414 352.13138,132.624414 C356.270768,132.624414 359.125852,135.651108 359.125852,140.757876 C359.125852,145.888863 356.270768,149.035269 352.13138,149.035269 C348.01621,149.035269 345.160434,145.889555 345.160434,140.757876 L345.160434,140.757876 Z M346.452349,188.033538 L340.341527,176.939811 L336.007694,176.939811 L336.007694,188.033538 L330.982579,188.033538 L330.982579,159.693744 L340.558115,159.693744 C346.452349,159.693744 350.957792,161.773818 350.957792,168.100536 C350.957792,172.434369 348.705416,175.034115 345.325124,176.204935 L352.085017,188.033538 L346.452349,188.033538 L346.452349,188.033538 Z M330.105156,132.915043 L332.985844,132.915043 L337.922386,141.822132 L339.545065,145.18651 L339.641249,145.18651 C339.520154,143.565907 339.278655,141.556414 339.278655,139.789805 L339.278655,132.915735 L341.96559,132.915735 L341.96559,148.74464 L339.086286,148.74464 L334.147668,139.837551 L332.525681,136.473174 L332.428805,136.473174 C332.5499,138.142907 332.791399,140.055523 332.791399,141.822132 L332.791399,148.74464 L330.105156,148.74464 L330.105156,132.915043 L330.105156,132.915043 Z M318.760935,188.033538 L323.788126,188.033538 L323.788126,159.693744 L318.760935,159.693744 L318.760935,188.033538 Z M291.394748,204.768236 L416.256607,204.768236 C423.181191,204.768236 428.793792,199.154944 428.793792,192.231744 L428.793792,129.850983 C428.793792,122.927091 423.181191,117.313798 416.256607,117.313798 L403.626007,117.313798 L361.741514,75.4299978 C362.005156,74.6196963 362.148395,73.7547289 362.148395,72.8572386 C362.148395,68.2597636 358.422115,64.5341757 353.825332,64.5341757 C349.229241,64.5341757 345.502961,68.2597636 345.502961,72.8572386 C345.502961,73.7547289 345.646892,74.6196963 345.910534,75.4299978 L304.024657,117.313798 L291.394748,117.313798 C284.469473,117.313798 278.857564,122.927091 278.857564,129.850983 L278.857564,192.231744 C278.857564,199.154944 284.469473,204.768236 291.394748,204.768236 L291.394748,204.768236 Z" id="Fill-5"></path>
                    <path d="M173.160863,112.295887 C173.160863,114.593241 175.021581,116.456035 177.319627,116.456035 L188.076362,116.456035 L156.086937,148.446152 C154.46149,150.069523 154.46149,152.703868 156.086937,154.330007 C156.899315,155.141692 157.96357,155.548573 159.027826,155.548573 C160.09139,155.548573 161.156338,155.141692 161.968716,154.330698 L199.84338,116.456035 L238.334432,116.456035 C240.631785,116.456035 242.495271,114.593933 242.495271,112.295887 C242.495271,109.996458 240.633861,108.134356 238.334432,108.134356 L208.164367,108.134356 L219.256709,97.042705 L238.334432,97.042705 C240.631785,97.042705 242.495271,95.1792191 242.495271,92.8811735 C242.495271,90.58382 240.633861,88.721718 238.334432,88.721718 L227.57908,88.721718 L255.115369,61.1854295 C256.73874,59.5585987 256.73874,56.9263297 255.115369,55.3015748 C253.490614,53.676128 250.856961,53.67682 249.23359,55.3015748 L215.812755,88.72241 L177.319627,88.72241 C175.021581,88.72241 173.160863,90.58382 173.160863,92.8818655 C173.160863,95.1799111 175.021581,97.042705 177.319627,97.042705 L207.489692,97.042705 L196.395965,108.135048 L177.319627,108.135048 C175.021581,108.135048 173.160863,109.996458 173.160863,112.295887 Z" id="Fill-6"></path>
                    <path d="M128.619826,52.4005936 C125.617132,53.3589724 122.139076,54.5393005 118.399953,55.9381764 C120.644958,54.0273714 122.902718,52.1352749 125.174084,50.2635874 L128.619826,52.4005936 L128.619826,52.4005936 Z M125.638392,37.4441017 L125.444505,37.6252327 C124.49463,38.3829217 123.546456,39.1465634 122.602534,39.9127562 L120.80738,41.3754106 C109.993092,50.2074623 99.457728,59.4868141 89.3313973,69.1012159 L67.9477297,47.7183986 C78.9329447,36.1481218 89.4836154,24.0463572 99.4254136,11.6052907 L99.6065446,11.4122544 C100.740952,10.2778468 102.647505,9.63495915 104.131419,9.95725335 C116.235735,13.7210374 123.330459,20.8174625 127.092543,32.9217783 C127.508379,34.371677 126.771949,36.3096941 125.638392,37.4441017 L125.638392,37.4441017 Z M68.8550856,89.5766771 C59.2440854,99.7021575 49.9647336,110.236671 41.1309812,121.05181 L39.6657756,122.848664 C38.9004332,123.794287 38.1376419,124.74076 37.3791025,125.690635 C36.0116907,127.420309 34.0430599,127.796177 32.6730969,127.341224 C20.5679308,123.575739 13.4740568,116.481865 9.70942238,104.377549 C9.25787035,102.883431 10.0308662,100.988783 11.1652738,99.8535252 L11.3600109,99.6715438 C23.8053292,89.7246433 35.9053931,79.1722719 47.4722684,68.1947103 L68.8550856,89.5766771 L68.8550856,89.5766771 Z M50.0157565,125.422766 C51.8882943,123.150549 53.7795405,120.893639 55.6903454,118.648635 C54.2906191,122.386057 53.1094406,125.864963 52.1527626,128.867657 L50.0157565,125.422766 L50.0157565,125.422766 Z M142.918123,49.9166322 L132.949963,43.7369172 C138.923036,37.9815421 136.376997,30.3026064 136.376997,30.3026064 C131.702455,15.0408279 122.010669,5.3498919 106.74804,0.67194887 L106.393431,0.578407017 C101.637253,-0.49307239 96.2943126,1.0843834 92.7847924,4.59305327 C92.5211744,4.8575216 92.2669107,5.13389526 92.0305049,5.41452082 L91.9420653,5.52251914 C82.6703669,17.1276616 72.858677,28.4334701 62.6558119,39.277522 C57.2712027,29.5636257 54.594205,21.1184972 54.8799328,14.6675108 C54.9284045,13.5926299 54.2719108,12.6121412 53.259958,12.2464776 C52.2480052,11.8791132 51.1169992,12.2158639 50.4664581,13.0721971 L44.9440873,20.3599578 L37.0108877,12.090858 C36.3305834,11.3807903 35.2922688,11.1469356 34.3713067,11.4938909 C34.0379576,11.6197472 33.7428756,11.8127836 33.4996667,12.055142 C33.0727757,12.4811826 32.8108585,13.0594413 32.7819456,13.6853214 C32.4579506,20.988389 34.0243515,29.0219334 37.4471329,37.6958143 C28.7724016,34.2730328 20.7388572,32.7057816 13.4357897,33.030627 C12.8099096,33.0578391 12.2325013,33.3223075 11.807311,33.7474977 C11.5649526,33.9915569 11.3710658,34.2840878 11.2452095,34.6191377 C10.8999551,35.5392494 11.1338097,36.5775639 11.8438774,37.2587187 L20.1112764,45.1902175 L12.8252165,50.7151395 C11.9671826,51.3648301 11.632983,52.4958362 11.9977963,53.5086393 C12.3626095,54.5205921 13.3430982,55.1779362 14.4179791,55.1294645 C20.8706662,54.8420359 29.3149444,57.5198841 39.0288406,62.9036429 C28.1881902,73.1005553 16.8840825,82.9122453 5.27468817,92.1898963 L5.16754023,92.2766351 C4.88606429,92.5147417 4.60969063,92.7698558 4.34607268,93.0334737 C0.835702055,96.5438444 -0.740052977,101.885935 0.331426429,106.642963 L0.424968282,106.99502 C5.10036017,122.256799 14.7921465,131.949436 30.0547754,136.623127 L30.4068329,136.717519 C34.7131597,137.855328 39.9846683,136.356958 43.4882359,133.196094 L49.670502,143.165104 C50.6926593,144.813992 52.6026139,145.689033 54.5193715,145.387148 C56.4352787,145.086113 57.9838216,143.665128 58.4489797,141.781535 C58.5272147,141.466044 64.9518392,115.940173 76.4770459,97.1994877 L96.949956,76.7231761 C115.699995,65.1852137 141.219063,58.7741953 141.534554,58.6959603 C143.417297,58.2308022 144.838282,56.6831097 145.140168,54.7655017 C145.441202,52.8504448 144.566161,50.9404903 142.918123,49.9166322 L142.918123,49.9166322 Z" id="Fill-7"></path>
                </g>
            </g>
        </g>
    </g>
</svg>