<?xml version="1.0" encoding="utf-8"?>
<!-- Generator: Adobe Illustrator 19.0.1, SVG Export Plug-In . SVG Version: 6.00 Build 0)  -->
<svg version="1.1" id="Layer_1" xmlns="http://www.w3.org/2000/svg" xmlns:xlink="http://www.w3.org/1999/xlink" x="0px" y="0px"
	 viewBox="0 0 167.3 231.3" style="enable-background:new 0 0 167.3 231.3;" xml:space="preserve">
<style type="text/css">
	.st0{fill:#c46728;}
	.st1{clip-path:url(#SVGID_2_);fill:#c46728;}
</style>
<path class="st0" d="M9.8,9.8h147.8v211.8H9.8V9.8z M0,231.3h167.3V0H0V231.3z"/>
<rect x="33" y="118.6" class="st0" width="106.3" height="10"/>
<rect x="33" y="141.8" class="st0" width="106.3" height="10"/>
<rect x="33" y="165" class="st0" width="106.3" height="10"/>
<rect x="33" y="186.4" class="st0" width="106.3" height="10"/>
<path class="st0" d="M91.6,73.8l1.6,5.2h11.7L91.5,42.2H80.4L66.8,79h11.4l1.7-5.2H91.6z M85.9,54.6H86l3.3,11.3h-6.9L85.9,54.6z"/>
<polygon class="st0" points="116,53 116,62.1 106.9,62.1 106.9,70 116,70 116,79 123.9,79 123.9,70 133,70 133,62.1 123.9,62.1 
	123.9,53 "/>
<g>
	<defs>
		<rect id="SVGID_1_" x="-87.2" width="354.2" height="238.9"/>
	</defs>
	<clipPath id="SVGID_2_">
		<use xlink:href="#SVGID_1_"  style="overflow:visible;"/>
	</clipPath>
	<path class="st1" d="M98.4,107.7c25.4,0,46-16.3,46-41.7c0-25.4-20.6-46-46-46c-7.8,0-19.7,3.7-21.5,5.4c-1.8,1.6-1.3,5.3,2.1,3.7
		c3.4-1.6,12.4-4.8,19.3-4.8c23,0,41.7,18.7,41.7,41.7c0,23-18.7,37.4-41.7,37.4c-23,0-41.7-14.4-41.7-37.4c0-7.3,3.8-18.7,5.2-20.1
		c1.4-1.5-2.1-5.2-3.5-2.6c-1.4,2.6-6,14.4-6,22.7C52.5,91.4,73.1,107.7,98.4,107.7"/>
</g>
</svg>
