<?xml version="1.0" encoding="utf-8"?>
<!-- Generator: Adobe Illustrator 19.0.1, SVG Export Plug-In . SVG Version: 6.00 Build 0)  -->
<svg version="1.1" id="Layer_1" xmlns="http://www.w3.org/2000/svg" xmlns:xlink="http://www.w3.org/1999/xlink" x="0px" y="0px"
	 viewBox="0 0 321.4 308.7" style="enable-background:new 0 0 321.4 308.7;" xml:space="preserve">
<style type="text/css">
	.st0{fill:#c46728;}
	.st1{clip-path:url(#SVGID_2_);fill:#c46728;}
</style>
<path class="st0" d="M147.6,112.2l-24.9,130.6l0,0L17.6,258.3l140.3,50.4l124.9-16.8l38.5-162.7L147.6,112.2z M123,289l-34.4-13.1
	l16.6-2.2l38.6,12.9L123,289z M271.4,278.2l-139-39.3l22.3-115.2l149.1,17.5L271.4,278.2z"/>
<path class="st0" d="M98.9,142.8l-8.1,8.2l0,0l-2.4,2.4L0,242.1l92.2-7L98.9,142.8z M10.8,237.3l4.9-4.9l2.5,2.5l1.6-1.6l-2.5-2.5
	l2.3-2.3l4.3,4.3l1.6-1.6l-4.3-4.3l1.7-1.7l3,2.9l1.6-1.6l-2.9-2.9l2.3-2.4l4.3,4.3l1.6-1.6l-4.3-4.3l1.7-1.7l3,2.9l1.6-1.6
	l-2.9-2.9l2.1-2.2l4.3,4.3l1.6-1.6l-4.3-4.3l1.7-1.7l3,2.9l1.6-1.6l-3-2.9l2.3-2.4l4.3,4.3l1.6-1.6l-4.3-4.3l1.7-1.7l2.9,2.9
	l1.6-1.6l-3-2.9l2.1-2.1l0.1,0.1l1.1-1.2l3.2,3.2l1.6-1.6l-3.4-3.4l1.7-1.7l2,2l1.6-1.6l-2-2l2.3-2.3l3.4,3.4l1.6-1.6l-3.4-3.4
	l1.7-1.7l2,2l1.6-1.6l-2-2l2.3-2.3l3.8,3.8l1.6-1.6l-3.8-3.7l1.7-1.7l2.4,2.4l1.5-1.6l-2.4-2.4l2.3-2.4l3.8,3.8l1.6-1.6l-3.8-3.7
	l1.7-1.7l2.4,2.4l1.6-1.6l-2.4-2.4l2.1-2.1l3.8,3.7l1.6-1.6l-3.8-3.7l1.7-1.7l2.4,2.4l1.6-1.6l-2.4-2.4l2.3-2.3l3.7,3.7l1.6-1.6
	l-3.7-3.7l1.7-1.7L90,162l1.6-1.6l-2.4-2.3l4.9-5l-5.6,78.3L10.8,237.3z"/>
<path class="st0" d="M77.3,221.2l2.8-39.1l-41.9,42.1L77.3,221.2z M73.6,217.5l-25.1,1.9l26.9-27.1L73.6,217.5z"/>
<g>
	<defs>
		<rect id="SVGID_1_" x="-75" y="0" width="472.6" height="318.7"/>
	</defs>
	<clipPath id="SVGID_2_">
		<use xlink:href="#SVGID_1_"  style="overflow:visible;"/>
	</clipPath>
	<path class="st1" d="M224.1,212.5c-6-3.6-13.9-1.6-17.6,4.5c-3.6,6.1-1.6,13.9,4.5,17.6c6.1,3.6,14,1.6,17.5-4.5
		C232.2,224,230.2,216.1,224.1,212.5 M222.9,226.6c-1.7,2.9-5.5,3.9-8.4,2.1c-2.9-1.8-3.9-5.5-2.1-8.4c1.7-2.9,5.5-3.9,8.4-2.1
		C223.7,219.9,224.6,223.7,222.9,226.6"/>
	<path class="st1" d="M226,209.3c6.1,3.7,13.9,1.6,17.6-4.4c3.6-6.1,1.6-13.9-4.5-17.6c-6.1-3.6-13.9-1.6-17.6,4.5
		C218,197.8,219.9,205.7,226,209.3 M227.3,195.2c1.7-2.9,5.5-3.9,8.4-2.1c2.9,1.8,3.9,5.5,2.1,8.4c-1.7,2.9-5.5,3.9-8.4,2.1
		C226.5,201.9,225.6,198.1,227.3,195.2"/>
	<path class="st1" d="M276.5,214.3l-12.9-7.7l-31.7,8.4l7.7,31.9l12.4,8.9l-7.1-33l0.1,0L276.5,214.3z M242,221.6
		c-0.9,1.5-2.9,2.1-4.5,1.1c-1.5-0.9-2.1-2.9-1.1-4.5c0.9-1.5,2.9-2,4.5-1.1C242.4,218,242.9,220,242,221.6"/>
	<path class="st1" d="M45.3,136.9l2.7,3.3l5.2-4.2c4.4,2.5,9.6,4.1,15,4.1c17.3,0.3,31.5-13.5,31.8-30.8
		c0.3-17.3-13.5-31.5-30.8-31.8C52,77.2,37.7,91,37.4,108.3c-0.1,3.7,0.6,7.2,1.7,10.5l-5.1,4.1l3.3,4.1l-25.2,20.4l8,9.9
		L45.3,136.9z M69,90.6c10.1,0.2,18.1,8.5,17.9,18.5c-0.2,10.1-8.5,18.1-18.5,17.9c-10-0.2-18.1-8.5-17.9-18.5
		C50.7,98.4,59,90.4,69,90.6"/>
	<path class="st1" d="M202.9,70.8l0.5,0.1l2.8-1l-0.8,2.7l-0.1,0.5c-0.3,2.5,5.4,8.9,10.8,12c6.2,3.6,12.1,3.6,17-0.1
		c0.3-0.2,0.5-0.5,0.8-0.7l2.4,3.1l-3.6,2.9l1.7,2.1l3.5-2.8l17.7,23.4l-2.1-9.2l-12.8-16.5l2.6-2.1l-1.7-2.1l-2.5,2l-2.7-3.5
		c1.9-2.5,3.1-5.6,3.5-9.1c1-7.8-2-16.4-4.4-18.4c-0.7-0.6-1.4-0.7-1.9-0.6l-2.1,0l1.2-1.8l0.3-0.9c0.2-1.7,0.5-4.1-32.3-26.4
		c-15.8-10.8-31.8-21.1-32-21.2l-5-3.2l2.4,5.5C172.6,20.4,195.1,69.3,202.9,70.8 M185.8,18.8c21.6,14.4,40.6,27.9,43.2,31.6
		l-4.2,6.5l8.4,0.2c1.3,1.5,3.8,8.4,3,15c-0.3,2.5-1.1,4.7-2.3,6.5l-0.1-0.1l-32.6-37.8l-0.5,0.5l30.4,39.5l0.5,0.7
		c-0.3,0.2-0.5,0.5-0.7,0.7c-2.8,2.1-6.1,2.6-9.7,1.4c-6.2-2.1-11.5-8.3-12.3-10.1l2.7-9.3l-8.4,3.1c-3.6-2-14.1-20.9-24.7-42.9
		l7.3,0.9L185.8,18.8z M183.5,17.3l0,5.1l-6.2-0.7c-1.9-4-3.8-8.1-5.7-12.2C175.5,12.1,179.5,14.7,183.5,17.3"/>
	<path class="st1" d="M263.8,95.1l17.3-19.6l15.4-52.5h0l4.9-16.8l-19.8-5.8l-4.9,16.8l0,0l-15.2,52.2L263.8,95.1z M284.2,5.1
		l12.4,3.6l-1.8,6.2l-12.4-3.6L284.2,5.1z M267.5,74.4l4.1-3.8l1.9,5.5l6.5-3.5l-0.5,1.7l-9.8,11.2l-4.9-1.4l-1.3-14.4l0.7-2.4
		L267.5,74.4z"/>
	<path class="st1" d="M217.1,163.5c0.2-10.4-4.1-18.6-13.8-20.2c-7.5-1.2-13.6,2.2-16.1,3.8c0.1-2.2,0.2-4.6,0.3-6
		c0.1-1.9,3.4-2.9,5-4.4c1-0.9,0-3.3,0-3.3s-8.2,3.6-8,7.2c0.1,1.7,0.1,4.1,0.1,6.2c-2.3-1.5-7.2-4.1-14.1-3.7
		c-9.5,0.4-15.8,7.4-15.6,17.8c0.2,14.4,13,26.5,21.8,26.5c2.2,0,4-0.3,5.4-0.6l-0.2,1l1.6-0.8l0.8,3l1-2.6l1.7,1.8v-1.8l2.2,0.7
		l-0.5-1.6c1.4,0.5,3.6,1,6.4,1C204.1,187.5,216.9,177.8,217.1,163.5 M168,173.6c-3.6-4.6-2.5-11.1-2.5-11.1s2.4,6.1,4.9,9.8
		c2.5,3.8,6.7,6.8,6.7,6.8S171.6,178.3,168,173.6"/>
	<path class="st1" d="M134.7,39.5l-4.4,3.9l-2,1.8l-19.9,17.6l-2,1.8l-4.3,3.8l3.8,4.3l2.6-2.3l1.8-1.5l11.3,12.8l15.4-2.1
		l-4.6,15.2l0.1,0l0,0l11.4,12.8l-1.3,1.2l-2.6,2.2l3.8,4.3l32.7-28.9l-3.8-4.3l-4.8,4.2l-11.3-12.8L141,76l4.6-15.4l-0.1,0l0,0
		l-11.3-12.8l4.4-3.9L134.7,39.5z M155.7,77l10,11.4l-19.8,17.6l-10.4-11.7l4.5-15.1L155.7,77z M142.5,61.2l-4.6,15.3l-15.3,2.3
		l-10.3-11.7l19.9-17.5L142.5,61.2z"/>
	<polygon class="st1" points="123.6,76.7 137,74.8 141,61.3 136.8,56.5 119.3,71.9 	"/>
	<polygon class="st1" points="164.5,88.3 162.8,86.5 158,89.8 152,92 149.4,97.2 145.2,102.1 146.8,103.9 	"/>
	<path class="st1" d="M138.2,32.9l-0.8-29.2L22,6.9l0.8,29.2L138.2,32.9z M132.5,9l0.5,19l-6.2,0.2l-0.3-9l-3.6,0.1l0.2,9l-3.9,0.1
		l-0.2-5.9l-3.7,0.1l0.2,5.9l-5.4,0.2l-0.2-9l-3.7,0.1l0.2,9.1l-4,0.1l-0.2-5.9l-3.6,0.1l0.2,5.9l-5.4,0.2l-0.3-10l-3.7,0.1l0.3,10
		l-4,0.1l-0.2-6.8l-3.7,0.1l0.2,6.8l-5.4,0.1l-0.3-10l-3.6,0.1l0.3,10l-3.9,0.1l-0.2-6.8L65.4,23l0.2,6.8l-5,0.1l-0.3-10l-3.7,0.1
		l0.3,10l-4,0.1l-0.2-6.8l-3.7,0.1l0.2,6.8l-5.4,0.2l-0.3-10l-3.7,0.1l0.3,10l-4,0.1l-0.2-6.8l-3.7,0.1l0.2,6.8l-4.9,0.1l-0.5-19
		L132.5,9z"/>
</g>
</svg>
