<?xml version="1.0" encoding="utf-8"?>
<!-- Generator: Adobe Illustrator 19.0.1, SVG Export Plug-In . SVG Version: 6.00 Build 0)  -->
<svg version="1.1" id="Layer_1" xmlns="http://www.w3.org/2000/svg" xmlns:xlink="http://www.w3.org/1999/xlink" x="0px" y="0px"
	 viewBox="-261 353.1 103.3 84.3" style="enable-background:new -261 353.1 103.3 84.3;" xml:space="preserve">
<style type="text/css">
	.st0{fill:none;stroke:#FFFFFF;stroke-width:0.75;stroke-linecap:round;stroke-linejoin:round;stroke-miterlimit:10;}
</style>
<g>
	<g>
		<path class="st0" d="M-257,400.1v24.7h26.6v-24.7H-257z M-249.4,420.5h-3.2v-6.3h3.2V420.5z M-249.4,410.5h-3.2v-6.3h3.2V410.5z
			 M-242.1,420.5h-3.2v-6.3h3.2V420.5z M-242.1,410.5h-3.2v-6.3h3.2V410.5z M-234.8,420.5h-3.2v-6.3h3.2V420.5z M-234.8,410.5h-3.2
			v-6.3h3.2V410.5z"/>
		<path class="st0" d="M-187.6,400.1v24.7h26.6v-24.7H-187.6z M-180,420.5h-3.2v-6.3h3.2V420.5L-180,420.5z M-180,410.5h-3.2v-6.3
			h3.2V410.5L-180,410.5z M-172.7,420.5h-3.2v-6.3h3.2V420.5z M-172.7,410.5h-3.2v-6.3h3.2V410.5z M-165.4,420.5h-3.2v-6.3h3.2
			V420.5z M-165.4,410.5h-3.2v-6.3h3.2V410.5z"/>
	</g>
	<path class="st0" d="M-228.6,387.5v37.4h39.2v-37.4H-228.6z M-214.6,392.4h3.2v10.7h-3.2V392.4z M-219.9,419h-3.2v-10.7h3.2V419z
		 M-219.9,403h-3.2v-10.7h3.2V403z M-203.4,422h-11.2v-13.8h11.2V422z M-202.9,403h-3.2v-10.7h3.2C-202.9,392.4-202.9,403-202.9,403
		z M-194.4,419h-3.2v-10.7h3.2V419z M-194.4,403h-3.2v-10.7h3.2V403z"/>
	<polygon class="st0" points="-209,376 -231,386 -187,386 	"/>
	<rect x="-257" y="427.9" class="st0" width="96" height="2.6"/>
	<rect x="-257" y="433.4" class="st0" width="96" height="2.6"/>
	<path class="st0" d="M-209.7,358.5v0.8c-2.7-0.9-5.3,2.1-8,0.4c0,2,0,4,0,6c2.7,1.8,5.3-1.3,8-0.4v13.2h1.5v-19.9h-1.5V358.5z"/>
</g>
</svg>
