<?xml version="1.0" encoding="utf-8"?>
<!-- Generator: Adobe Illustrator 19.0.1, SVG Export Plug-In . SVG Version: 6.00 Build 0)  -->
<svg version="1.1" id="Layer_1" xmlns="http://www.w3.org/2000/svg" xmlns:xlink="http://www.w3.org/1999/xlink" x="0px" y="0px"
	 viewBox="-252 349 94 95" style="enable-background:new -252 349 94 95;" xml:space="preserve">
<style type="text/css">
	.st0{fill:#669ACC;}
</style>
<rect x="-243" y="440" class="st0" width="76" height="4"/>
<path class="st0" d="M-199,373c0,0-1,0-1-1v-3c0-2.8-2.2-5-5-5c-2.8,0-5,2.2-5,5h0v3c0,0,0,1-1,1h-1v2h14v-2H-199z"/>
<circle class="st0" cx="-205" cy="363" r="1"/>
<path class="st0" d="M-205,378c1.1,0,2-0.9,2-2h-4C-207,377.1-206.1,378-205,378z"/>
<path class="st0" d="M-192,378.1V363h6l-19-14l-19,14h6v15.1l-34,25.9h13v34h26v-23c0-4.4,3.6-8,8-8s8,3.6,8,8v23h26v-34h13
	L-192,378.1z M-220,431h-12v-4h12V431z M-220,425h-12v-10h12V425z M-205,401c-3.9,0-7-3.1-7-7c0-3.9,3.1-7,7-7c3.9,0,7,3.1,7,7
	C-198,397.9-201.1,401-205,401z M-196,379h-18v-11h0.1c0.5-4.5,4.3-8,8.9-8c4.6,0,8.4,3.5,8.9,8h0.1V379z M-178,431h-12v-4h12V431z
	 M-178,425h-12v-10h12V425z"/>
<path class="st0" d="M-205,395h-3c-0.6,0-1-0.4-1-1s0.4-1,1-1h2v-4c0-0.6,0.4-1,1-1s1,0.4,1,1v5C-204,394.6-204.4,395-205,395z"/>
</svg>
