<?xml version="1.0" encoding="utf-8"?>
<!-- Generator: Adobe Illustrator 19.0.1, SVG Export Plug-In . SVG Version: 6.00 Build 0)  -->
<svg version="1.1" id="Layer_1" xmlns="http://www.w3.org/2000/svg" xmlns:xlink="http://www.w3.org/1999/xlink" x="0px" y="0px"
	 viewBox="0 0 996 587.7" style="enable-background:new 0 0 996 587.7;" xml:space="preserve">
<style type="text/css">
	.st0{clip-path:url(#SVGID_2_);fill:#FFFFFF;}
	.st1{clip-path:url(#SVGID_2_);fill:#507894;}
	.st2{clip-path:url(#SVGID_2_);fill:#507893;}
	.st3{clip-path:url(#SVGID_2_);fill:#679ACB;}
	.st4{clip-path:url(#SVGID_2_);fill:#C46728;}
	.st5{clip-path:url(#SVGID_2_);fill:#F89939;}
	.st6{clip-path:url(#SVGID_2_);fill:none;stroke:#F89939;stroke-width:6.513;stroke-linejoin:bevel;}
	.st7{clip-path:url(#SVGID_2_);fill:#5C7B37;}
	.st8{clip-path:url(#SVGID_2_);fill:#7FB34C;}
	.st9{clip-path:url(#SVGID_2_);fill:none;stroke:#7FB34C;stroke-width:4.34;stroke-miterlimit:10;}
	.st10{clip-path:url(#SVGID_2_);fill:none;stroke:#7FB34C;stroke-width:6.51;stroke-linejoin:bevel;}
	.st11{clip-path:url(#SVGID_2_);fill:#EAEAEA;}
	.st12{clip-path:url(#SVGID_2_);fill:#3D5DAB;}
</style>
<g>
	<defs>
		<rect id="SVGID_1_" x="-83" y="-91.3" width="1162" height="762"/>
	</defs>
	<clipPath id="SVGID_2_">
		<use xlink:href="#SVGID_1_"  style="overflow:visible;"/>
	</clipPath>
	<path class="st0" d="M726,529c0,31-25.1,56-56,56c-30.9,0-56-25.1-56-56c0-31,25.1-56,56-56C700.9,472.9,726,498,726,529"/>
	<polyline class="st1" points="0.1,59.9 55,3.5 208.1,4.6 208.7,157.1 154.9,209.7 2.9,210.3 0.1,59.9 	"/>
	<path class="st2" d="M155.7,54.1l-48.2-0.6L62.3,8.1l0-3.5l141,1.8L155.7,54.1 M160.4,104.1V58.6l47.5-47.5v43.8L160.4,104.1
		 M153.9,153.6l-91.6-1.2l0-93.1l91.6,1.2V153.6 M153.9,207.9L6.6,206V58.6l49.2,0.6l0,98.9h0.7l0,0.7l97.5,1.3V207.9"/>
	<path class="st3" d="M3.3,55.3l0,3.3l150.6,2v147.3L6.6,206V55.3H3.3l0,3.3L3.3,55.3H0.1v153.8l3.2,3.3l153.8,2l3.3-3.3V57.3
		l-3.2-3.3l-153.8-2l-3.3,3.3H3.3 M6.8,57.9L60.2,2.6l-4.7-4.5L2.1,53.4L6.8,57.9 M159.1,59.9l54.4-54.4l-4.6-4.6l-54.4,54.4
		L159.1,59.9 M157.4,214.2l57-56.9l-4.6-4.6l-57,56.9L157.4,214.2 M55.5,4.5l152.4,2v150.9h6.5V3.3L211.2,0L55.6-2L55.5,4.5
		 M56.4,158.9l154.2,2l0.1-6.5l-154.2-2L56.4,158.9 M62.3,158.2l0-155.6l-6.5,0l0,155.6L62.3,158.2"/>
	<polyline class="st3" points="4.3,55.6 157.9,57.4 157.9,211.6 4.1,209.6 4.3,55.6 	"/>
	<polyline class="st3" points="4.3,55.6 4.3,57.8 155.8,59.6 155.8,209.4 6.3,207.4 6.5,55.6 4.3,55.6 4.3,57.8 4.3,55.6 2.1,55.6 
		2,211.7 160.1,213.8 160.1,55.3 2.1,53.4 2.1,55.6 4.3,55.6 	"/>
	<polyline class="st1" points="156.2,113.9 211.2,57.5 364.2,58.6 364.8,211.1 311,263.7 159.1,264.3 156.2,113.9 	"/>
	<polyline class="st2" points="310.2,106.1 262,106.1 217.5,62 217.5,58.5 310.3,58.5 310.2,106.1 	"/>
	<path class="st3" d="M158.4,109.3v3.3H309v147.3H161.7V109.3H158.4v3.3V109.3h-3.3v153.8l3.3,3.3h153.8l3.3-3.3V109.3l-3.3-3.3
		H158.4l-3.3,3.3H158.4 M161.9,111.9l53.5-55.3l-4.7-4.5l-53.5,55.3L161.9,111.9 M314.3,111.9l54.4-54.4l-4.6-4.6l-54.4,54.4
		L314.3,111.9 M312.5,266.2l57-56.9l-4.6-4.6l-57,56.9L312.5,266.2 M210.6,58.5h152.4v150.9h6.5V55.3l-3.3-3.3H210.6V58.5
		 M211.6,212.9h154.2v-6.5H211.6V212.9z M217.4,212.2l0-155.6l-6.5,0l0,155.6L217.4,212.2"/>
	<polyline class="st3" points="160.9,110.1 314.5,109.9 314.5,264.1 160.8,264.1 160.9,110.1 	"/>
	<polyline class="st3" points="160.9,110.1 160.9,112.3 312.4,112.1 312.4,261.9 162.9,261.9 163.1,110.1 160.9,110.1 160.9,112.3 
		160.9,110.1 158.8,110.1 158.6,266.2 316.7,266.2 316.7,107.8 158.8,107.9 158.8,110.1 160.9,110.1 	"/>
	<polyline class="st1" points="311.2,60.9 366.2,4.5 519.2,5.6 519.8,158.1 466,210.7 314.1,211.3 311.2,60.9 	"/>
	<path class="st2" d="M466.8,54.1H418L373.5,10l0-3.5h140.9L466.8,54.1 M472.2,107.7l-0.6-0.6V58.6L519,11.1v48.2l-45.2,46.8h0
		L472.2,107.7"/>
	<path class="st3" d="M314.4,57.3v3.3H465v147.3H317.7V57.3H314.4v3.3V57.3h-3.3v153.8l3.3,3.3h153.8l3.3-3.3V57.3l-3.3-3.3H314.4
		l-3.3,3.3H314.4 M317.9,59.9l53.5-55.3l-4.7-4.5l-53.5,55.3L317.9,59.9 M470.3,59.9l54.4-54.4L520,0.9l-54.4,54.4L470.3,59.9
		 M468.5,214.2l57-56.9l-4.6-4.6l-57,56.9L468.5,214.2 M366.6,6.5H519v150.9h6.5V3.3L522.3,0H366.6V6.5 M367.6,160.9h154.2v-6.5
		H367.6V160.9z M373.4,160.2l0-155.6l-6.5,0l0,155.6L373.4,160.2"/>
	<polyline class="st3" points="312.4,57.6 466,57.4 466,211.6 312.2,211.6 312.4,57.6 	"/>
	<polyline class="st3" points="312.4,57.6 312.4,59.8 463.9,59.6 463.9,209.4 314.4,209.4 314.6,57.6 312.4,57.6 312.4,59.8 
		312.4,57.6 310.3,57.6 310.1,213.8 468.2,213.8 468.2,55.3 310.3,55.4 310.3,57.6 312.4,57.6 	"/>
	<polyline class="st4" points="470.6,113.9 525.5,57.5 678.6,58.6 679.1,211.1 625.4,263.7 473.4,264.3 470.6,113.9 	"/>
	<polyline class="st4" points="624.7,106.1 577.3,106.1 532.8,62 532.8,58.5 624.7,58.5 624.7,106.1 	"/>
	<path class="st5" d="M473.8,109.3v3.3h150.6v147.3H477.1V109.3H473.8v3.3V109.3h-3.3v153.8l3.3,3.3h153.8l3.3-3.3V109.3l-3.3-3.3
		H473.8l-3.3,3.3H473.8 M477.2,111.9l53.5-55.3l-4.7-4.5l-53.5,55.3L477.2,111.9 M629.6,111.9L684,57.5l-4.6-4.6L625,107.3
		L629.6,111.9 M627.9,266.2l57-56.9l-4.6-4.6l-57,56.9L627.9,266.2 M526,58.5h152.4v150.9h6.5V55.3l-3.3-3.3H526V58.5 M527,212.9
		h154.2v-6.5H527V212.9z M532.8,212.2l0-155.6l-6.5,0l0,155.6L532.8,212.2"/>
	<polyline class="st5" points="474.8,109.6 628.4,109.4 628.4,263.6 474.6,263.6 474.8,109.6 	"/>
	<polyline class="st5" points="474.8,109.6 474.8,111.8 626.2,111.6 626.2,261.4 476.8,261.4 477,109.6 474.8,109.6 474.8,111.8 
		474.8,109.6 472.6,109.6 472.4,265.8 630.6,265.8 630.6,107.3 472.6,107.4 472.6,109.6 474.8,109.6 	"/>
	<polyline class="st4" points="625.7,60.9 680.6,4.5 833.7,5.6 834.2,158.1 780.5,210.7 628.5,211.3 625.7,60.9 	"/>
	<polyline class="st0" points="828.8,5.5 824.4,5.5 828.9,5.5 828.8,5.5 	"/>
	<path class="st4" d="M781.3,53.1h-48.8L687.9,9l0-3.5h136.5l4.4,0L781.3,53.1 M806.8,88.1l26.7-27.6v0.2L806.8,88.1 M787.3,107.4
		l-1.3-1.3V57.6l47.5-47.5v50.4l-26.7,27.6L788,107.4L787.3,107.4 M778.3,153.4h-90.4l0-93.8h90.4V153.4 M778.3,206.9H632.2V59.6
		h49.2l0,99.6h0.7v0.7h96.3V206.9"/>
	<path class="st5" d="M628.9,56.3v3.3h150.6v147.3H632.2V56.3H628.9v3.3V56.3h-3.3v153.8l3.3,3.3h153.8l3.3-3.3V56.3l-3.3-3.3H628.9
		l-3.3,3.3H628.9 M632.3,58.9l53.5-55.3l-4.7-4.5l-53.5,55.3L632.3,58.9 M784.7,58.9l54.4-54.4l-4.6-4.6l-54.4,54.4L784.7,58.9
		 M783,213.2l57-56.9l-4.6-4.6l-57,56.9L783,213.2 M681.1,5.5h152.4v150.9h6.5V2.2L836.8-1H681.1V5.5 M682.1,159.9h154.2v-6.5H682.1
		V159.9z M687.9,159.2l0-155.6l-6.5,0l0,155.6L687.9,159.2"/>
	<polyline class="st5" points="626.9,56.6 780.5,56.4 780.5,210.6 626.7,210.6 626.9,56.6 	"/>
	<polyline class="st5" points="626.9,56.6 626.9,58.8 778.3,58.6 778.3,208.4 628.9,208.4 629.1,56.6 626.9,56.6 626.9,58.8 
		626.9,56.6 624.7,56.6 624.5,212.7 782.7,212.7 782.7,54.2 624.7,54.4 624.7,56.6 626.9,56.6 	"/>
	<polyline class="st4" points="781.7,113.9 836.6,57.5 989.7,58.6 990.2,211.1 936.5,263.7 784.5,264.3 781.7,113.9 	"/>
	<path class="st0" d="M991.1,209.6h-0.9H991.1l1-1l-1.8-1.8l-0.5-148.3L840,57.5v-2.3h152.7l0.1-0.1l-0.1,0.1h0v152.7l0.9-0.9
		l-0.9,0.9v1.4l-0.7-0.7L991.1,209.6 M992.2,209.6h-1.1H992.2 M990.2,210.5L990.2,210.5l0.8-0.8L990.2,210.5 M938.8,263.2
		L938.8,263.2l-0.1-1.6l0.1-0.1v0.3l18.6-18.5l-18.6,18.5V263.2"/>
	<polyline class="st5" points="833.5,60.5 833.5,60.5 837.9,56 837.1,55.3 838.6,55.3 839.5,54.3 838.6,55.3 840,55.3 840,57.5 
		839.4,57.5 837.9,56 833.5,60.5 	"/>
	<path class="st4" d="M788.2,107.4l18.6-19.3L788.2,107.4 M938.8,209.6L938.8,209.6l-0.1-102.4l-49,0.1l-49-48.5l0,48.6l0-48.6
		l-1.3-1.3l0.6,0l149.7,1.1l0.5,148.3l-51.5-51V209.6 M990.2,209.6h-51.5H990.2 M957.3,243.4l32.9-32.9L957.3,243.4 M838.1,209.6
		h2.6H838.1 M934.3,261.4H784.9v-18.3l0.2-131.3l149.3-0.2v98h-93.7h93.7V261.4 M938.7,261.6v-52h0.1L938.7,261.6L938.7,261.6"/>
	<path class="st6" d="M784.9,109.3h153.8v153.8H784.9V109.3z M786,109.7l53.5-55.3 M938.4,109.6l54.4-54.4 M936.7,263.9l57-56.9
		 M837.1,55.3h155.7v154.1 M838.1,209.6h154.1 M840.6,212.2l0-155.6"/>
	<polyline class="st5" points="782.9,109.6 936.5,109.4 936.5,263.6 782.7,263.6 782.9,109.6 	"/>
	<polyline class="st5" points="782.9,109.6 782.9,111.8 934.3,111.6 934.3,261.4 784.9,261.4 785.1,109.6 782.9,109.6 782.9,111.8 
		782.9,109.6 780.7,109.6 780.5,265.8 938.7,265.8 938.7,107.3 780.7,107.4 780.7,109.6 782.9,109.6 	"/>
	<polyline class="st7" points="256.4,270.1 311.3,213.6 464.3,214.7 464.8,367.2 411.1,419.8 259.2,420.4 256.4,270.1 	"/>
	<path class="st7" d="M411.9,263.2h-48.8l-44.5-44.1l0-3.5h140.9L411.9,263.2 M417.3,316.9l-0.7-0.6v-48.5l47.5-47.5v48.2l-46,47.6
		h0L417.3,316.9 M410.1,363.5h-91.6l0-93.7h91.5V363.5 M410.1,417H262.9V269.7h49.2l0,99.5l0.7,0v0.7h97.4V417"/>
	<path class="st8" d="M259.6,266.5v3.3h150.5V417H262.9V266.5H259.6v3.3V266.5h-3.3v153.8l3.3,3.3h153.8l3.3-3.3V266.5l-3.3-3.3
		H259.6l-3.3,3.3H259.6 M263,269.1l53.4-55.3l-4.7-4.5l-53.4,55.3L263,269.1 M415.3,269l54.3-54.3l-4.6-4.6l-54.3,54.3L415.3,269
		 M413.6,423.3l57-56.9l-4.6-4.6l-57,56.9L413.6,423.3 M311.8,215.7h152.3v150.8h6.5V212.4l-3.3-3.3H311.8V215.7 M312.7,370h154.1
		v-6.5H312.7V370z M318.5,369.2l0-155.5l-6.5,0l0,155.5L318.5,369.2"/>
	<polyline class="st8" points="260.5,266.9 414,266.7 414,420.8 260.3,420.8 260.5,266.9 	"/>
	<polygon class="st9" points="260.5,266.9 414,266.7 414,420.8 260.3,420.8 	"/>
	<polyline class="st7" points="416.9,323.9 471.8,267.5 624.8,268.5 625.4,421 571.7,473.6 416.8,474.2 416.9,323.9 	"/>
	<path class="st7" d="M570.2,316h-48.6L477.1,272l0-3.5h95.5v0.3l-3.2,3.3L570.2,316 M568.6,416.3h-91.6l0-93.7h91.5V416.3
		 M568.6,469.8H421.4V322.5h49.2l0,99.5l0.7,0v0.7h97.4V469.8"/>
	<path class="st8" d="M418.1,319.3v3.3h150.5v147.3H421.4V319.3H418.1v3.3V319.3h-3.3v153.8l3.3,3.3h153.8l3.3-3.3V319.3l-3.3-3.3
		H418.1l-3.3,3.3H418.1 M421.6,321.9l53.4-55.3l-4.7-4.5l-53.4,55.3L421.6,321.9 M573.9,321.8l54.3-54.3l-4.6-4.6l-54.3,54.3
		L573.9,321.8 M572.2,476.1l57-56.9l-4.6-4.6l-57,56.9L572.2,476.1 M470.3,268.5h152.3v150.8h6.5V265.2l-3.3-3.3H470.3V268.5
		 M471.3,422.8h154.1v-6.5H471.3V422.8z M477.1,422.1l0-155.5l-6.5,0l0,155.5L477.1,422.1"/>
	<polyline class="st8" points="419,319.7 571.3,319.5 571.3,472.3 418.8,472.3 419,319.7 	"/>
	<polyline class="st8" points="419,319.7 419,321.8 569.2,321.6 569.2,470.2 421,470.2 421.2,319.7 419,319.7 419,321.8 419,319.7 
		416.9,319.7 416.7,474.5 573.5,474.5 573.5,317.3 416.9,317.5 416.9,319.7 419,319.7 	"/>
	<polyline class="st7" points="569.4,272.1 624.3,215.6 777.3,216.7 777.8,369.2 724.1,421.8 572.2,422.4 569.4,272.1 	"/>
	<path class="st0" d="M778.7,367.7h-0.8H778.7l1-1l-1.8-1.8l-0.5-148.2l-99.1-0.7l2.6-2.6h99.6V366l0.9-0.9l-0.9,0.9v1.4l-0.7-0.7
		L778.7,367.7 M779.8,367.7h-1.1H779.8 M777.8,368.6L777.8,368.6l0.8-0.8L777.8,368.6 M724.3,422l0.7-0.7h-0.4l1.7-1.6v0.3
		l17.6-17.6l-17.6,17.6v1.3h-1.3L724.3,422"/>
	<polyline class="st4" points="669,216 630.9,215.7 630.9,213.4 671.5,213.4 669,216 	"/>
	<path class="st5" d="M630.9,215.7l-0.3,0v-2.3h0.3V215.7 M678.2,216L669,216l2.5-2.5h9.2L678.2,216"/>
	<polyline class="st5" points="593.2,247.6 625.5,214.1 624.8,213.4 626.2,213.4 626.2,213.4 626.2,213.4 626.2,213.4 626.2,214.9 
		625.5,214.1 593.2,247.6 	"/>
	<path class="st5" d="M626.2,213.4L626.2,213.4l0.6-0.7L626.2,213.4 M630.6,215.7l-3.5,0l-0.8-0.8v-1.4h2.7l0,0h1.6V215.7"/>
	<polyline class="st5" points="780.4,213.4 628.9,213.4 628.9,213.4 780.3,213.4 780.4,213.4 780.3,213.4 780.4,213.4 780.4,213.4 	
		"/>
	<polyline class="st7" points="572.6,268.8 572.6,268.5 572.9,268.5 572.6,268.8 	"/>
	<polyline class="st8" points="572.9,268.5 572.6,268.5 572.6,267.5 573.8,267.5 572.9,268.5 	"/>
	<path class="st7" d="M777.8,367.7h-51.5H777.8 M744,402.4l33.9-33.8L744,402.4 M628.3,267.5h51.1l-51-50.5L628.3,267.5
		 M625.7,367.7h2.6H625.7 M724.7,421.2H572.6V268.8l1.3-1.3h0.1l19.2-19.9L574,267.5h54.3l0-50.5l-1.3-1.3l3.5,0l0.3,0L669,216
		l9.2,0.1l99.1,0.7l0.5,148.2l-51.5-51v53.7h-98.1h98.1v51.9L724.7,421.2"/>
	<path class="st10" d="M572.6,267.5h153.8v153.8H572.6V267.5z M573.7,267.8l53.4-55.3 M726,267.7l54.3-54.3 M724.3,422l57-56.9
		 M624.8,213.4h155.6v154.1 M625.7,367.7h154.1 M628.3,370.2l0-155.5"/>
	<polyline class="st8" points="569.5,267.9 723,267.7 723,421.8 569.3,421.8 569.5,267.9 	"/>
	<polygon class="st9" points="569.5,267.9 723,267.7 723,421.8 569.3,421.8 	"/>
	<polyline class="st11" points="196.1,236.5 200.4,232.1 218,232.1 213.6,236.5 196.1,236.5 	"/>
	<polyline class="st0" points="213.4,208 217.8,203.6 218,232.1 213.6,236.5 213.4,208 	"/>
	<polyline class="st11" points="214.4,208.4 218.8,204 219,233.1 214.7,237.5 214.4,208.4 	"/>
	<polyline class="st11" points="226.6,195.1 230.9,190.8 218.8,204 214.4,208.4 226.6,195.1 	"/>
	<polyline class="st0" points="226.6,193.5 231,189.2 217.8,203.6 213.4,208 226.6,193.5 	"/>
	<polyline class="st11" points="226.6,193.5 231,189.2 261.9,232.1 257.6,236.5 226.6,193.5 	"/>
	<polyline class="st11" points="257.6,236.5 261.9,232.1 280.3,232.1 276,236.5 257.6,236.5 	"/>
	<polyline class="st0" points="237.1,183.8 241.4,179.5 280.3,232.1 276,236.5 237.1,183.8 	"/>
	<polyline class="st11" points="195.4,142.1 199.7,137.7 200.4,232.1 196.1,236.5 195.4,142.1 	"/>
	<polyline class="st11" points="238.3,183.9 242.7,179.5 282.3,233.1 277.9,237.5 238.3,183.9 	"/>
	<polyline class="st0" points="212.9,142.1 217.3,137.7 217.6,185.1 213.3,189.5 212.9,142.1 	"/>
	<polyline class="st0" points="195.4,142.1 199.7,137.7 217.3,137.7 212.9,142.1 195.4,142.1 	"/>
	<polyline class="st11" points="194.4,141.1 198.7,136.8 218.3,136.8 213.9,141.1 194.4,141.1 	"/>
	<polyline class="st11" points="213.9,141.1 218.3,136.8 218.6,182.5 214.3,186.8 213.9,141.1 	"/>
	<polyline class="st11" points="254.9,142 259.3,137.6 217.6,185.1 213.3,189.5 254.9,142 	"/>
	<polyline class="st0" points="254.9,142 259.3,137.6 277.2,137.6 272.9,142 254.9,142 	"/>
	<polyline class="st0" points="272.9,142 277.2,137.6 241.4,179.5 237.1,183.8 272.9,142 	"/>
	<polyline class="st0" points="272.9,142 237.1,183.8 276,236.5 257.6,236.5 226.6,193.5 213.4,208 213.6,236.5 196.1,236.5 
		195.4,142.1 212.9,142.1 213.3,189.5 254.9,142 272.9,142 	"/>
	<path class="st11" d="M238.3,183.9l39.6,53.6h-20.9l-30.5-42.3l-12.1,13.3l0.2,29.1h-19.6l-0.7-96.3h19.6l0.3,45.7l40.2-45.9H275
		L238.3,183.9 M226.6,193.5l30.9,42.9H276l-38.9-52.6l35.8-41.8h-17.9l-41.7,47.5l-0.4-47.3h-17.6l0.7,94.4h17.6l-0.2-28.5
		L226.6,193.5"/>
	<polyline class="st11" points="275,141 279.4,136.6 242.7,179.5 238.3,183.9 275,141 	"/>
	<polyline class="st11" points="254.5,141 258.8,136.6 279.4,136.6 275,141 254.5,141 	"/>
	<polyline class="st11" points="45.7,159.8 50,155.4 42.4,170.4 38.1,174.8 45.7,159.8 	"/>
	<path class="st0" d="M50,155.4c0.5,0.5,1.2,1,2,1.5c-1.4,1.5-2.9,2.9-4.3,4.4c-0.8-0.6-1.5-1.1-2-1.5C47,158.5,48.7,156.7,50,155.4
		 M45.8,159.7l0.2-0.2l1-1l0.3-0.3l1.1-1.1l0.3-0.3l1-1l0.2-0.2l-0.2,0.2l-1,1l-0.3,0.3l-1.1,1.1l-0.3,0.3l-1,1L45.8,159.7"/>
	<polyline class="st11" points="45.4,158.1 49.7,153.8 50.2,154.2 45.9,158.6 45.4,158.1 	"/>
	<path class="st11" d="M38.1,174.8l4.3-4.4c10.9,7.5,25.6,12,39.5,12l-4.3,4.4C63.7,186.8,49,182.3,38.1,174.8"/>
	<polyline class="st11" points="68.3,145.4 72.6,141.1 73.8,141.4 69.5,145.7 68.3,145.4 	"/>
	<path class="st0" d="M82.1,166.8c6.2,0,10.7-1.4,13.3-3.9l-4.3,4.4c-2.6,2.6-7.1,3.9-13.3,3.9c-12.1,0-24.4-5.9-30.1-9.9
		c1.1-0.3,2.1-0.6,3.4-0.9c-1.3,0.3-2.3,0.6-3.4,0.9c1.4-1.5,2.9-2.9,4.3-4.4c0,0.2-0.1,0.4-0.1,0.9c-0.1,0.5-0.2,1.1-0.2,1.4
		c-0.2,0.6-0.3,0.8-0.6,1.1c0.2-0.3,0.4-0.5,0.6-1.1c0.1-0.3,0.2-1,0.2-1.4c0.1-0.5,0.1-0.7,0.1-0.9C57.7,160.9,70,166.8,82.1,166.8
		"/>
	<path class="st11" d="M94.7,162.2c-1.4,1.5-2.9,2.9-4.3,4.4c-2.8,2.9-8,3.6-12.6,3.6c-14.2,0-28.6-8.3-31.9-11.6l4.3-4.4
		c3.3,3.3,17.7,11.6,31.9,11.6C86.7,165.8,91.9,165.1,94.7,162.2"/>
	<path class="st11" d="M109.5,173.6c-1.4,1.5-2.9,2.9-4.3,4.4c-5,5-13.4,8.9-27.5,8.9l4.3-4.4C96,182.5,104.4,178.6,109.5,173.6"/>
	<path class="st11" d="M95.4,162.9c-1.4,1.5-2.9,2.9-4.3,4.4c1.6-1.6,2.5-3.8,2.5-6.4c-0.1-8.6-9.6-11.2-24.1-15.1l4.3-4.4
		c14.4,3.9,24,6.5,24.1,15.1C97.9,159.1,97.1,161.2,95.4,162.9"/>
	<path class="st11" d="M49.2,100c1.4-1.5,2.9-2.9,4.3-4.4c-5,5-7.8,11.9-7.7,20.1c0.1,15.1,9.9,20.7,26.9,25.3l-4.3,4.4
		c-16.9-4.6-26.7-10.3-26.9-25.3C41.4,111.9,44.1,105,49.2,100"/>
	<path class="st0" d="M63.9,112.8c0.1,8.3,8,10.3,22.3,14.1c-1.4,1.5-2.9,2.9-4.3,4.4c-14.3-3.7-22.2-5.8-22.3-14.1
		c0.1,0.9,0.3,1.6,0.7,2.3c1.1-1.2,2.3-2.4,3.4-3.6c-1.1,1.2-2.3,2.4-3.4,3.6c-0.3-0.7-0.5-1.4-0.7-2.3
		C61,115.7,62.4,114.2,63.9,112.8c-0.2,1.2-0.3,2-0.3,3.1C63.6,114.8,63.7,113.9,63.9,112.8"/>
	<path class="st0" d="M60.5,114.2c0.6-0.6,1.1-1.3,1.7-1.9c0.2-0.2,0.5-0.5,0.7-0.5c0.6-0.2,0.7,0.2,1,1c-1.4,1.5-2.9,2.9-4.3,4.4
		C59.8,116,60.1,115.2,60.5,114.2c-0.4,1-0.7,1.9-1,3c0-3,0.9-5.5,2.7-7.3l4.3-4.4c-1.8,1.8-2.8,4.3-2.7,7.3c-0.3-0.8-0.4-1.3-1-1
		c-0.2,0.1-0.5,0.3-0.7,0.5C61.6,112.9,61.1,113.6,60.5,114.2"/>
	<path class="st11" d="M63,110.5c1.4-1.5,2.9-2.9,4.3-4.4c-1.5,1.5-2.5,3.7-2.5,6.6c0.1,7.2,6.6,9.2,21.5,13.1l-4.3,4.4
		c-14.9-3.9-21.5-5.9-21.5-13.1C60.5,114.2,61.4,112.1,63,110.5"/>
	<path class="st0" d="M116.6,154.6c0,4.6-0.9,12.7-7.2,19l-4.3,4.4c6.2-6.3,7.2-14.3,7.2-19v0C113.7,157.5,115.2,156,116.6,154.6
		L116.6,154.6 M112.9,158.8L112.9,158.8L112.9,158.8L112.9,158.8L112.9,158.8L112.9,158.8L112.9,158.8L112.9,158.8L112.9,158.8
		L112.9,158.8L112.9,158.8L112.9,158.8L112.9,158.8L112.9,158.8L112.9,158.8l0,0.1l0,0.1l0,0.1l0,0.2l0,0.2l0,0.2l0,0.2l0,0.2l0,0.2
		l0,0.2l0,0.2l0,0.3l0,0.2l0,0.2l0,0.2l0-0.2l0-0.2l0-0.2l0-0.3l0-0.2l0-0.2l0-0.2l0-0.2l0-0.2l0-0.2l0-0.2l0-0.2l0-0.1l0-0.1
		L112.9,158.8l0.2-0.2l0.2-0.2l0.2-0.2l0.2-0.2l0.2-0.2l0.4-0.4l0.6-0.6l0.2-0.2l0.4-0.4l0.2-0.2l0.2-0.2l0.2-0.2l0,0.1l0,0.1l0,0.3
		l0,0.2l0,0.2l0,0.2l0,0.2l0,0.2l0,0.2l0,0.2l0,0.2l0,0.2l0,0.2l0,0.2l0,0.2l0-0.2l0-0.2l0-0.2l0-0.2l0-0.2l0-0.2l0-0.2l0-0.2l0-0.2
		l0-0.2l0-0.2l0-0.2l0-0.3l0-0.1l0-0.1l-0.2,0.2l-0.2,0.2l-0.2,0.2l-0.4,0.4l-0.2,0.2l-0.4,0.4l-0.2,0.2l-0.4,0.4l-0.2,0.2l-0.2,0.2
		l-0.2,0.2l-0.2,0.2L112.9,158.8L112.9,158.8L112.9,158.8L112.9,158.8L112.9,158.8L112.9,158.8L112.9,158.8L112.9,158.8L112.9,158.8
		L112.9,158.8L112.9,158.8L112.9,158.8L112.9,158.8L112.9,158.8L112.9,158.8L112.9,158.8L112.9,158.8 M115.9,158.2l-0.2,0.2
		l-0.4,0.4l-0.2,0.2l-0.2,0.2l-0.8,0.8l-0.2,0.2l-1,1l-0.2,0.2l0.2-0.2l1-1l0.2-0.2l0.2-0.2l0.8-0.8l0.2-0.2l0.4-0.4L115.9,158.2"/>
	<path class="st0" d="M86.1,126.8c2.5,0.6,4.8,1.3,7,2c-1.4,1.5-2.9,2.9-4.3,4.4c0.8-1.8,1.5-3.3,2.2-4.9c-0.7,1.6-1.4,3.1-2.2,4.9
		c-2.2-0.7-4.5-1.3-7-2C83.2,129.7,84.7,128.3,86.1,126.8"/>
	<path class="st0" d="M88.7,133.2c1.4-1.5,2.9-2.9,4.3-4.4c-1.3,1.5-2.7,3-4,4.5C89,133.2,88.9,133.2,88.7,133.2"/>
	<path class="st0" d="M93.1,128.8c2.2,0.7,4.2,1.4,6.1,2.2c-1.4,1.5-2.9,2.9-4.3,4.4c-1.8-0.7-3.7-1.4-5.7-2
		C90.4,131.8,91.8,130.3,93.1,128.8"/>
	<path class="st0" d="M108.7,136.3c5.2,4.2,7.9,9.9,7.9,18.3c-1.4,1.5-2.9,2.9-4.3,4.4c-0.1-12.6-6.1-19.1-17.5-23.6
		c1.4-1.5,2.9-2.9,4.3-4.4C102.9,132.5,106.1,134.2,108.7,136.3c0.1,1.2,0.2,2.3,0.2,3.6C108.9,138.6,108.8,137.6,108.7,136.3
		 M107.3,140.5L107.3,140.5L107.3,140.5L107.3,140.5L107.3,140.5L107.3,140.5L107.3,140.5L107.3,140.5L107.3,140.5L107.3,140.5
		L107.3,140.5L107.3,140.5L107.3,140.5L107.3,140.5L107.3,140.5L107.3,140.5L107.3,140.5l0.2,0l0.1,0l0.1,0l0.1,0l0.1,0l0.1,0l0.1,0
		l0.1,0l0.1,0l0.1,0l0.1,0l0.1,0l0.1,0l0.1,0l0.1,0l-0.1,0l-0.1,0l-0.1,0l-0.1,0l-0.1,0l-0.1,0l-0.1,0l-0.1,0l-0.1,0l-0.1,0l-0.1,0
		l-0.1,0l-0.1,0l-0.1,0L107.3,140.5L107.3,140.5l0.1-0.3l0.1-0.2l0.1-0.2l0.1-0.2l0.1-0.2l0.1-0.2l0.1-0.2l0.1-0.2l0.1-0.2l0.1-0.2
		l0.1-0.2l0.1-0.2l0.1-0.2l0.1-0.2l0.1-0.2l0.1-0.2l-0.1,0.2l-0.1,0.2l-0.1,0.2l-0.1,0.2l-0.1,0.2l-0.1,0.2l-0.1,0.2l-0.1,0.2
		l-0.1,0.2l-0.1,0.2l-0.1,0.2l-0.1,0.2l-0.1,0.2l-0.1,0.2l-0.1,0.2L107.3,140.5l0-0.1l0,0l0,0l0,0l0,0l0,0l0,0l0,0l0,0l0,0l0,0l0,0
		l0,0l0,0l0,0l0,0l0,0l0,0l0,0l0,0l0,0l0,0l0,0l0,0l0,0l0,0l0,0l0,0l0,0l0,0l0,0L107.3,140.5L107.3,140.5L107.3,140.5L107.3,140.5
		L107.3,140.5L107.3,140.5L107.3,140.5L107.3,140.5L107.3,140.5L107.3,140.5L107.3,140.5L107.3,140.5L107.3,140.5L107.3,140.5
		L107.3,140.5L107.3,140.5 M108.3,140.8L108.3,140.8L108.3,140.8l0.1-0.1l0,0l0,0l0,0l0.1-0.1l0.1-0.1l0.1-0.1l0.1-0.1l0.1,0l0,0
		l0,0l0,0l0,0l0,0l0,0l0,0l0,0l0,0l0,0l-0.1,0l-0.1,0.1l-0.1,0.1l-0.1,0.1l-0.1,0.1l0,0l0,0l0,0L108.3,140.8L108.3,140.8
		L108.3,140.8 M111.8,141.7l-0.1,0.1l-0.1,0.1l-0.1,0.1l-0.3,0.3l-0.2,0.2l-0.2,0.2l-0.2,0.2l-0.2,0.2l-0.2,0.2l-0.2,0.2l-0.1,0.2
		l-0.1,0.1l-0.1,0.1l-0.1,0.1l-0.1,0.1l0.1-0.1l0.1-0.1l0.1-0.1l0.1-0.1l0.1-0.2l0.2-0.2l0.2-0.2l0.2-0.2l0.2-0.2l0.2-0.2l0.2-0.2
		l0.3-0.3l0.1-0.1l0.1-0.1L111.8,141.7l0.1,0.1l0.1,0.1l0.1,0.1l0.1,0.1l0.1,0.1l0.1,0.1l0.1,0.3l0.1,0.1l0.1,0.1l0.1,0.1l0.1,0.1
		l0.1,0.1l0.1,0.1l0,0.1l0,0.1l0-0.1l0-0.1l-0.1-0.1l-0.1-0.1l-0.1-0.1l-0.1-0.1l-0.1-0.1l-0.1-0.1l-0.1-0.3l-0.1-0.1l-0.1-0.1
		l-0.1-0.1l-0.1-0.1l-0.1-0.1L111.8,141.7 M110.9,145.8l0.1-0.1l0.1-0.1l0.1-0.1l0.1-0.1l0.2-0.2l0.1-0.1l0.1-0.1l0.1-0.1l0.1-0.1
		l0.1-0.1l0.2-0.2l0.1-0.1l0.2-0.2l-0.2,0.2l-0.1,0.1l-0.2,0.2l-0.1,0.1l-0.1,0.1l-0.1,0.1l-0.1,0.1l-0.1,0.1l-0.2,0.2l-0.1,0.1
		l-0.1,0.1l-0.1,0.1L110.9,145.8l-0.1-0.1l-0.2-0.2l-0.1-0.1l-0.1-0.1l-0.2-0.2l-0.1-0.1l-0.1-0.1l-0.2-0.2l-0.1-0.1l-0.1-0.1
		l-0.1-0.1l-0.1-0.1l-0.1-0.1l0.1,0.1l0.1,0.1l0.1,0.1l0.1,0.1l0.1,0.1l0.2,0.2l0.1,0.1l0.1,0.1l0.2,0.2l0.1,0.1l0.1,0.1l0.2,0.2
		L110.9,145.8 M113.9,154.7L113.9,154.7l0.1-0.1l0.1-0.1l0.1-0.1l0.1-0.1l0.1-0.1l0.1-0.1l0.1-0.1l0.1-0.1l0.1-0.1l0.1-0.1l0.1-0.1
		l0.1-0.1l0.1-0.1l0.1-0.1l-0.1,0.1l-0.1,0.1l-0.1,0.1l-0.1,0.1l-0.1,0.1l-0.1,0.1l-0.1,0.1l-0.1,0.1l-0.1,0.1l-0.1,0.1l-0.1,0.1
		l-0.1,0.1l-0.1,0.1L113.9,154.7L113.9,154.7L113.9,154.7l0-0.1l0-0.1l0-0.1l0-0.1l0-0.1l0-0.1l0-0.1l0-0.1l0-0.1l0-0.1l0-0.1l0-0.1
		l0-0.1l0-0.1l0-0.1l0.1-0.1l0.1-0.1l0.1-0.1l0.1-0.1l0.1-0.1l0.1-0.1l0.1-0.1l0.1-0.1l0.1-0.1l0.1-0.1l0.1-0.1l0.1-0.1l0.1-0.1
		l0.1-0.1l0.1-0.1l0.1-0.1l0,0.1l0,0.2l0,0.1l0,0.1l0,0.2v0.1l0,0.1v0.2l0,0.1v0.1v-0.1l0-0.1v-0.2l0-0.1v-0.1l0-0.2l0-0.1l0-0.1
		l0-0.2l0-0.1l-0.1,0.1l-0.1,0.1l-0.1,0.1l-0.1,0.1l-0.1,0.1l-0.1,0.1l-0.1,0.1l-0.1,0.1l-0.1,0.1l-0.1,0.1l-0.1,0.1l-0.1,0.1
		l-0.1,0.1l-0.1,0.1l-0.1,0.1l-0.1,0.1l0,0l0,0l0,0l0,0l0,0l0,0l0,0l0,0l0,0l0,0l0,0l0,0l0,0l0,0l0,0l0,0l0,0l0,0l0,0l0,0l0,0l0,0
		l0,0l0,0l0,0l0,0l0,0l0,0l0,0l0,0l0,0l0,0l0,0l0,0l0,0l0,0l0,0l0,0l0,0l0,0l0,0l0,0l0,0l0,0l0,0l0,0l0,0l0,0l0,0l0,0l0,0l0,0l0,0
		l0,0l0,0l0,0l0,0l0,0l0,0l0,0l0,0l0,0l0,0l0,0l0,0.1l0,0.1l0,0.1l0,0.1l0,0.1l0,0.1l0,0.1l0,0.1l0,0.1l0,0.1l0,0.1l0,0.1l0,0.1
		l0,0.1L113.9,154.7L113.9,154.7"/>
	<path class="st11" d="M110.4,174.1c-1.4,1.5-2.9,2.9-4.3,4.4c4.8-4.8,7.3-11.4,7.3-19.5c-0.1-17.3-11.6-23.7-31.3-28.7l4.3-4.4
		c19.7,5,31.1,11.4,31.3,28.7C117.7,162.7,115.2,169.3,110.4,174.1"/>
	<path class="st0" d="M53.5,95.6c6-6,15.1-9.4,26.4-9.4l-4.3,4.4c-11.3,0-20.4,3.4-26.4,9.4C50.5,98.7,52.2,96.9,53.5,95.6"/>
	<path class="st11" d="M62.3,109.8c1.4-1.5,2.9-2.9,4.3-4.4c2.6-2.6,6.9-4,12.9-4c10.9,0,22.3,6,25.6,9.1l-4.3,4.4
		c-3.4-3.1-14.7-9.1-25.6-9.1C69.2,105.9,64.8,107.2,62.3,109.8"/>
	<path class="st0" d="M75.5,90.6l4.3-4.4c14.9,0,26.8,6.3,32.8,10.3l-4.3,4.4C102.4,96.9,90.5,90.6,75.5,90.6"/>
	<path class="st0" d="M75.5,90.6c14.9,0,26.8,6.3,32.8,10.3l-7.6,14.1c-3.4-3.1-14.7-9.1-25.6-9.1c-10.1,0-15.7,4-15.6,11.3
		c0.1,8.3,8,10.3,22.3,14.1c19.7,5.1,30.4,11,30.5,27.8c0.1,8.4-3.2,27.9-34.7,27.9c-13.9,0-28.6-4.5-39.5-12l7.6-15
		c4.2,3.6,18.2,11.4,32.1,11.4c10.2,0,15.8-3.7,15.8-10.3c-0.1-8.6-9.6-11.2-24.1-15.1l-1.2-0.3c-16.9-4.6-26.7-10.3-26.9-25.3
		C41.3,102.2,54.7,90.6,75.5,90.6"/>
	<polyline class="st0" points="108.3,100.9 112.7,96.5 105.1,110.6 100.8,115 108.3,100.9 	"/>
	<path class="st11" d="M48.4,99.3c1.4-1.5,2.9-2.9,4.3-4.4c6.1-6.2,15.5-9.7,27.1-9.7c15.5,0,27.8,6.7,33.7,10.7l-4.3,4.4
		c-5.9-4-18.2-10.7-33.7-10.7C63.9,89.6,54.6,93.1,48.4,99.3"/>
	<path class="st11" d="M82,130.2c19.7,5,31.1,11.4,31.3,28.7c0.1,18.4-12.9,28.9-35.7,28.9c-14.5,0-29.2-4.5-40.5-12.5l-0.4-0.3
		l8.6-17l0.5,0.5c3.3,3.3,17.7,11.6,31.9,11.6c6.8,0,14.8-1.6,14.8-9.3c-0.1-7.9-9.3-10.4-23.3-14.1l-1.2-0.3
		c-22.9-6.2-27.5-14.7-27.6-26.3c-0.1-18.5,13.6-30.5,35.1-30.5c15.5,0,27.8,6.7,33.7,10.7l0.4,0.3l-8.6,16.1l-0.5-0.5
		c-2.4-2.7-14.4-9.3-25.4-9.3c-6.7,0-14.7,1.8-14.6,10.3C60.6,124.3,67.1,126.3,82,130.2 M77.6,186.8c31.5,0,34.7-19.5,34.7-27.9
		c-0.1-16.8-10.8-22.7-30.5-27.8c-14.3-3.7-22.2-5.8-22.3-14.1c-0.1-7.3,5.5-11.3,15.6-11.3c10.9,0,22.3,6,25.6,9.1l7.6-14.1
		c-6-4-17.9-10.3-32.8-10.3c-20.9,0-34.2,11.6-34.1,29.5c0.1,15.1,9.9,20.7,26.9,25.3l1.2,0.3c14.4,3.9,24,6.5,24.1,15.1
		c0.1,6.7-5.5,10.3-15.8,10.3c-13.9,0-27.9-7.8-32.1-11.4l-7.6,15C49,182.3,63.7,186.8,77.6,186.8"/>
	<polyline class="st11" points="109.3,100.3 113.6,96 114,96.2 109.6,100.6 109.3,100.3 	"/>
	<polyline class="st11" points="109.6,100.6 114,96.2 105.3,112.3 101,116.6 109.6,100.6 	"/>
	<path class="st0" d="M855.2,177.4c-4,0.3-6.2,0.3-8.5,0.1c1.8-0.9,2.7-1.4,3.7-2C851.8,176.2,853.4,176.8,855.2,177.4"/>
	<path class="st0" d="M852.3,219.3c-1.3,1.3-2.6,2.6-3.8,3.8C849.7,221.9,851,220.6,852.3,219.3L852.3,219.3"/>
	<polyline class="st11" points="826.1,213.6 830.5,209.2 822.9,224.2 818.5,228.6 826.1,213.6 	"/>
	<path class="st0" d="M835.3,212.5L835.3,212.5L835.3,212.5L835.3,212.5L835.3,212.5c-1.5,1.4-2.9,2.9-4.3,4.4
		C832.4,215.4,833.8,214,835.3,212.5"/>
	<polyline class="st11" points="825.9,211.9 830.2,207.6 830.7,208 826.3,212.4 825.9,211.9 	"/>
	<path class="st11" d="M818.5,228.6l4.3-4.4c10.9,7.5,25.6,12,39.5,12l-4.3,4.4C844.2,240.6,829.4,236.1,818.5,228.6"/>
	<path class="st0" d="M838.5,220.6L838.5,220.6c1.3-1.3,2.5-2.6,3.8-3.9C841.1,218,839.8,219.3,838.5,220.6"/>
	<path class="st0" d="M852.3,219.3c-1.4,1.5-2.9,2.9-4.3,4.4c-10-2.4-18.7-7.4-21.8-10.1l4.3-4.4c1,0.9,2.7,2.1,4.8,3.3
		c-1.4,1.5-2.9,2.9-4.3,4.4c1.4-1.5,2.9-2.9,4.3-4.4h0v0h0c2.1,1.2,4.7,2.5,7.6,3.7c-1.4,1.5-2.9,2.9-4.3,4.4l0,0
		c0.6-0.6,1.3-1.3,1.9-1.9c1.9-1.9,1.9-2,1.9-2c0.2-0.2,0.3-0.3,0.5-0.5C845.8,217.5,848.9,218.5,852.3,219.3"/>
	<path class="st0" d="M867.7,221.5c-0.9,0.9-1.8,1.8-2.7,2.8v0c-2,0.4-4.2,0.7-6.8,0.7c-3.5,0-7-0.5-10.3-1.3
		c1.4-1.5,2.9-2.9,4.3-4.4l0,0c3.3,0.8,6.8,1.3,10.3,1.3c-1.4,1.5-2.9,2.9-4.3,4.4l0,0c0.5-0.5,1-1,1.5-1.5c0.9-1,1.9-1.9,2.8-2.9h0
		c2.6,0,4.8-0.2,6.8-0.7C868.8,220.5,868.3,221,867.7,221.5"/>
	<polyline class="st11" points="848.7,199.2 853.1,194.9 854.2,195.2 849.9,199.5 848.7,199.2 	"/>
	<path class="st0" d="M869.3,219.9c2.8-0.6,5-1.7,6.5-3.3l-4.3,4.4c-0.5,0.5-1,0.9-1.6,1.3c0.6-0.6,1.2-1.2,1.7-1.8
		c-0.6,0.6-1.2,1.2-1.7,1.8c-1.3,0.9-3,1.5-4.9,2C866.4,222.8,867.9,221.4,869.3,219.9"/>
	<path class="st11" d="M875.1,216c-1.4,1.5-2.9,2.9-4.3,4.4c-2.8,2.9-8,3.6-12.6,3.6c-14.2,0-28.6-8.3-31.9-11.6l4.3-4.4
		c3.3,3.3,17.7,11.6,31.9,11.6C867.1,219.6,872.3,218.9,875.1,216"/>
	<path class="st11" d="M889.9,227.4c-1.4,1.5-2.9,2.9-4.3,4.4c-5,5-13.4,8.9-27.5,8.9l4.3-4.4C876.4,236.3,884.9,232.4,889.9,227.4"
		/>
	<path class="st0" d="M886.8,230.4L886.8,230.4c0.2-0.1,0.3-0.2,0.3-0.2l-1.5,1.5C886,231.3,886.4,230.8,886.8,230.4"/>
	<path class="st0" d="M840.8,175c0.3,0.3,1,1,2.2,1.5c1.1,0.5,2.1,0.7,3.7,0.9c-0.8,0.4-1.7,0.8-2.5,1.3
		C842.7,177.7,841.6,176.5,840.8,175"/>
	<path class="st11" d="M875.9,216.7c-1.4,1.5-2.9,2.9-4.3,4.4c1.6-1.6,2.5-3.8,2.5-6.4c-0.1-8.6-9.6-11.2-24.1-15.1l4.3-4.4
		c14.5,3.9,24,6.5,24.1,15.1C878.3,212.9,877.5,215,875.9,216.7"/>
	<path class="st0" d="M846.7,177.5c0,0-0.9-0.1-2.2-0.4c-0.7-0.2-1.3-0.4-1.6-0.5c-1.2-0.5-1.9-1.2-2.2-1.5
		c-0.6-1.2-0.9-2.5-0.9-4.1c1.4-1.5,2.9-2.9,4.3-4.4c0,4.3,2.1,6.9,6.1,8.9C848.8,176.5,846.7,177.5,846.7,177.5"/>
	<path class="st0" d="M847,159.3c-1.8,1.8-2.8,4.3-2.7,7.3c-1.4,1.5-2.9,2.9-4.3,4.4c0-1.5,0.2-2.9,0.7-4.2c0.7-1.5,1.6-2.6,2.9-4
		C844.6,161.7,846,160.3,847,159.3 M841.8,165.6l0.1-0.1l0.3-0.3l0.1-0.1l0.1-0.1l0.1-0.1l0.1-0.1l0.3-0.3l0.1-0.1l0.1-0.1l0.1-0.1
		l0.1-0.1l0.3-0.3l0.1-0.1l-0.1,0.1l-0.3,0.3l-0.1,0.1l-0.1,0.1l-0.1,0.1l-0.1,0.1l-0.3,0.3l-0.1,0.1l-0.1,0.1l-0.1,0.1l-0.1,0.1
		l-0.3,0.3L841.8,165.6 M841.8,165.5L841.8,165.5l0,0.1l0,0.1l-0.1,0.1l0,0.1l0,0.1l0,0.1l0,0.1l0,0.1l0,0.1l0,0.1l0,0.1l0,0.1
		l0,0.1l0,0.1l0-0.1l0-0.1l0-0.1l0-0.1l0-0.1l0-0.1l0-0.1l0-0.1l0-0.1l0-0.1l0-0.1l0.1-0.1l0-0.1L841.8,165.5L841.8,165.5
		 M843.6,164.5L843.6,164.5L843.6,164.5L843.6,164.5L843.6,164.5L843.6,164.5L843.6,164.5L843.6,164.5L843.6,164.5L843.6,164.5
		L843.6,164.5L843.6,164.5L843.6,164.5L843.6,164.5L843.6,164.5L843.6,164.5L843.6,164.5L843.6,164.5L843.6,164.5L843.6,164.5
		L843.6,164.5L843.6,164.5L843.6,164.5L843.6,164.5L843.6,164.5L843.6,164.5L843.6,164.5L843.6,164.5l0-0.1l0-0.1l0-0.1l0-0.1l0-0.1
		l0-0.1l0-0.1l0-0.1l0-0.1l0-0.1l0-0.1l0-0.1l0-0.1l0-0.1l0-0.1l0,0.1l0,0.1l0,0.1l0,0.1l0,0.1l0,0.1l0,0.1l0,0.1l0,0.1l0,0.1l0,0.1
		l0,0.1l0,0.1l0,0.1L843.6,164.5L843.6,164.5l-0.1,0.1l-0.1,0.1l-0.1,0.1l-0.1,0.1l-0.1,0.1l-0.1,0.1l-0.1,0.1l-0.1,0.1l-0.1,0.1
		l-0.1,0.1l-0.3,0.3l-0.1,0.1l-0.1,0.1l-0.1,0.1l-0.1,0.1l0.1-0.1l0.1-0.1l0.1-0.1l0.1-0.1l0.3-0.3l0.1-0.1l0.1-0.1l0.1-0.1l0.1-0.1
		l0.1-0.1l0.1-0.1l0.1-0.1l0.1-0.1l0.1-0.1L843.6,164.5"/>
	<path class="st11" d="M829.6,153.8c1.4-1.5,2.9-2.9,4.3-4.4c-5,5-7.8,11.9-7.7,20.1c0.1,15.1,9.9,20.7,26.9,25.3l-4.3,4.4
		c-16.9-4.6-26.7-10.3-26.9-25.3C821.8,165.7,824.6,158.8,829.6,153.8"/>
	<path class="st0" d="M855.2,177.4c3.1,1.1,6.9,2.1,11.4,3.2c-1.4,1.5-2.9,2.9-4.3,4.4c-8.2-2.1-14.3-3.7-18-6.3
		c0.4-0.2,0.8-0.4,1.2-0.6c0.4-0.2,0.8-0.4,1.1-0.6l0.2-0.1c0.1,0,0.3,0,0.5,0C849.8,177.8,853.6,177.5,855.2,177.4"/>
	<path class="st0" d="M829.6,153.8c0.3-0.3,0.6-0.6,0.9-0.9C830.3,153.1,830.3,153.1,829.6,153.8"/>
	<path class="st0" d="M830.2,153.2c0.1-0.1,0.2-0.2,0.3-0.3l0.1-0.1C830.4,153,830.3,153.1,830.2,153.2"/>
	<path class="st0" d="M843.6,162.7c-1.4,1.4-2.2,2.6-2.9,4c0.5-1.2,1.1-2.2,2-3.1C843,163.4,843.3,163,843.6,162.7"/>
	<path class="st11" d="M843.4,164.3c1.4-1.5,2.9-2.9,4.3-4.4c-1.5,1.5-2.5,3.7-2.5,6.6c0.1,7.2,6.6,9.2,21.5,13.1l-4.3,4.4
		c-14.9-3.9-21.5-5.9-21.5-13.1C840.9,168,841.9,165.8,843.4,164.3"/>
	<path class="st0" d="M889.9,227.4c-0.8,0.8-1.9,2-2.8,2.8c-0.1,0.1-0.2,0.1-0.3,0.2c5.1-6,6-13.3,5.9-17.6
		c-0.1-16.8-10.8-22.7-30.5-27.8c1.4-1.5,2.9-2.9,4.3-4.4c19.7,5,30.4,11,30.5,27.8C897.1,213,896.1,221.1,889.9,227.4"/>
	<path class="st11" d="M890.8,227.9c-1.4,1.5-2.9,2.9-4.3,4.4c4.8-4.8,7.3-11.4,7.2-19.5c-0.1-17.3-11.6-23.7-31.3-28.7l4.3-4.4
		c19.7,5.1,31.1,11.4,31.3,28.7C898.1,216.5,895.6,223.1,890.8,227.9"/>
	<path class="st0" d="M834,149.4c6-6,15.1-9.4,26.4-9.4l-4.3,4.4c-10.7,0-19.4,3-25.4,8.4c-0.1,0.1-0.2,0.2-0.4,0.3
		C831.4,152,832.8,150.5,834,149.4"/>
	<path class="st11" d="M842.7,163.6c1.4-1.5,2.9-2.9,4.3-4.4c2.6-2.6,6.9-4,12.9-4c10.9,0,22.3,6,25.6,9.1l-4.3,4.4
		c-3.4-3.1-14.7-9.1-25.6-9.1C849.6,159.7,845.3,161,842.7,163.6"/>
	<path class="st0" d="M856,144.4c14.9,0,26.8,6.3,32.8,10.3l-7.6,14.1c-3.4-3.1-14.7-9.1-25.6-9.1c-10.1,0-15.7,4-15.6,11.3
		c0.1,8.3,7.9,10.3,22.3,14.1c19.7,5,30.4,11,30.5,27.8c0.1,8.4-3.2,27.9-34.7,27.9c-13.9,0-28.6-4.5-39.5-12l7.6-15
		c4.2,3.6,18.2,11.4,32.1,11.4c10.2,0,15.8-3.7,15.8-10.3c-0.1-8.6-9.6-11.2-24.1-15.1l-1.2-0.3c-16.9-4.6-26.7-10.3-26.9-25.3
		C821.7,156,835.1,144.4,856,144.4"/>
	<polyline class="st0" points="888.8,154.7 893.1,150.3 885.5,164.4 881.2,168.8 888.8,154.7 	"/>
	<path class="st0" d="M856,144.4l4.3-4.4c14.9,0,26.8,6.3,32.8,10.3l-4.3,4.4C882.8,150.7,870.9,144.4,856,144.4"/>
	<path class="st11" d="M828.9,153.1c1.4-1.5,2.9-2.9,4.3-4.4c6.1-6.2,15.5-9.7,27.1-9.7c15.5,0,27.8,6.7,33.7,10.7l-4.3,4.4
		c-5.9-4-18.2-10.7-33.7-10.7C844.4,143.4,835,146.9,828.9,153.1"/>
	<path class="st11" d="M862.5,184c19.7,5.1,31.1,11.4,31.3,28.7c0.1,18.3-12.9,28.9-35.7,28.9c-14.5,0-29.2-4.5-40.5-12.5l-0.3-0.3
		l8.6-17l0.5,0.5c3.3,3.3,17.7,11.6,31.9,11.6c6.8,0,14.8-1.6,14.8-9.3c-0.1-7.9-9.3-10.4-23.3-14.1l-1.2-0.3
		c-22.9-6.2-27.5-14.7-27.6-26.3c-0.1-18.5,13.6-30.5,35.1-30.5c15.5,0,27.8,6.7,33.7,10.7l0.4,0.3l-8.6,16.1l-0.5-0.5
		c-2.4-2.7-14.4-9.3-25.4-9.3c-6.7,0-14.7,1.8-14.6,10.3C841,178.1,847.6,180.1,862.5,184 M858.1,240.6c31.5,0,34.7-19.5,34.7-27.9
		c-0.1-16.8-10.8-22.7-30.5-27.8c-14.3-3.7-22.2-5.8-22.3-14.1c-0.1-7.3,5.5-11.3,15.6-11.3c10.9,0,22.3,6,25.6,9.1l7.6-14.1
		c-6-4-17.9-10.3-32.8-10.3c-20.9,0-34.2,11.6-34.1,29.5c0.1,15.1,9.9,20.7,26.9,25.3l1.2,0.3c14.5,3.9,24,6.5,24.1,15.1
		c0.1,6.7-5.5,10.3-15.8,10.3c-13.9,0-27.9-7.8-32.1-11.4l-7.6,15C829.4,236.1,844.2,240.6,858.1,240.6"/>
	<polyline class="st11" points="889.7,154.1 894,149.8 894.4,150 890.1,154.4 889.7,154.1 	"/>
	<polyline class="st11" points="890.1,154.4 894.4,150 885.8,166.1 881.4,170.4 890.1,154.4 	"/>
	<polyline class="st11" points="301.2,393.6 305.5,389.3 371.8,389.3 367.4,393.6 301.2,393.6 	"/>
	<polyline class="st0" points="367.3,378.3 371.7,374 371.8,389.3 367.4,393.6 367.3,378.3 	"/>
	<polyline class="st0" points="318.6,378.3 323,374 371.7,374 367.3,378.3 318.6,378.3 	"/>
	<polyline class="st0" points="318,299.1 322.4,294.8 323,374 318.6,378.3 318,299.1 	"/>
	<polyline class="st11" points="319.6,377.3 324,373 372.6,373 368.3,377.3 319.6,377.3 	"/>
	<polyline class="st11" points="368.3,377.3 372.6,373 372.8,390.3 368.4,394.6 368.3,377.3 	"/>
	<polyline class="st11" points="300.5,299.1 304.8,294.8 305.5,389.3 301.2,393.6 300.5,299.1 	"/>
	<polyline class="st0" points="300.5,299.1 304.8,294.8 322.4,294.8 318,299.1 300.5,299.1 	"/>
	<path class="st11" d="M319.6,377.3h48.7l0.1,17.3h-68.2l-0.7-96.5H319L319.6,377.3 M367.4,393.6l-0.1-15.3h-48.7l-0.6-79.2h-17.6
		l0.7,94.5H367.4"/>
	<polyline class="st0" points="318,299.1 318.6,378.3 367.3,378.3 367.4,393.6 301.2,393.6 300.5,299.1 318,299.1 	"/>
	<polyline class="st11" points="299.5,298.1 303.8,293.8 323.4,293.8 319,298.1 299.5,298.1 	"/>
	<polyline class="st11" points="319,298.1 323.4,293.8 324,373 319.6,377.3 319,298.1 	"/>
	<polyline class="st11" points="511,241 515.4,236.7 581.6,236.7 577.3,241 511,241 	"/>
	<polyline class="st0" points="577.2,225.8 581.5,221.4 581.6,236.7 577.3,241 577.2,225.8 	"/>
	<polyline class="st0" points="528.5,225.8 532.8,221.4 581.5,221.4 577.2,225.8 528.5,225.8 	"/>
	<polyline class="st0" points="527.9,146.6 532.2,142.2 532.8,221.4 528.5,225.8 527.9,146.6 	"/>
	<polyline class="st11" points="529.5,224.8 533.8,220.4 582.5,220.4 578.2,224.8 529.5,224.8 	"/>
	<polyline class="st11" points="578.2,224.8 582.5,220.4 582.6,237.7 578.3,242 578.2,224.8 	"/>
	<polyline class="st11" points="510.3,146.6 514.7,142.2 515.4,236.7 511,241 510.3,146.6 	"/>
	<polyline class="st0" points="510.3,146.6 514.7,142.2 532.2,142.2 527.9,146.6 510.3,146.6 	"/>
	<path class="st11" d="M529.5,224.8h48.7l0.1,17.3h-68.2l-0.7-96.5h19.6L529.5,224.8 M577.3,241l-0.1-15.3h-48.7l-0.6-79.2h-17.6
		L511,241H577.3"/>
	<polyline class="st0" points="527.9,146.6 528.5,225.8 577.2,225.8 577.3,241 511,241 510.3,146.6 527.9,146.6 	"/>
	<polyline class="st11" points="509.3,145.6 513.7,141.2 533.2,141.2 528.9,145.6 509.3,145.6 	"/>
	<polyline class="st11" points="528.9,145.6 533.2,141.2 533.8,220.4 529.5,224.8 528.9,145.6 	"/>
	<polyline class="st11" points="445.5,446.4 449.9,442.1 468.4,442.1 464.1,446.4 445.5,446.4 	"/>
	<polyline class="st0" points="472.7,422.6 477,418.3 468.4,442.1 464.1,446.4 472.7,422.6 	"/>
	<polyline class="st11" points="473.4,423.6 477.7,419.2 469.1,443.1 464.8,447.4 473.4,423.6 	"/>
	<polyline class="st11" points="507,422.9 511.3,418.6 520.1,442.1 515.8,446.4 507,422.9 	"/>
	<polyline class="st11" points="506.8,422.6 511.2,418.3 511.3,418.6 507,422.9 506.8,422.6 	"/>
	<polyline class="st11" points="472.7,422.6 477,418.3 511.2,418.3 506.8,422.6 472.7,422.6 	"/>
	<polyline class="st11" points="515.8,446.4 520.1,442.1 538.7,442.1 534.3,446.4 515.8,446.4 	"/>
	<polyline class="st0" points="475.3,410.6 479.6,406.2 508.1,406.2 503.7,410.6 475.3,410.6 	"/>
	<polyline class="st11" points="476.7,409.6 481,405.2 506.7,405.2 502.3,409.6 476.7,409.6 	"/>
	<polyline class="st0" points="489.4,370 493.8,365.6 479.6,406.2 475.3,410.6 489.4,370 	"/>
	<polyline class="st11" points="489.4,373 493.8,368.6 481,405.2 476.7,409.6 489.4,373 	"/>
	<polyline class="st11" points="489.4,370 493.8,365.6 508.1,406.2 503.7,410.6 489.4,370 	"/>
	<path class="st11" d="M475.3,410.6l14.1-40.6l14.3,40.6H475.3 M476.7,409.6h25.6L489.4,373L476.7,409.6"/>
	<polyline class="st11" points="482.1,351.9 486.4,347.6 449.9,442.1 445.5,446.4 482.1,351.9 	"/>
	<path class="st0" d="M496.5,351.9l37.8,94.5h-18.6l-8.8-23.5l-0.1-0.3h-34.2l-8.6,23.8h-18.6l36.5-94.5H496.5 M475.3,410.6h28.4
		L489.4,370L475.3,410.6"/>
	<polyline class="st0" points="496.5,351.9 500.8,347.6 538.7,442.1 534.3,446.4 496.5,351.9 	"/>
	<polyline class="st0" points="482.1,351.9 486.4,347.6 500.8,347.6 496.5,351.9 482.1,351.9 	"/>
	<polyline class="st11" points="497.3,351.2 501.6,346.9 540.1,443.1 535.8,447.4 497.3,351.2 	"/>
	<polyline class="st11" points="497.1,350.9 501.5,346.6 501.6,346.9 497.3,351.2 497.1,350.9 	"/>
	<polyline class="st11" points="481.4,350.9 485.7,346.6 501.5,346.6 497.1,350.9 481.4,350.9 	"/>
	<path class="st11" d="M497.3,351.2l38.5,96.2h-20.7l-0.1-0.3l-8.8-23.5h-32.8l-8.6,23.8h-20.7l37.3-96.5h15.7L497.3,351.2
		 M507,422.9l8.8,23.5h18.6l-37.8-94.5h-14.4l-36.5,94.5h18.6l8.6-23.8h34.2L507,422.9"/>
	<polyline class="st11" points="612,393.6 616.3,389.3 662,389.3 657.6,393.6 612,393.6 	"/>
	<polyline class="st0" points="629.2,352.7 633.6,348.4 633.8,374.5 629.4,378.9 629.2,352.7 	"/>
	<polyline class="st11" points="630.3,353.7 634.6,349.4 634.8,373.5 630.4,377.9 630.3,353.7 	"/>
	<polyline class="st0" points="629.4,378.9 633.8,374.5 661.9,374.5 657.5,378.9 629.4,378.9 	"/>
	<polyline class="st11" points="630.4,377.9 634.8,373.5 661.8,373.5 657.5,377.9 630.4,377.9 	"/>
	<path class="st0" d="M670.6,370.8c-0.1,0.1-0.3,0.3-0.4,0.4c-1.3,1.3-2.6,2.6-3.9,3.9c-2.3,2.3-5.4,3.7-8.8,3.7l4.3-4.4
		C665.3,374.5,668.4,373.1,670.6,370.8"/>
	<path class="st11" d="M669.9,370.1c-1.4,1.5-2.9,2.9-4.3,4.4c-2.1,2.1-4.9,3.4-8.1,3.4l4.3-4.4C665,373.5,667.8,372.2,669.9,370.1"
		/>
	<path class="st11" d="M686,380.7c-1.4,1.5-2.9,2.9-4.3,4.4c-5.8,5.8-14.9,8.5-24,8.5l4.3-4.4C671.1,389.3,680.2,386.5,686,380.7"/>
	<polyline class="st11" points="629.2,352.7 633.6,348.4 662.6,348.4 658.3,352.7 629.2,352.7 	"/>
	<path class="st11" d="M670.6,370.8c-1.4,1.5-2.9,2.9-4.3,4.4c2.3-2.3,3.8-5.6,3.7-9.2c-0.1-7.4-5.2-13.3-11.8-13.3l4.3-4.4
		c6.5,0,11.7,5.8,11.8,13.3C674.4,365.3,673,368.5,670.6,370.8"/>
	<polyline class="st11" points="611.3,299.1 615.6,294.8 616.3,389.3 612,393.6 611.3,299.1 	"/>
	<polyline class="st0" points="629,314 633.3,309.6 633.5,334.7 629.1,339.1 629,314 	"/>
	<polyline class="st11" points="630,315 634.3,310.6 634.5,333.7 630.1,338.1 630,315 	"/>
	<polyline class="st0" points="629.1,339.1 633.5,334.7 658.7,334.7 654.4,339.1 629.1,339.1 	"/>
	<polyline class="st11" points="630.1,338.1 634.5,333.7 658.7,333.7 654.4,338.1 630.1,338.1 	"/>
	<path class="st0" d="M692.1,365.1c0.1,6.6-2.3,11.8-6.1,15.6l-4.3,4.4c3.8-3.8,6.2-9,6.1-15.6c0.3,0.6,0.6,1.5,1.2,1.7
		c0.6,0.2,1.1-0.2,1.7-0.7c-0.5,0.5-1.1,0.9-1.7,0.7c-0.6-0.2-0.9-1.1-1.2-1.7c0-1.5-0.1-2.9-0.3-4.3c1.4-1.5,2.9-2.9,4.3-4.4
		C692,362.2,692.1,363.7,692.1,365.1c-0.4,2-0.9,3.7-1.5,5.6C691.2,368.8,691.7,367.2,692.1,365.1"/>
	<polyline class="st0" points="668.9,345.3 673.2,340.9 674.5,341.3 670.2,345.6 668.9,345.3 	"/>
	<polyline class="st11" points="668.9,345.3 673.2,340.9 674.4,340.3 670.1,344.7 668.9,345.3 	"/>
	<path class="st0" d="M658.7,334.7c3.3,0,6.2-1.2,8.2-3.2l-4.3,4.4c-2,2.1-4.9,3.2-8.2,3.2C655.7,337.8,657.4,336,658.7,334.7"/>
	<path class="st11" d="M666.2,330.7c-1.4,1.5-2.9,2.9-4.3,4.4c-1.9,1.9-4.5,3-7.5,3l4.3-4.4C661.8,333.7,664.3,332.6,666.2,330.7"/>
	<path class="st0" d="M674.5,341.3c6.9,2,12,6.2,14.9,12c-1.4,1.5-2.9,2.9-4.3,4.4c-2.9-5.7-8-9.9-14.9-12
		C671.5,344.3,673.2,342.6,674.5,341.3"/>
	<path class="st0" d="M691.7,360.4c0,0.1,0,0.3,0.1,0.4c-1.4,1.5-2.9,2.9-4.3,4.4C688.8,363.6,690.3,362,691.7,360.4"/>
	<path class="st0" d="M690.8,356.9c0.4,1.1,0.6,2.3,0.8,3.6c-1.4,1.6-2.9,3.2-4.3,4.8c-0.2-1.4-0.5-2.7-0.9-4
		C688,359.8,689.4,358.3,690.8,356.9"/>
	<path class="st0" d="M690.8,356.8L690.8,356.8c-1.4,1.5-2.9,2.9-4.3,4.4c-0.4-1.3-0.9-2.5-1.5-3.6c1.4-1.5,2.9-2.9,4.3-4.4
		C690,354.4,690.5,355.6,690.8,356.8c-1.4,1.4-2.9,2.9-4.3,4.3C688,359.7,689.4,358.3,690.8,356.8"/>
	<path class="st11" d="M686.7,381.4c-1.4,1.5-2.9,2.9-4.3,4.4c4-4,6.4-9.4,6.4-16.3c-0.1-11.9-6.3-20.8-17.1-24.4l4.3-4.4
		c10.8,3.7,17,12.5,17.1,24.4C693.1,372.1,690.7,377.5,686.7,381.4"/>
	<path class="st11" d="M680.9,335.9c-1.4,1.5-2.9,2.9-4.3,4.4c-1.8,1.9-4,3.4-6.4,4.4l4.3-4.4C676.9,339.3,679,337.8,680.9,335.9"/>
	<path class="st11" d="M666.9,331.5c-1.4,1.5-2.9,2.9-4.3,4.4c2.2-2.2,3.5-5.5,3.5-9.4l4.3-4.4C670.5,326,669.2,329.2,666.9,331.5"
		/>
	<polyline class="st11" points="629,314 633.3,309.6 659.3,309.6 655,314 629,314 	"/>
	<path class="st11" d="M655,314l4.3-4.4c6.5,0,11,5.1,11.1,12.5l-4.3,4.4C666,319.1,661.5,314,655,314"/>
	<path class="st0" d="M685.3,329.6c-1.1,2.4-2.6,4.5-4.4,6.3l-4.3,4.4c2.8-2.8,4.8-6.4,5.9-10.4c1.4-1.5,2.9-2.9,4.3-4.4
		c-0.6,1.2-1.2,2.3-1.9,3.4c0.7-1.2,1.3-2.2,1.9-3.4C686.4,327,685.9,328.3,685.3,329.6c-1.3,1.3-2.4,2.3-4,3.5
		c0.1-0.1,0.2-0.2,0.3-0.3c-0.1,0.1-0.2,0.2-0.3,0.3C682.9,331.8,684,330.9,685.3,329.6 M684.9,329l-0.2,0.2l-0.2,0.2l-0.2,0.2
		l-0.2,0.2l-0.2,0.2l-0.2,0.2l-0.2,0.2l-0.4,0.5l-0.2,0.2l-0.2,0.2l-0.2,0.2l-0.2,0.2l-0.2,0.2l-0.2,0.2l-0.2,0.2l0.2-0.2l0.2-0.2
		l0.2-0.2l0.2-0.2l0.2-0.2l0.2-0.2l0.2-0.2l0.4-0.5l0.2-0.2l0.2-0.2l0.2-0.2l0.2-0.2l0.2-0.2l0.2-0.2L684.9,329"/>
	<path class="st0" d="M685.8,308.6c0.6,1.4,1,2.9,1.4,4.5c-1.4,1.5-2.9,3-4.3,4.5c-0.3-1.7-0.8-3.2-1.4-4.7c0.4-1.5,0.7-2.8,1.1-4.3
		c-0.4,1.5-0.7,2.8-1.1,4.3c-3.6-8.8-11.7-13.8-19.5-13.8l4.3-4.4C674.1,294.8,682.2,299.8,685.8,308.6l-0.1,0v0v0
		c-0.7-0.1-1.4-0.3-2.1-0.3c-0.6,0-0.9,0.2-1,0.3c0.2-0.1,0.4-0.3,1-0.3c0.7,0,1.4,0.2,2.1,0.3c-1.4,1.4-2.8,2.8-4.1,4.2
		c1.4-1.4,2.8-2.8,4.1-4.2L685.8,308.6"/>
	<path class="st0" d="M670.2,345.6c11.1,3.3,17.5,12,17.6,23.9c0.1,16.7-15,24.1-30.1,24.1H612l-0.7-94.5h50.6
		c10.5,0,21.4,8.9,21.5,23.8c0.1,9.6-5.1,18.2-13.2,21.7l-1.2,0.5L670.2,345.6 M657.5,378.9c6.9,0,12.6-5.8,12.5-12.9
		c-0.1-7.4-5.2-13.3-11.8-13.3h-29l0.2,26.1H657.5 M629,314l0.2,25.1h25.2c6.9,0,11.8-5.2,11.7-12.6c-0.1-7.3-4.6-12.5-11.1-12.5
		H629"/>
	<path class="st11" d="M658.3,352.7c6.5,0,11.7,5.8,11.8,13.3c0.1,7.1-5.6,12.9-12.5,12.9h-28.1l-0.2-26.1H658.3 M657.5,377.9
		c6.4,0,11.6-5.3,11.5-11.9c-0.1-6.9-4.8-12.3-10.8-12.3h-28l0.2,24.2H657.5"/>
	<path class="st11" d="M666.1,326.5c0.1,7.4-4.8,12.6-11.7,12.6h-25.2L629,314h26C661.5,314,666,319.1,666.1,326.5 M630,315
		l0.2,23.1h24.2c6.4,0,10.8-4.8,10.7-11.6c-0.1-6.8-4.2-11.5-10.1-11.5H630"/>
	<path class="st0" d="M686.8,325.5L686.8,325.5c-1.5,1.5-2.9,2.9-4.3,4.4c0.3-1.1,0.5-2.2,0.7-3.4c1.4-1.5,2.9-2.9,4.3-4.4
		C687.3,323.3,687.1,324.4,686.8,325.5c-1.4,1.4-2.9,2.9-4.3,4.3C683.9,328.4,685.4,327,686.8,325.5"/>
	<polyline class="st0" points="611.3,299.1 615.6,294.8 666.2,294.8 661.9,299.1 611.3,299.1 	"/>
	<polyline class="st11" points="610.3,298.1 614.6,293.8 666.2,293.8 661.9,298.1 610.3,298.1 	"/>
	<path class="st0" d="M687.7,318.6c0,1.2-0.1,2.4-0.2,3.5c-1.4,1.5-2.9,2.9-4.3,4.4c0.2-1.2,0.2-2.3,0.2-3.5c0-1.9-0.2-3.6-0.5-5.3
		c1.4-1.5,2.9-2.9,4.3-4.4C687.5,315,687.7,316.7,687.7,318.6c-1.4,1.4-2.9,2.8-4.3,4.3C684.8,321.4,686.3,320,687.7,318.6
		L687.7,318.6"/>
	<path class="st0" d="M687.1,313.1l0,0.2c-1.4,1.5-2.9,2.9-4.3,4.4C684.3,316.1,685.7,314.6,687.1,313.1"/>
	<path class="st11" d="M681.6,336.6c-1.4,1.5-2.9,2.9-4.3,4.4c4.5-4.5,7.2-11,7.1-18c0-6.2-2.3-12.4-6.1-17
		c-4.2-5.1-10-7.9-16.4-7.9l4.3-4.4c6.4,0,12.2,2.8,16.4,7.9c3.8,4.6,6.1,10.8,6.1,17C688.7,325.6,686.1,332.1,681.6,336.6"/>
	<path class="st11" d="M671.7,345.1c10.8,3.7,17,12.5,17.1,24.4c0.1,17.3-15.5,25.1-31.1,25.1H611l-0.7-96.5h51.6
		c6.4,0,12.2,2.8,16.4,7.9c3.8,4.6,6.1,10.8,6.1,17C684.4,332.5,679.5,341.1,671.7,345.1 M657.6,393.6c15.1,0,30.2-7.5,30.1-24.1
		c-0.1-11.9-6.5-20.6-17.6-23.9l-1.3-0.4l1.2-0.5c8.1-3.6,13.3-12.1,13.2-21.7c-0.1-14.9-11-23.8-21.5-23.8h-50.6l0.7,94.5H657.6"/>
	<polyline class="st11" points="673,185.2 677.3,180.9 743.6,180.9 739.2,185.2 673,185.2 	"/>
	<polyline class="st0" points="739.1,170 743.5,165.6 743.6,180.9 739.2,185.2 739.1,170 	"/>
	<polyline class="st0" points="690.4,170 694.8,165.6 743.5,165.6 739.1,170 690.4,170 	"/>
	<polyline class="st0" points="689.8,90.8 694.2,86.4 694.8,165.6 690.4,170 689.8,90.8 	"/>
	<polyline class="st11" points="691.4,169 695.8,164.6 744.5,164.6 740.1,169 691.4,169 	"/>
	<polyline class="st11" points="740.1,169 744.5,164.6 744.6,181.9 740.2,186.2 740.1,169 	"/>
	<polyline class="st11" points="672.3,90.8 676.6,86.4 677.3,180.9 673,185.2 672.3,90.8 	"/>
	<polyline class="st0" points="672.3,90.8 676.6,86.4 694.2,86.4 689.8,90.8 672.3,90.8 	"/>
	<path class="st11" d="M691.4,169h48.7l0.1,17.3H672l-0.7-96.5h19.6L691.4,169 M739.2,185.2l-0.1-15.3h-48.7l-0.6-79.2h-17.6
		l0.7,94.5H739.2"/>
	<polyline class="st0" points="689.8,90.8 690.4,170 739.1,170 739.2,185.2 673,185.2 672.3,90.8 689.8,90.8 	"/>
	<polyline class="st11" points="671.3,89.8 675.6,85.4 695.2,85.4 690.8,89.8 671.3,89.8 	"/>
	<polyline class="st11" points="690.8,89.8 695.2,85.4 695.8,164.6 691.4,169 690.8,89.8 	"/>
	<polyline class="st11" points="377.1,192.6 381.4,188.3 399,188.3 394.7,192.6 377.1,192.6 	"/>
	<polyline class="st11" points="376.4,98.3 380.7,93.9 381.4,188.3 377.1,192.6 376.4,98.3 	"/>
	<polyline class="st0" points="376.4,98.3 380.7,93.9 398.3,93.9 393.9,98.3 376.4,98.3 	"/>
	<polyline class="st0" points="393.9,98.3 394.7,192.6 377.1,192.6 376.4,98.3 393.9,98.3 	"/>
	<polyline class="st0" points="393.9,98.3 398.3,93.9 399,188.3 394.7,192.6 393.9,98.3 	"/>
	<polyline class="st11" points="394.9,97.3 399.3,92.9 400,189.3 395.7,193.6 394.9,97.3 	"/>
	<polyline class="st11" points="375.4,97.3 379.7,92.9 399.3,92.9 394.9,97.3 375.4,97.3 	"/>
	<path class="st11" d="M375.4,97.3h19.6l0.7,96.3h-19.6L375.4,97.3 M394.7,192.6l-0.7-94.3h-17.6l0.7,94.3H394.7"/>
	<path class="st12" d="M669.3,586.2c-31.4,0-57-25.8-57-57.9c0-31.9,25.6-57.9,57-57.9c31.4,0,57,26,57,57.9
		C726.3,560.4,700.7,586.2,669.3,586.2 M669.3,473.3c-30,0-54.4,24.7-54.4,55.1c0,30.5,24.3,55.1,54.4,55.1
		c30,0,54.4-24.7,54.4-55.1C723.6,498.1,699.3,473.3,669.3,473.3z M717.6,544.9c0,0.1-0.1,0.1-0.3,0.1c-0.1,0-0.2-0.1-0.2-0.2
		c0-0.1,1.9-5.8,1.9-12.3c0-7.1-2.9-11.4-6.5-11.4c-2.2,0-3.8,1.6-3.8,4c0,4.3,5.2,4.7,5.2,14.1c0,3.8-0.8,7.5-2.1,11.5
		c-5.8,20-24.5,29.3-42.7,29.3c-8.4,0-14.3-1.7-16.1-2.6c-0.1,0-0.1-0.2-0.1-0.3c0-0.1,0.2-0.2,0.2-0.2c0.7,0.3,5.8,1.9,12.2,1.9
		c7,0,11.1-2.9,11.1-6.4c0-2.2-1.7-4-3.9-4c-4.3,0-4.6,5.4-13.8,5.4c-3.9,0-7.4-0.8-11.5-2.1c-19.6-6.1-28.9-24.8-28.9-43.4
		c0-9.1,2.5-16.3,2.6-16.3c0-0.1,0.1-0.1,0.3-0.1c0.1,0.1,0.2,0.2,0.2,0.2c-0.2,0.7-1.9,5.9-1.9,12.3c0,7.1,2.8,11.2,6.5,11.2
		c2.1,0,3.8-1.6,3.8-3.8c0-4.3-5.2-4.8-5.2-14.1c0-4,0.8-7.5,2.1-11.7c6-19.9,24.5-29.2,42.7-29.3c8.4-0.1,15.8,2.5,16.1,2.7
		c0,0,0.1,0.2,0,0.3c-0.1,0.2-0.2,0.2-0.2,0.2c-0.1,0-4.9-2-12.2-2c-6.8,0-11.1,2.9-11.1,6.6c0,2.1,1.6,3.8,3.9,3.8
		c4.3,0,4.6-5.3,13.7-5.3c3.9,0,7.4,0.8,11.5,2.1c19.8,6.1,28.7,25,28.9,43.3C720.2,537.7,717.6,544.8,717.6,544.9z M690.5,531.1
		c-5.4,0-9.5,4-9.5,8.8c0,4,2.4,7.2,5.5,7.2c1.1,0,2.2-0.6,2.2-2.1c0-2.1-2.7-2.6-2.5-5.7c0.1-2.1,2-3.4,3.9-3.4
		c3.8,0,5.6,3.7,5.6,7.6c-0.2,5.9-4.5,10.1-9.5,10.1c-6.6,0-10.9-6.4-10.9-13.3c0-10.3,6.6-14.3,10.1-15.2c0,0,9.1,1.6,8.8-2.4
		c-0.1-1.8-2.7-2.5-4.6-2.5c-2.1-0.1-4.2,0.7-4.2,0.7c-1.1-0.6-1.9-1.7-2.3-3c6.5-5,11.1-9.8,11.1-15.2c0-2.9-1.9-5.5-5.5-5.5
		c-6.5,0-11.4,8.3-11.4,15.9c0,1.3,0,2.6,0.3,3.7c-4.1,3-7.2,4.9-12.7,8.3c0-0.7,0.1-2.5,0.6-4.9c1.9-2.1,4.5-5.2,4.5-7.6
		c0-1.1-0.6-2.1-1.9-2.1c-3.2,0-5.5,4.8-6.2,8.2c-1.4,1.8-4.3,4-6.6,4c-1.9,0-2.5-1.8-2.7-2.4c6-2.1,13.4-10.4,13.4-18
		c0-1.6-0.6-5.1-5.4-5.1c-7.1,0-13.1,10.7-13.1,19.1c-2.5,0-3.5-2.7-3.5-4.8c0-2.1,0.8-4.2,0.8-4.8c0-0.6-0.3-1.4-1.3-1.4
		c-2.4,0-3.8,3.2-3.8,6.9c0.2,5.1,3.5,8.3,7.9,8.7c0.6,3,3.3,5.9,6.6,5.9c2.1,0,4.6-0.6,6.3-2.2c-0.2,1.1-0.3,2.1-0.5,3.1
		c-6.9,3.7-12,6.3-16.6,10.4c-3.6,3.4-5.7,7.9-5.7,11.4c0,4.8,3,9.3,9.2,9.3c7.3,0,12.8-5.9,15.5-14.1c1.3-3.8,1.8-9.4,2.1-14.6
		c7.3-4.2,10.7-6.6,14.5-9.3c0.5,0.8,1,1.4,1.6,1.9c-3.3,1.8-11.2,6.7-11.2,18.4c0,8.3,5.5,17.6,16.4,17.6c9,0,15.2-7.5,15.2-14.7
		C701,537.2,697.4,531.1,690.5,531.1z M647,553.5c-2.4,0.1-3.9-1.4-3.9-4c0-6.9,9.4-13.5,16.5-17C658.3,542.2,655.1,553.2,647,553.5
		z M652.2,515.7c0-5.3,5.1-15.3,8.3-14.3C664.2,502.7,657.4,512.8,652.2,515.7z M682.1,513.3c0-6.6,4.4-13,6.8-11.7
		C691.6,503,686.8,509.1,682.1,513.3z"/>
	<path class="st12" d="M761.3,536.2c0,1.5-0.9,2.5-2.3,3.2c-1.7,0.9-4.1,1.1-5.7,1.1c-6.8,0-10.8-5-10.8-12.4
		c0-8.9,5.8-12.7,11.1-12.7c2.7,0,5.2,0.9,6.4,1.9c0.6,0.4,0.8,0.8,0.8,1.2c0,0.6-0.6,1.4-1.3,1.4c-0.4,0-0.6-0.2-1.2-0.5
		c-1.4-0.9-3-1.5-4.9-1.5c-4.4,0-8.4,3.3-8.4,10.2c0,6,3,9.9,8.3,9.9c1.2,0,3.2-0.2,4.3-0.9c0.5-0.3,0.8-0.8,0.8-1.3v-6h-5
		c-0.9,0-1.3-0.4-1.3-1.3c0-0.8,0.4-1.3,1.3-1.3h6.4c0.8,0,1.3,0.5,1.3,1.3V536.2"/>
	<path class="st12" d="M778.7,540.2h-9.6c-1.6,0-2.5-0.9-2.5-2.5v-19c0-1.7,0.8-2.9,2.8-2.9h9.4c1,0,1.3,0.4,1.3,1.3
		c0,0.9-0.3,1.3-1.3,1.3h-8.9c-0.4,0-0.6,0.3-0.6,0.7v7.1h8.4c1,0,1.3,0.5,1.3,1.3c0,0.9-0.4,1.3-1.3,1.3h-8.4v8.3
		c0,0.3,0.1,0.6,0.5,0.6h9c1,0,1.4,0.4,1.4,1.3C780.1,539.8,779.7,540.2,778.7,540.2"/>
	<path class="st12" d="M804.2,518.3h-8.9c-0.4,0-0.6,0.4-0.6,0.8v7.1h7.9c1,0,1.3,0.4,1.3,1.3c0,0.9-0.4,1.3-1.3,1.3h-7.9V539
		c0,0.9-0.4,1.3-1.3,1.3c-0.9,0-1.3-0.4-1.3-1.3v-20.4c0-1.7,0.8-2.9,2.8-2.9h9.3c1,0,1.4,0.4,1.4,1.3
		C805.6,517.9,805.2,518.3,804.2,518.3"/>
	<path class="st12" d="M815.6,540.5c-4.7,0-8-3.8-8-9.5c0-5.9,3.3-9.5,8-9.5c4.9,0,8.1,3.7,8.1,9.5
		C823.6,536.8,820.3,540.5,815.6,540.5 M815.6,524c-3.4,0-5.4,2.7-5.4,7c0,4.1,2.1,7,5.4,7c3.3,0,5.5-2.8,5.5-7
		C821,526.7,819,524,815.6,524z"/>
	<path class="st12" d="M840.3,540.3c-0.9,0-1.3-0.4-1.3-1.2v-1.7c-1.1,1.9-3,3.2-5.6,3.2c-4.2,0-6.1-3-6.1-6.8v-10.8
		c0-0.9,0.4-1.2,1.3-1.2c0.8,0,1.3,0.4,1.3,1.2v10.6c0,2.5,1.3,4.6,4,4.6c3.2,0,5.1-2.3,5.1-6v-9.1c0-0.9,0.5-1.2,1.3-1.2
		c0.8,0,1.3,0.4,1.3,1.2v16.2C841.6,540,841.2,540.3,840.3,540.3"/>
	<path class="st12" d="M859.5,540.3c-0.9,0-1.3-0.4-1.3-1.2v-10.4c0-2.2-0.7-4.7-4-4.7c-2.8,0-5.1,2-5.1,6.1v9
		c0,0.9-0.5,1.2-1.3,1.2c-0.9,0-1.3-0.4-1.3-1.2v-16.2c0-0.9,0.5-1.2,1.3-1.2c0.8,0,1.3,0.4,1.3,1.2v1.7c1-1.8,2.9-3.2,5.6-3.2
		c4.4,0,6.2,3,6.2,6.6v11C860.8,540,860.4,540.3,859.5,540.3"/>
	<path class="st12" d="M878.5,540.3c-0.8,0-1.3-0.3-1.3-1.2v-1.3c-0.7,1.3-2.5,2.7-5.1,2.7c-4.8,0-7.6-3.6-7.6-9.4
		c0-5.7,3-9.6,7.7-9.6c2.6,0,4.2,1.4,5,2.7v-9.7c0-0.9,0.5-1.2,1.3-1.2c0.8,0,1.3,0.4,1.3,1.2v24.6
		C879.8,540,879.3,540.3,878.5,540.3 M877.1,529.3c0-3.1-1.9-5.4-4.8-5.4c-3.2,0-5.2,3-5.2,7.1c0,4.5,1.9,7,5.2,7
		c3,0,4.8-2.4,4.8-5.4V529.3z"/>
	<path class="st12" d="M897.5,540.3c-0.9,0-1.3-0.3-1.3-1.2v-1.5c-0.8,1.4-2.4,3-5.3,3c-5,0-7.4-4.3-7.4-9.6c0-5.1,2.4-9.5,7.7-9.5
		c2.7,0,4.2,1.4,5,2.7v-1.3c0-0.9,0.5-1.2,1.3-1.2c0.8,0,1.3,0.4,1.3,1.2v16.2C898.8,540,898.4,540.3,897.5,540.3 M896.2,529.3
		c0-3.1-1.9-5.4-4.8-5.4c-3.8,0-5.2,3.6-5.2,7c0,3.6,1.2,7.1,5.2,7.1c3,0,4.8-2.3,4.8-5.3V529.3z"/>
	<path class="st12" d="M910.3,524.3h-3.1v11c0,1.4,0.4,2.8,2,2.8c0.6,0,1.1-0.2,1.7-0.5c0.1-0.1,0.3-0.1,0.4-0.1c0.6,0,1,0.7,1,1.3
		c0,0.5-0.4,0.9-0.9,1.2c-0.6,0.3-1.5,0.6-2.4,0.6c-2.8,0-4.4-1.4-4.4-5.2v-11.1h-1.2c-1.3,0-1.8-0.1-1.8-1.2c0-0.9,0.3-1.2,1.2-1.2
		h1.8v-4.1c0-0.9,0.4-1.2,1.3-1.2c0.9,0,1.3,0.4,1.3,1.2v4.1h3.1c0.9,0,1.2,0.3,1.2,1.2C911.5,523.9,911.2,524.3,910.3,524.3"/>
	<path class="st12" d="M916.2,517.7c-0.9,0-1.7-0.8-1.7-1.7c0-0.9,0.7-1.7,1.7-1.7c0.9,0,1.7,0.8,1.7,1.7
		C917.9,516.9,917.1,517.7,916.2,517.7 M916.2,540.3c-0.8,0-1.3-0.4-1.3-1.2v-16.2c0-0.8,0.5-1.2,1.3-1.2c0.9,0,1.3,0.4,1.3,1.2
		v16.2C917.5,540,917,540.3,916.2,540.3z"/>
	<path class="st12" d="M929.3,540.5c-4.7,0-8-3.8-8-9.5c0-5.9,3.3-9.5,8-9.5c4.9,0,8.1,3.7,8.1,9.5
		C937.4,536.8,934,540.5,929.3,540.5 M929.3,524c-3.4,0-5.4,2.7-5.4,7c0,4.1,2.1,7,5.4,7c3.3,0,5.4-2.8,5.4-7
		C934.7,526.7,932.7,524,929.3,524z"/>
	<path class="st12" d="M954.2,540.3c-0.8,0-1.3-0.4-1.3-1.2v-10.4c0-2.2-0.7-4.7-4-4.7c-2.8,0-5.1,2-5.1,6.1v9
		c0,0.9-0.5,1.2-1.3,1.2s-1.3-0.4-1.3-1.2v-16.2c0-0.9,0.5-1.2,1.3-1.2s1.3,0.4,1.3,1.2v1.7c1-1.8,2.9-3.2,5.6-3.2
		c4.3,0,6.2,3,6.2,6.6v11C955.4,540,955,540.3,954.2,540.3"/>
	<path class="st12" d="M304.1,540.3c0,0.7-0.3,1-1,1c-0.6,0-1-0.3-1-1V521c0-0.6,0.3-1,1-1c0.6,0,1,0.3,1,1V540.3"/>
	<path class="st12" d="M321.3,540.3c0,0.6-0.3,1-0.9,1c-0.6,0-1-0.3-1-1v-9.1c0-1.4-0.3-2.5-0.9-3.2c-0.6-0.7-1.5-1.1-2.8-1.1
		c-1.4,0-2.5,0.5-3.4,1.5c-0.9,1-1.3,2.3-1.3,4v7.9c0,0.6-0.3,1-1,1c-0.6,0-0.9-0.3-0.9-1v-14.1c0-0.6,0.3-1,0.9-1c0.6,0,1,0.3,1,1
		v1.6c0.5-0.9,1.2-1.6,2-2.1c0.9-0.5,1.8-0.8,2.9-0.8c1.7,0,3.1,0.5,4,1.5c0.9,1,1.4,2.4,1.4,4.1V540.3"/>
	<path class="st12" d="M339.1,541.5c-1,0-1.8-0.2-2.6-0.6c-0.7-0.4-1.3-1-1.8-1.8v7.7c0,0.6-0.3,0.9-1,0.9c-0.6,0-0.9-0.3-0.9-0.9
		v-20.6c0-0.6,0.3-1,0.9-1c0.7,0,1,0.3,1,1v1.1c0.4-0.7,1-1.3,1.8-1.7c0.8-0.4,1.6-0.6,2.6-0.6c2.1,0,3.7,0.7,4.9,2.1
		c1.2,1.4,1.8,3.4,1.8,5.9c0,2.6-0.6,4.6-1.8,6.1C342.8,540.7,341.2,541.5,339.1,541.5 M339.1,539.7c1.4,0,2.6-0.6,3.5-1.8
		c0.9-1.2,1.3-2.8,1.3-4.8c0-2-0.4-3.5-1.3-4.6c-0.9-1.1-2-1.6-3.5-1.6c-1.3,0-2.4,0.5-3.2,1.4c-0.8,0.9-1.2,2.1-1.2,3.4v3.2
		c0,1.4,0.4,2.6,1.2,3.5C336.8,539.2,337.8,539.7,339.1,539.7z"/>
	<path class="st12" d="M361.6,540.3c0,0.6-0.3,1-1,1c-0.6,0-0.9-0.3-0.9-1v-1.5c-0.5,0.9-1.2,1.6-2,2c-0.8,0.4-1.7,0.7-2.8,0.7
		c-2,0-3.6-0.8-4.7-2.3c-1.1-1.5-1.7-3.5-1.7-6c0-2.4,0.6-4.4,1.7-5.9c1.2-1.5,2.8-2.3,4.9-2.3c1,0,1.9,0.2,2.6,0.6
		c0.7,0.4,1.4,1,1.9,1.8v-1.3c0-0.6,0.3-0.9,0.9-0.9c0.6,0,1,0.3,1,0.9V540.3 M359.7,531.7c0-1.4-0.4-2.6-1.3-3.5
		c-0.8-0.9-1.9-1.4-3.2-1.4c-1.5,0-2.7,0.6-3.5,1.8c-0.8,1.2-1.3,2.7-1.3,4.6c0,2,0.4,3.6,1.2,4.7c0.8,1.1,2,1.7,3.6,1.7
		c1.3,0,2.4-0.5,3.2-1.4c0.8-0.9,1.2-2.1,1.2-3.5V531.7z"/>
	<path class="st12" d="M368,527.3c0.4-0.7,0.9-1.3,1.5-1.7c0.6-0.4,1.4-0.6,2.2-0.6c0.7,0,1.3,0.1,1.7,0.3c0.4,0.2,0.5,0.5,0.5,0.8
		c0,0.3-0.1,0.5-0.2,0.7c-0.1,0.2-0.3,0.3-0.5,0.3c-0.1,0-0.3,0-0.5-0.1c-0.3-0.1-0.7-0.2-1.1-0.2c-1.1,0-2,0.4-2.7,1.2
		c-0.7,0.8-1,1.9-1,3.2v9c0,0.6-0.3,1-1,1c-0.6,0-0.9-0.3-0.9-1v-14.1c0-0.6,0.3-0.9,0.9-0.9c0.6,0,1,0.3,1,0.9V527.3"/>
	<path class="st12" d="M379.8,527.1v9.9c0,0.9,0.2,1.6,0.4,2c0.3,0.4,0.8,0.7,1.4,0.7c0.2,0,0.4,0,0.6-0.1c0.2,0,0.5-0.2,0.9-0.4
		c0.1-0.1,0.2-0.1,0.3-0.1c0.2,0,0.4,0.1,0.5,0.3c0.2,0.2,0.2,0.4,0.2,0.6c0,0.4-0.3,0.7-0.8,1c-0.5,0.3-1.1,0.4-1.8,0.4
		c-1.3,0-2.2-0.4-2.8-1.1c-0.6-0.7-0.9-1.8-0.9-3.3v-10h-1.7c-0.6,0-0.9-0.3-0.9-0.9c0-0.6,0.3-0.9,0.9-0.9h1.7v-3.6
		c0-0.6,0.3-0.9,0.9-0.9c0.6,0,1,0.3,1,0.9v3.6h2.6c0.6,0,0.9,0.3,0.9,0.9c0,0.6-0.3,0.9-0.9,0.9H379.8"/>
	<path class="st12" d="M398.9,540.3c0,0.6-0.3,1-0.9,1c-0.6,0-1-0.3-1-1v-9.1c0-1.4-0.3-2.5-0.9-3.2c-0.6-0.7-1.5-1.1-2.8-1.1
		c-1.4,0-2.5,0.5-3.4,1.5c-0.9,1-1.3,2.3-1.3,4v7.9c0,0.6-0.3,1-1,1c-0.6,0-0.9-0.3-0.9-1v-14.1c0-0.6,0.3-1,0.9-1c0.6,0,1,0.3,1,1
		v1.6c0.5-0.9,1.2-1.6,2-2.1c0.9-0.5,1.8-0.8,2.9-0.8c1.7,0,3.1,0.5,4,1.5c0.9,1,1.4,2.4,1.4,4.1V540.3"/>
	<path class="st12" d="M404.4,533.9c0,1.7,0.5,3.1,1.4,4.2c1,1.1,2.2,1.6,3.6,1.6c0.6,0,1.3-0.1,1.9-0.3c0.6-0.2,1.2-0.5,1.7-0.8
		c0.3-0.2,0.6-0.3,0.7-0.3c0.2,0,0.4,0.1,0.6,0.3c0.2,0.2,0.2,0.4,0.2,0.7c0,0.5-0.5,0.9-1.6,1.5c-1.1,0.5-2.3,0.8-3.6,0.8
		c-2.1,0-3.8-0.7-5.1-2.2c-1.3-1.5-1.9-3.4-1.9-5.9c0-2.4,0.6-4.4,1.8-6c1.2-1.6,2.9-2.4,5-2.4c1.9,0,3.3,0.6,4.4,1.9
		c1.1,1.3,1.6,3,1.6,5.1c0,0.6-0.1,1-0.4,1.3c-0.3,0.3-0.6,0.5-1.1,0.5H404.4 M413.4,532.1c0-1.5-0.4-2.8-1.1-3.7
		c-0.7-1-1.8-1.4-3.1-1.4c-1.4,0-2.5,0.5-3.4,1.4c-0.9,0.9-1.4,2.2-1.5,3.8H413.4z"/>
	<path class="st12" d="M420.8,527.3c0.4-0.7,0.9-1.3,1.5-1.7c0.6-0.4,1.4-0.6,2.2-0.6c0.7,0,1.3,0.1,1.7,0.3
		c0.4,0.2,0.5,0.5,0.5,0.8c0,0.3-0.1,0.5-0.2,0.7c-0.1,0.2-0.3,0.3-0.5,0.3c-0.1,0-0.3,0-0.5-0.1c-0.3-0.1-0.7-0.2-1.1-0.2
		c-1.1,0-2,0.4-2.7,1.2c-0.7,0.8-1,1.9-1,3.2v9c0,0.6-0.3,1-1,1c-0.6,0-0.9-0.3-0.9-1v-14.1c0-0.6,0.3-0.9,0.9-0.9
		c0.6,0,1,0.3,1,0.9V527.3"/>
	<path class="st12" d="M433.8,541.5c-0.8,0-1.5-0.1-2.2-0.3c-0.7-0.2-1.3-0.4-1.9-0.8c-0.6-0.4-1-0.6-1.1-0.8
		c-0.1-0.2-0.2-0.4-0.2-0.6c0-0.3,0.1-0.5,0.3-0.7c0.2-0.2,0.4-0.3,0.6-0.3c0.2,0,0.5,0.1,0.7,0.3c0.5,0.4,1.1,0.7,1.8,1
		c0.7,0.3,1.4,0.4,2.1,0.4c1.1,0,2-0.2,2.7-0.7c0.6-0.5,1-1.1,1-1.9c0-0.7-0.3-1.3-0.8-1.7c-0.5-0.4-1.2-0.7-2-0.9
		c-1.4-0.3-2.4-0.5-3-0.7s-1.2-0.5-1.6-0.8s-0.8-0.8-1.1-1.3c-0.3-0.5-0.4-1.2-0.4-2c0-1.4,0.5-2.5,1.6-3.3c1-0.9,2.4-1.3,4-1.3
		c1.2,0,2.3,0.2,3.3,0.7c1,0.5,1.5,1,1.5,1.4c0,0.2-0.1,0.5-0.3,0.7c-0.2,0.2-0.4,0.3-0.6,0.3c-0.2,0-0.5-0.1-0.7-0.3
		c-1-0.7-2.1-1.1-3.3-1.1c-1.2,0-2.1,0.2-2.7,0.7c-0.6,0.5-0.9,1.1-0.9,1.9c0,0.6,0.2,1.1,0.5,1.5c0.3,0.4,0.7,0.7,1.2,0.9
		c0.5,0.2,1.4,0.4,2.8,0.7c1.8,0.4,3,0.9,3.6,1.6c0.6,0.7,0.9,1.6,0.9,2.7c0,1.3-0.5,2.4-1.5,3.3C436.8,541,435.5,541.5,433.8,541.5
		"/>
	<path class="st12" d="M455,540.3c0,0.6-0.3,1-0.9,1c-0.6,0-1-0.3-1-1v-9.1c0-1.4-0.3-2.5-0.9-3.2c-0.6-0.7-1.5-1.1-2.8-1.1
		c-1.4,0-2.5,0.5-3.4,1.5c-0.9,1-1.3,2.3-1.3,4v7.9c0,0.6-0.3,1-1,1c-0.6,0-0.9-0.3-0.9-1v-21.4c0-0.6,0.3-1,0.9-1c0.6,0,1,0.3,1,1
		v9c0.5-0.9,1.2-1.6,2-2.1c0.9-0.5,1.8-0.8,2.9-0.8c1.7,0,3.1,0.5,4,1.5c0.9,1,1.4,2.4,1.4,4.1V540.3"/>
	<path class="st12" d="M460.4,521.4c-0.4,0-0.7-0.1-0.9-0.4c-0.2-0.3-0.4-0.6-0.4-0.9c0-0.4,0.1-0.7,0.4-0.9
		c0.2-0.3,0.5-0.4,0.9-0.4c0.3,0,0.6,0.1,0.9,0.4c0.3,0.2,0.4,0.6,0.4,0.9c0,0.4-0.1,0.7-0.4,0.9C461,521.3,460.7,521.4,460.4,521.4
		 M461.3,540.3c0,0.6-0.3,1-1,1c-0.6,0-0.9-0.3-0.9-1v-14.1c0-0.6,0.3-0.9,0.9-0.9c0.6,0,1,0.3,1,0.9V540.3z"/>
	<path class="st12" d="M472.1,541.5c-1,0-1.8-0.2-2.6-0.6c-0.7-0.4-1.3-1-1.8-1.8v7.7c0,0.6-0.3,0.9-1,0.9c-0.6,0-0.9-0.3-0.9-0.9
		v-20.6c0-0.6,0.3-1,0.9-1c0.7,0,1,0.3,1,1v1.1c0.4-0.7,1-1.3,1.8-1.7c0.8-0.4,1.6-0.6,2.6-0.6c2.1,0,3.7,0.7,4.9,2.1
		c1.2,1.4,1.8,3.4,1.8,5.9c0,2.6-0.6,4.6-1.8,6.1C475.8,540.7,474.2,541.5,472.1,541.5 M472.2,539.7c1.4,0,2.6-0.6,3.5-1.8
		c0.9-1.2,1.3-2.8,1.3-4.8c0-2-0.4-3.5-1.3-4.6c-0.9-1.1-2-1.6-3.5-1.6c-1.3,0-2.4,0.5-3.2,1.4c-0.8,0.9-1.2,2.1-1.2,3.4v3.2
		c0,1.4,0.4,2.6,1.2,3.5C469.8,539.2,470.9,539.7,472.2,539.7z"/>
	<path class="st12" d="M498.5,529c-0.6,2.3-1.2,4.4-1.9,6.3c-0.7,1.9-1.2,3.3-1.8,4.2c-0.5,0.9-0.9,1.4-1,1.5
		c-0.2,0.1-0.3,0.1-0.5,0.1h-0.1c-0.2,0-0.5-0.1-0.7-0.2c-0.2-0.1-0.7-1-1.3-2.5c-0.7-1.6-1.3-3.6-1.9-6c-0.6-2.4-1.1-4.5-1.3-6.2
		c0-0.1,0-0.2,0-0.3c0-0.6,0.3-0.8,1-0.8c0.5,0,0.8,0.3,0.9,0.8c0.3,1.9,0.8,4.1,1.4,6.4c0.6,2.3,1.3,4.5,2.2,6.5
		c1.6-3.3,3-7.6,4.3-13c0.1-0.5,0.4-0.8,1-0.8c0.5,0,0.9,0.3,1,0.8c1,5.5,2.2,9.8,3.7,12.9c1-2.1,1.8-4.2,2.5-6.4
		c0.7-2.2,1.2-4.3,1.6-6.6c0.1-0.5,0.4-0.8,0.9-0.8c0.6,0,1,0.3,1,0.8c0,0.1,0,0.3-0.1,0.5c-0.2,1.2-0.7,3.1-1.5,5.5
		c-0.8,2.5-1.5,4.6-2.3,6.2c-0.7,1.6-1.2,2.5-1.4,2.7c-0.2,0.2-0.5,0.2-0.7,0.2h-0.2c-0.2,0-0.5-0.1-0.7-0.2
		c-0.2-0.1-0.6-0.9-1.1-2.3c-0.6-1.4-1.1-2.9-1.5-4.5C499.3,532.6,498.9,530.9,498.5,529"/>
	<path class="st12" d="M513,521.4c-0.4,0-0.7-0.1-0.9-0.4c-0.2-0.3-0.4-0.6-0.4-0.9c0-0.4,0.1-0.7,0.4-0.9c0.2-0.3,0.5-0.4,0.9-0.4
		c0.3,0,0.6,0.1,0.9,0.4c0.3,0.2,0.4,0.6,0.4,0.9c0,0.4-0.1,0.7-0.4,0.9C513.7,521.3,513.4,521.4,513,521.4 M514,540.3
		c0,0.6-0.3,1-1,1c-0.6,0-0.9-0.3-0.9-1v-14.1c0-0.6,0.3-0.9,0.9-0.9c0.6,0,1,0.3,1,0.9V540.3z"/>
	<path class="st12" d="M521.3,527.1v9.9c0,0.9,0.1,1.6,0.4,2c0.3,0.4,0.8,0.7,1.4,0.7c0.2,0,0.4,0,0.6-0.1c0.2,0,0.5-0.2,0.9-0.4
		c0.1-0.1,0.2-0.1,0.3-0.1c0.2,0,0.4,0.1,0.5,0.3c0.2,0.2,0.2,0.4,0.2,0.6c0,0.4-0.3,0.7-0.8,1c-0.5,0.3-1.1,0.4-1.8,0.4
		c-1.3,0-2.2-0.4-2.8-1.1c-0.6-0.7-0.8-1.8-0.8-3.3v-10h-1.7c-0.6,0-0.9-0.3-0.9-0.9c0-0.6,0.3-0.9,0.9-0.9h1.7v-3.6
		c0-0.6,0.3-0.9,0.9-0.9c0.6,0,1,0.3,1,0.9v3.6h2.6c0.6,0,0.9,0.3,0.9,0.9c0,0.6-0.3,0.9-0.9,0.9H521.3"/>
	<path class="st12" d="M540.4,540.3c0,0.6-0.3,1-0.9,1c-0.6,0-1-0.3-1-1v-9.1c0-1.4-0.3-2.5-0.9-3.2c-0.6-0.7-1.5-1.1-2.8-1.1
		c-1.4,0-2.5,0.5-3.4,1.5c-0.9,1-1.3,2.3-1.3,4v7.9c0,0.6-0.3,1-1,1c-0.6,0-0.9-0.3-0.9-1v-21.4c0-0.6,0.3-1,0.9-1c0.6,0,1,0.3,1,1
		v9c0.5-0.9,1.2-1.6,2-2.1c0.9-0.5,1.8-0.8,2.9-0.8c1.7,0,3.1,0.5,4,1.5c0.9,1,1.4,2.4,1.4,4.1V540.3"/>
	<path class="st12" d="M554.7,527.1v9.9c0,0.9,0.2,1.6,0.5,2c0.3,0.4,0.8,0.7,1.4,0.7c0.2,0,0.4,0,0.6-0.1c0.2,0,0.5-0.2,0.9-0.4
		c0.1-0.1,0.2-0.1,0.3-0.1c0.2,0,0.4,0.1,0.5,0.3c0.2,0.2,0.2,0.4,0.2,0.6c0,0.4-0.3,0.7-0.8,1c-0.5,0.3-1.1,0.4-1.8,0.4
		c-1.3,0-2.2-0.4-2.8-1.1c-0.6-0.7-0.8-1.8-0.8-3.3v-10H551c-0.6,0-0.9-0.3-0.9-0.9c0-0.6,0.3-0.9,0.9-0.9h1.7v-3.6
		c0-0.6,0.3-0.9,0.9-0.9c0.6,0,1,0.3,1,0.9v3.6h2.6c0.6,0,0.9,0.3,0.9,0.9c0,0.6-0.3,0.9-0.9,0.9H554.7"/>
	<path class="st12" d="M573.8,540.3c0,0.6-0.3,1-0.9,1c-0.6,0-1-0.3-1-1v-9.1c0-1.4-0.3-2.5-0.9-3.2s-1.5-1.1-2.8-1.1
		c-1.4,0-2.5,0.5-3.4,1.5c-0.9,1-1.3,2.3-1.3,4v7.9c0,0.6-0.3,1-1,1c-0.6,0-0.9-0.3-0.9-1v-21.4c0-0.6,0.3-1,0.9-1c0.6,0,1,0.3,1,1
		v9c0.5-0.9,1.2-1.6,2-2.1c0.9-0.5,1.8-0.8,2.9-0.8c1.7,0,3.1,0.5,4,1.5c0.9,1,1.4,2.4,1.4,4.1V540.3"/>
	<path class="st12" d="M579.3,533.9c0,1.7,0.5,3.1,1.4,4.2c1,1.1,2.2,1.6,3.6,1.6c0.6,0,1.3-0.1,1.9-0.3c0.6-0.2,1.2-0.5,1.7-0.8
		c0.3-0.2,0.6-0.3,0.7-0.3c0.2,0,0.4,0.1,0.6,0.3s0.2,0.4,0.2,0.7c0,0.5-0.5,0.9-1.6,1.5c-1.1,0.5-2.3,0.8-3.6,0.8
		c-2.1,0-3.8-0.7-5.1-2.2c-1.3-1.5-1.9-3.4-1.9-5.9c0-2.4,0.6-4.4,1.9-6c1.2-1.6,2.9-2.4,5-2.4c1.9,0,3.3,0.6,4.4,1.9
		c1.1,1.3,1.6,3,1.6,5.1c0,0.6-0.1,1-0.4,1.3c-0.3,0.3-0.6,0.5-1.1,0.5H579.3 M588.3,532.1c0-1.5-0.4-2.8-1.1-3.7
		c-0.7-1-1.8-1.4-3.1-1.4c-1.4,0-2.5,0.5-3.4,1.4c-0.9,0.9-1.4,2.2-1.5,3.8H588.3z"/>
</g>
</svg>
