<?xml version="1.0" encoding="utf-8"?>
<!-- Generator: Adobe Illustrator 19.0.1, SVG Export Plug-In . SVG Version: 6.00 Build 0)  -->
<svg version="1.1" id="Layer_1" xmlns="http://www.w3.org/2000/svg" xmlns:xlink="http://www.w3.org/1999/xlink" x="0px" y="0px"
	 viewBox="0 0 51 48.7" style="enable-background:new 0 0 51 48.7;" xml:space="preserve">
<style type="text/css">
	.st0{fill:none;stroke:#AF5223;stroke-width:2;stroke-miterlimit:10;}
</style>
<g>
	<path class="st0" d="M44.3,19.7c0-1.1-0.9-2-2-2s-2,0.9-2,2c0,0.5,0,14.5,0,15c0,1.1,0.9,2,2,2s2-0.9,2-2
		C44.3,34.2,44.3,20.1,44.3,19.7z"/>
	<path class="st0" d="M28.3,46.7c1.1,0,2-0.9,2-2s-0.9-2-2-2c-0.5,0-4.5,0-5,0c-1.1,0-2,0.9-2,2s0.9,2,2,2
		C23.8,46.7,27.9,46.7,28.3,46.7z"/>
	<path class="st0" d="M8.3,18.7c0-9.4,7.6-17,17-17s17,7.6,17,17"/>
	<path class="st0" d="M44.3,19.7c2.8,0,5,3.4,5,7.5c0,4.1-2.2,7.5-5,7.5"/>
	<path class="st0" d="M6.3,19.7c0-1.1,0.9-2,2-2s2,0.9,2,2c0,0.5,0,14.5,0,15c0,1.1-0.9,2-2,2s-2-0.9-2-2
		C6.3,34.2,6.3,20.1,6.3,19.7z"/>
	<path class="st0" d="M6.3,19.7c-2.8,0-5,3.4-5,7.5c0,4.1,2.2,7.5,5,7.5"/>
	<path class="st0" d="M42.3,36.7c0,5-3,8-8,8h-4"/>
</g>
</svg>
