<?xml version="1.0" encoding="utf-8"?>
<!-- Generator: Adobe Illustrator 19.0.1, SVG Export Plug-In . SVG Version: 6.00 Build 0)  -->
<svg version="1.1" id="Layer_1" xmlns="http://www.w3.org/2000/svg" xmlns:xlink="http://www.w3.org/1999/xlink" x="0px" y="0px"
	 viewBox="0 0 139.8 136.5" style="enable-background:new 0 0 139.8 136.5;" xml:space="preserve">
<style type="text/css">
	.st0{fill:none;stroke:#5C7A37;stroke-width:5;stroke-miterlimit:10;}
</style>
<path class="st0" d="M72.5,122.7c-1.1,1.1-2.4,1.7-3.8,1.9c-1.5,0.1-2.6-0.2-3.5-1.1l-22.4-22.4L9.6,128.9c-0.6,0.4-1.2,0.7-1.8,0.7
	c-0.7,0.1-1.2-0.1-1.6-0.5l-0.1-0.1c-0.9-0.9-0.9-2.1,0-3.4l26.7-34.6l-21-21c-0.9-0.9-1.3-2.1-1.1-3.5c0.1-1.5,0.8-2.7,1.9-3.8
	c5.2-5.2,11.2-8.5,18.1-9.9c6.9-1.4,12-0.4,15.5,3l32.4-32.4c-1.8-1.8-2.6-4.2-2.3-7.1c0.3-2.9,1.5-5.5,3.7-7.7
	C82,6.5,84.6,5.2,87.5,5c2.9-0.3,5.3,0.5,7.1,2.3l33.3,33.3c1.8,1.8,2.6,4.2,2.3,7.1c-0.3,2.9-1.5,5.5-3.7,7.7
	c-2.2,2.2-4.7,3.4-7.7,3.7c-2.9,0.3-5.3-0.5-7.1-2.3L79.4,89.1c3.4,3.4,4.4,8.6,3,15.5C81,111.5,77.7,117.5,72.5,122.7z M59.7,65.4
	L88,37.1c0.6-0.6,0.9-1.2,1-1.9c0.1-0.7-0.1-1.3-0.6-1.8c-0.5-0.5-1.1-0.7-1.8-0.6c-0.7,0.1-1.3,0.4-1.9,1L56.4,62.1
	c-0.6,0.6-0.9,1.2-1,1.9c-0.1,0.7,0.1,1.3,0.6,1.8c0.5,0.5,1.1,0.7,1.8,0.6C58.5,66.4,59.1,66,59.7,65.4z"/>
</svg>
