<?xml version="1.0" encoding="UTF-8" standalone="no"?>
<svg width="1064px" height="420px" viewBox="0 0 1064 420" version="1.1" xmlns="http://www.w3.org/2000/svg" xmlns:xlink="http://www.w3.org/1999/xlink">
    <!-- Generator: Sketch 41.2 (35397) - http://www.bohemiancoding.com/sketch -->
    <title>Group 2</title>
    <desc>Created with Sketch.</desc>
    <defs></defs>
    <g id="Page-1" stroke="none" stroke-width="1" fill="none" fill-rule="evenodd">
        <g id="V4" transform="translate(-310.000000, -92.000000)">
            <g id="Group-2" transform="translate(309.000000, 92.000000)">
                <path d="M1.74064051,54.5166923 C3.72990942,54.4730584 4.81175472,54.4501072 6.06374496,54.4242251 C9.64806608,54.3501272 13.8729587,54.2674965 18.7117294,54.1784609 C32.5501271,53.9238281 48.5239754,53.6691011 66.4196826,53.4312985 C117.569008,52.7516138 173.845435,52.34375 233.539062,52.34375 C294.645791,52.34375 363.361424,82.3092839 416.826403,132.715768 C473.816575,186.445785 507.246094,256.792927 507.246094,330.867187 L507.246094,418.918087 C559.246094,418.915975 559.246094,418.915975 559.246094,418.90661 L559.246094,368.811277 L507.246094,368.811277 L507.246094,418.918087 L559.246094,418.917987 L559.246094,330.867187 C559.246094,241.736049 519.459147,158.010705 452.497816,94.8799348 C389.792241,35.7614684 308.573901,0.34375 233.539062,0.34375 C173.603783,0.34375 117.09896,0.753269058 65.7287549,1.43588895 C47.7426262,1.67489304 31.6803417,1.9310303 17.7550675,2.18726171 C12.876553,2.27702861 8.61230989,2.36042886 4.98898941,2.43533301 C3.71830509,2.4616016 2.61785364,2.4849475 1.69096677,2.50510455 C0.609577096,2.52896795 1.74064051,54.5166923 1.74064051,54.5166923 Z" id="Path-7" fill="#F0F0F0"></path>
                <path d="M558.148438,419.599803 L558.148438,370.811277 L506.148438,370.811277 L506.148438,419.599883 C521.418862,419.599861 532.204943,419.599846 539.823561,419.599831 C558.143865,419.599794 558.148436,419.599755 558.148437,419.599624 L558.148438,330.867187 C558.148438,256.792927 591.577957,186.445785 648.568128,132.715768 C702.033107,82.3092839 770.74874,52.34375 831.855469,52.34375 C891.549096,52.34375 947.825523,52.7516138 998.974849,53.4312985 C1016.87056,53.6691011 1032.8444,53.9238281 1046.6828,54.1784609 C1051.52157,54.2674965 1055.74647,54.3501272 1059.33079,54.4242251 C1060.58278,54.4501072 1061.66462,54.4730584 1062.57299,54.4928126 C1063.11455,54.50459 1064.8383,2.53018269 1064.8383,2.53018269 C1062.77668,2.4849475 1061.67623,2.4616016 1060.40554,2.43533301 C1056.78222,2.36042886 1052.51798,2.27702861 1047.63946,2.18726171 C1033.71419,1.9310303 1017.65191,1.67489304 999.665776,1.43588895 C948.295571,0.753269058 891.790748,0.34375 831.855469,0.34375 C756.82063,0.34375 675.60229,35.7614684 612.896715,94.8799348 C545.935384,158.010705 506.148438,241.736049 506.148438,330.867187 L506.148438,419.599624 C506.148438,419.59981 558.148438,419.599803 558.148438,419.599803 Z" id="Path-7-Copy" fill="#F0F0F0"></path>
                <path d="M533,377 L533,386.649994" id="Line-Copy" stroke="#F0F0F0" stroke-width="52" stroke-linecap="square"></path>
            </g>
        </g>
    </g>
</svg>